<svg width="552" height="359" viewBox="0 0 552 359" fill="none" xmlns="http://www.w3.org/2000/svg">
<rect y="0.945312" width="552" height="357.204" rx="64" fill="#FFFCEB"/>
<g filter="url(#filter0_ddd_1310_14227)">
<rect x="37.4453" y="56.3242" width="141.005" height="43" rx="21.5" transform="rotate(-3 37.4453 56.3242)" fill="white"/>
<path d="M65.8608 69.1205L66.0735 73.1775L68.0395 73.0744L68.1156 74.5256L66.1495 74.6286L66.394 79.2941L64.6308 79.3865L64.0976 69.213L65.8608 69.1205ZM62.0788 70.3984C62.2751 74.1432 59.9807 76.939 55.8628 78.3752L55.073 77.0397C58.2465 75.9425 60.0738 74.0865 60.2652 71.9172L55.4125 72.1716L55.338 70.7516L62.0788 70.3984ZM67.0423 81.5132L67.1159 82.9175L57.5197 83.4204L57.2735 78.7238L59.0368 78.6314L59.2093 81.9237L67.0423 81.5132ZM81.8475 79.2665L81.9211 80.6708L69.0325 81.3463L68.9589 79.942L74.4826 79.6525L74.3117 76.3914L76.0281 76.3014L76.199 79.5626L81.8475 79.2665ZM75.7707 70.4944C75.8827 72.6321 78.1308 74.6266 81.12 74.9393L80.4463 76.4141C78.0352 76.0867 76.0132 74.8236 74.9801 73.0236C74.1404 74.9139 72.2783 76.404 69.9295 76.9652L69.1053 75.569C72.0298 74.9463 74.0251 72.7138 73.9295 70.5909L73.8755 69.5611L75.7167 69.4646L75.7707 70.4944ZM93.1908 67.6882L93.4959 73.5084L95.4775 73.4045L95.5536 74.8557L93.5719 74.9595L93.9301 81.7939L92.1825 81.8855L91.4432 67.7798L93.1908 67.6882ZM82.3966 78.4711C83.4655 78.4151 84.706 78.35 85.9994 78.251L85.9299 76.9247C84.3795 76.7477 83.3223 75.8331 83.2688 74.5138C83.1698 72.923 84.5185 71.7884 86.547 71.6821C88.5443 71.5774 90.0198 72.564 90.1188 74.1548C90.1727 75.4819 89.2014 76.5029 87.6775 76.8331L87.7438 78.097C88.9264 77.9724 90.1073 77.8166 91.207 77.6025L91.3825 78.8607C88.384 79.5655 85.1245 79.7676 82.7215 79.8935L82.3966 78.4711ZM90.6233 69.45L90.6952 70.8232L82.2849 71.2639L82.2129 69.8908L85.5521 69.7158L85.4703 68.1554L87.2179 68.0639L87.2997 69.6242L90.6233 69.45ZM86.6165 73.0084C85.5407 73.0804 84.8639 73.6009 84.9072 74.4279C84.9497 75.2393 85.6773 75.6862 86.7531 75.6142C87.8149 75.5742 88.4918 75.0536 88.4492 74.2423C88.4059 73.4153 87.6784 72.9684 86.6165 73.0084ZM104.123 71.5589L104.196 72.9476L101.575 73.085L101.658 74.6766C102.834 74.568 104 74.4287 105.094 74.2618L105.285 75.5035C102.311 76.0818 99.0693 76.3299 96.4479 76.4673L96.1411 75.0909C97.3031 75.0221 98.59 74.9469 99.9139 74.8306L99.8272 73.1766L97.2682 73.3107L97.009 68.3643L103.828 68.007L103.901 69.4113L98.8302 69.6771L98.943 71.8304L104.123 71.5589ZM107.449 66.941L108.004 77.5359L106.256 77.6274L105.701 67.0326L107.449 66.941ZM108.505 79.3402L108.579 80.7445L98.7175 81.2614L98.5074 77.2512L100.255 77.1596L100.392 79.7654L108.505 79.3402ZM118.207 68.4582C118.271 69.9725 119.508 71.488 121.694 71.9993L120.955 73.4149C119.331 73.0306 118.148 72.0991 117.459 70.8913C116.891 72.298 115.764 73.4836 114.152 74.0843L113.223 72.7718C115.386 71.9387 116.544 70.1569 116.459 68.5341L116.456 68.4873L113.492 68.6427L113.418 67.2384L121.048 66.8385L121.122 68.2428L118.204 68.3958L118.207 68.4582ZM124.777 66.0329L125.155 73.2574L123.423 73.3481L123.274 70.4927L120.855 70.6194L120.783 69.2307L123.201 69.1039L123.045 66.1237L124.777 66.0329ZM125.187 73.8503L125.379 77.5171L117.827 77.9129L117.885 79.0208L125.889 78.6013L125.96 79.9588L116.224 80.4691L116.027 76.7086L123.579 76.3128L123.527 75.3142L115.959 75.7108L115.887 74.3377L125.187 73.8503ZM131.811 70.1548C131.921 72.2457 133.226 74.4616 135.449 75.3778L134.55 76.7392C132.991 76.109 131.81 74.7705 131.139 73.1472C130.608 74.9587 129.524 76.5254 127.947 77.3356L126.925 76.0436C129.088 74.9288 130.211 72.4604 130.095 70.2447L130.056 69.5114L127.045 69.6692L126.972 68.2805L129.983 68.1226L129.875 66.063L131.607 65.9722L131.715 68.0319L134.68 67.8765L134.753 69.2652L131.773 69.4214L131.811 70.1548ZM137.662 65.3576L137.954 70.9437L140.123 70.83L140.199 72.2812L138.03 72.3948L138.401 79.4633L136.669 79.554L135.93 65.4484L137.662 65.3576Z" fill="#FFDC00"/>
<path fill-rule="evenodd" clip-rule="evenodd" d="M153.505 67.1878C153.2 67.6155 152.843 68.2019 152.707 68.4762C151.548 70.9632 151.532 70.9863 150.912 70.4512C149.48 69.2352 147.189 68.476 147.747 70.695C148.091 72.0348 149.03 74.4676 149.285 75.2778C149.944 77.4136 150.253 77.7536 151.206 77.4142C153.572 76.5557 157.004 76.3535 159.497 76.924C160.114 77.0698 160.145 76.9792 160.126 75.4331C160.085 72.3077 161.352 69.1917 161.301 68.215C161.243 67.1161 159.64 68.0238 157.52 70.3498L157.302 70.5837L156.962 70.3233C156.263 69.7923 155.952 70.2538 156.38 71.1775C156.728 71.9272 156.997 72.1691 157.653 71.7229C158.028 71.4695 158.542 70.9973 159.264 70.2806C159.549 69.9985 159.786 69.7969 159.788 69.8302C159.796 69.9856 159.411 72.9218 159.412 72.9329C159.313 73.4145 159.427 73.2275 159.275 73.8639C159.275 73.8639 159.264 74.4877 159.159 74.8493C159.046 75.2114 158.83 75.3118 158.461 75.1753C155.573 74.1469 151.043 75.8201 151.035 75.8205C150.869 75.8626 149.07 70.8482 149.185 70.6864C149.202 70.6632 149.394 70.7978 149.616 70.9866C152.117 73.0481 152.36 72.9686 153.769 69.7005L154.43 68.1633L154.749 68.6919C155.677 70.2348 156.838 69.4728 156.108 68.3425C155.858 67.966 155.45 67.4086 154.795 66.5414C154.501 66.145 154.105 66.3439 153.505 67.1878Z" fill="#FFDC00"/>
</g>
<g clip-path="url(#clip0_1310_14227)">
<rect x="51.498" y="113.123" width="110.543" height="128.371" rx="9" transform="rotate(-2 51.498 113.123)" fill="#FFFCEB"/>
<path d="M134.806 204.501L107.669 213.275C104.452 214.315 101.006 212.567 99.9728 209.371C98.9395 206.175 100.71 202.741 103.927 201.701L131.064 192.927C134.282 191.887 137.728 193.635 138.761 196.831C139.794 200.027 138.024 203.461 134.806 204.501Z" stroke="#FFDC00" stroke-width="4"/>
<path d="M139.606 175.765L86.9545 192.788C83.7371 193.829 80.2913 192.081 79.258 188.885C78.2247 185.689 79.9952 182.255 83.2126 181.215L135.864 164.192C139.081 163.152 142.527 164.899 143.561 168.095C144.594 171.291 142.823 174.725 139.606 175.765Z" stroke="#FFDC00" stroke-width="4"/>
<path d="M143.079 147.457L67.5678 171.87C64.3504 172.911 60.9045 171.163 59.8712 167.967C58.8379 164.771 60.6085 161.337 63.8259 160.297L139.337 135.883C142.555 134.843 146.001 136.59 147.034 139.786C148.067 142.982 146.297 146.416 143.079 147.457Z" stroke="#FFDC00" stroke-width="4"/>
</g>
<g filter="url(#filter1_ddd_1310_14227)">
<rect x="191.507" y="48.9453" width="155.005" height="43" rx="21.5" fill="white"/>
<path d="M215.411 64.1484V70.2891H208.723V64.1484H215.411ZM210.426 65.5391V68.8984H213.707V65.5391H210.426ZM219.379 63.2109V66.3828H221.348V67.8203H219.379V71.1797H217.645V63.2109H219.379ZM219.582 71.8984V73.2734H215.832C216.106 74.4766 217.707 75.6094 220.176 75.9609L219.551 77.2891C217.348 76.9766 215.668 76.0312 214.864 74.7578C214.043 76.0312 212.395 76.9688 210.192 77.2578L209.551 75.9453C212.043 75.6094 213.606 74.5078 213.895 73.2734H210.129V71.8984H219.582ZM234.782 70.0703V71.4453H229.188V72.6797H233.219V77.1641H223.422V72.6797H227.469V71.4453H221.907V70.0703H234.782ZM229.188 63.1953V64.4609H233.516V65.8359H229.313C229.516 66.9922 231.18 67.9453 234.141 68.1484L233.641 69.4297C231.087 69.2344 229.212 68.4844 228.329 67.2891C227.438 68.4844 225.563 69.2344 223.032 69.4297L222.516 68.1484C225.493 67.9453 227.133 66.9922 227.344 65.8359H223.172V64.4609H227.469V63.1953H229.188ZM225.141 74.0703V75.7578H231.532V74.0703H225.141ZM243.497 64.6172V65.9922H235.606V64.6172H238.762V63.0859H240.497V64.6172H243.497ZM239.606 66.5547C241.528 66.5547 242.903 67.6172 242.919 69.1953C242.903 70.7578 241.528 71.8047 239.606 71.8047C237.684 71.8047 236.325 70.7578 236.341 69.1953C236.325 67.6172 237.684 66.5547 239.606 66.5547ZM239.606 67.8516C238.606 67.8516 237.95 68.3516 237.966 69.1953C237.95 70.0234 238.606 70.5078 239.606 70.5078C240.606 70.5078 241.294 70.0234 241.294 69.1953C241.294 68.3516 240.606 67.8516 239.606 67.8516ZM247.403 63.2109V72.2578H245.669V70.6016H243.575V69.2109H245.669V67.8203H243.591V66.4141H245.669V63.2109H247.403ZM242.653 72.4141C245.637 72.4141 247.481 73.3203 247.481 74.8672C247.481 76.3984 245.637 77.3203 242.653 77.3203C239.669 77.3203 237.825 76.3984 237.825 74.8672C237.825 73.3203 239.669 72.4141 242.653 72.4141ZM242.653 73.7422C240.747 73.7422 239.653 74.1172 239.653 74.8672C239.653 75.6016 240.747 75.9922 242.653 75.9922C244.544 75.9922 245.622 75.6016 245.622 74.8672C245.622 74.1172 244.544 73.7422 242.653 73.7422ZM264.708 63.2109V71.6016H262.974V68.1484H260.567V66.7266H262.974V63.2109H264.708ZM259.927 71.9609C262.927 71.9609 264.755 72.9453 264.755 74.6484C264.755 76.3516 262.927 77.3359 259.927 77.3359C256.942 77.3359 255.114 76.3516 255.13 74.6484C255.114 72.9453 256.942 71.9609 259.927 71.9609ZM259.927 73.2891C257.958 73.2891 256.849 73.7578 256.849 74.6484C256.849 75.5234 257.958 75.9922 259.927 75.9922C261.896 75.9922 263.021 75.5234 263.021 74.6484C263.021 73.7578 261.896 73.2891 259.927 73.2891ZM258.067 65.6328C258.067 67.3516 259.208 69.0859 261.396 69.8203L260.521 71.1953C258.95 70.6641 257.833 69.5859 257.224 68.2578C256.599 69.7656 255.419 70.9688 253.739 71.5703L252.833 70.1953C255.099 69.4141 256.302 67.5078 256.302 65.6484V65.5391H253.364V64.1328H260.989V65.5391H258.067V65.6328ZM279.454 74.2109V75.6328H266.548V74.2109H272.111V71.4609H267.97V64.1484H269.704V66.4609H276.251V64.1484H277.986V71.4609H273.829V74.2109H279.454ZM269.704 70.0547H276.251V67.8516H269.704V70.0547ZM292.372 63.2109V77.3359H290.716V63.2109H292.372ZM289.497 63.4766V76.6484H287.857V69.5391H285.826V68.1328H287.857V63.4766H289.497ZM284.576 67.0703C284.576 69.4609 285.435 71.8516 287.451 73.0078L286.419 74.2891C285.115 73.5078 284.247 72.1641 283.763 70.5547C283.263 72.2969 282.365 73.7812 281.029 74.6172L279.966 73.3203C282.013 72.0859 282.904 69.5234 282.904 67.0703V66.1328H280.451V64.7266H286.857V66.1328H284.576V67.0703ZM300.244 72.0391C303.306 72.0547 305.244 73.0234 305.259 74.6953C305.244 76.3359 303.306 77.3203 300.244 77.3203C297.197 77.3203 295.244 76.3359 295.244 74.6953C295.244 73.0234 297.197 72.0547 300.244 72.0391ZM300.244 73.3516C298.212 73.3516 296.978 73.8359 296.994 74.6953C296.978 75.5234 298.212 75.9766 300.244 75.9766C302.291 75.9766 303.525 75.5234 303.541 74.6953C303.525 73.8359 302.291 73.3516 300.244 73.3516ZM305.166 63.8828V65.0547C305.166 66.1641 305.166 67.3516 304.775 68.8047L303.056 68.6484C303.408 67.2734 303.431 66.2812 303.431 65.2578H295.384V63.8828H305.166ZM306.728 69.6172V71.0234H293.916V69.6172H298.884V67.0547H300.603V69.6172H306.728Z" fill="#00EB90"/>
<path fill-rule="evenodd" clip-rule="evenodd" d="M320.839 65.8696C320.512 66.2808 320.124 66.8476 319.974 67.1144C318.687 69.5374 318.67 69.5596 318.079 68.9928C316.712 67.7035 314.464 66.8254 314.905 69.0706C315.178 70.4266 315.989 72.9052 316.201 73.7277C316.748 75.895 317.039 76.2507 318.008 75.9617C320.415 75.2282 323.854 75.2059 326.314 75.9061C326.922 76.0839 326.957 75.9951 327.019 74.4501C327.142 71.3269 328.571 68.2814 328.571 67.3033C328.571 66.203 326.922 67.0255 324.683 69.2373L324.453 69.4596L324.127 69.1817C323.457 68.6149 323.122 69.0595 323.501 70.0042C323.81 70.7711 324.065 71.0268 324.744 70.6155C325.132 70.3821 325.67 69.9375 326.428 69.2595C326.728 68.9928 326.975 68.8038 326.975 68.8372C326.975 68.9928 326.437 71.9048 326.437 71.9159C326.314 72.3918 326.437 72.211 326.252 72.8385C326.252 72.8385 326.208 73.4609 326.084 73.8165C325.952 74.1722 325.732 74.2612 325.37 74.1055C322.54 72.9274 317.929 74.3612 317.92 74.3612C317.753 74.3945 316.219 69.2929 316.342 69.1373C316.36 69.115 316.545 69.2595 316.756 69.4596C319.146 71.6492 319.393 71.5825 320.971 68.3926L321.711 66.8921L322.002 67.4367C322.849 69.0261 324.048 68.3259 323.378 67.1589C323.148 66.7698 322.769 66.1919 322.161 65.2916C321.888 64.8804 321.482 65.0582 320.839 65.8696Z" fill="#00EB90"/>
</g>
<g clip-path="url(#clip1_1310_14227)">
<rect x="213.509" y="101.945" width="111" height="129" rx="9" fill="#FFFCEB"/>
<path d="M225 138H245" stroke="#FFDC00" stroke-width="5"/>
<path d="M226 138V158" stroke="#FFDC00" stroke-width="5"/>
<path d="M226 207H245" stroke="#FFDC00" stroke-width="5"/>
<path d="M226 207V187" stroke="#FFDC00" stroke-width="5"/>
<path d="M313 138H294" stroke="#FFDC00" stroke-width="5"/>
<path d="M313 138V158" stroke="#FFDC00" stroke-width="5"/>
<path d="M314 207H294" stroke="#FFDC00" stroke-width="5"/>
<path d="M313 207V187" stroke="#FFDC00" stroke-width="5"/>
<path d="M270 162V183" stroke="#FFDC00" stroke-width="5"/>
<path d="M280 173H259" stroke="#FFDC00" stroke-width="5"/>
</g>
<g filter="url(#filter2_ddd_1310_14227)">
<rect x="359.762" y="48.9453" width="155.005" height="43" rx="21.5" transform="rotate(3 359.762 48.9453)" fill="white"/>
<path d="M387.472 64.6978L386.933 74.9962L385.185 74.9046L385.725 64.6062L387.472 64.6978ZM387.212 77.1231L387.139 78.5274L377.418 78.018L377.653 73.5241L379.401 73.6157L379.239 76.7052L387.212 77.1231ZM380.868 66.5109C380.765 68.477 381.823 70.3943 384.015 71.2602L383.053 72.5867C381.476 71.9408 380.388 70.7572 379.847 69.2894C379.126 70.7928 377.899 71.9646 376.206 72.4782L375.373 71.0577C377.709 70.3665 378.968 68.4454 379.074 66.4169L379.146 65.0438L380.94 65.1378L380.868 66.5109ZM401.867 72.3836L401.794 73.7879L388.936 73.1141L389.01 71.7098L394.565 72.0009L394.668 70.0348L396.384 70.1248L396.281 72.0908L401.867 72.3836ZM396.62 65.9282C396.53 67.6446 398.336 69.3039 401.266 69.833L400.523 71.1553C398.225 70.675 396.439 69.5331 395.619 68.0037C394.637 69.4386 392.741 70.3876 390.397 70.6246L389.844 69.2344C392.766 69.012 394.768 67.521 394.857 65.8358L394.884 65.3053L396.648 65.3977L396.62 65.9282ZM400.159 74.8288L399.915 79.4787L398.183 79.3879L398.356 76.0955L390.226 75.6695L390.297 74.312L400.159 74.8288ZM414.147 66.0958L413.915 70.5272L415.881 70.6302L415.806 72.0658L413.839 71.9627L413.595 76.6282L411.863 76.5374L412.415 66.005L414.147 66.0958ZM411.319 67.5122L411.246 68.9009L402.883 68.4626L402.955 67.0739L406.279 67.2481L406.362 65.6721L408.094 65.7629L408.011 67.3388L411.319 67.5122ZM407.034 69.2591C409.063 69.3654 410.411 70.5157 410.341 72.1392C410.241 73.7456 408.781 74.733 406.753 74.6267C404.709 74.5196 403.344 73.3842 403.429 71.777C403.514 70.1542 404.99 69.152 407.034 69.2591ZM406.964 70.601C405.887 70.5446 405.159 71.0071 405.114 71.8653C405.07 72.7079 405.746 73.244 406.823 73.2848C407.899 73.3569 408.643 72.8952 408.687 72.0526C408.732 71.1944 408.04 70.6574 406.964 70.601ZM414.059 78.5301L413.985 79.9344L404.389 79.4315L404.604 75.3277L406.336 75.4185L406.194 78.1179L414.059 78.5301ZM422.637 67.2605L422.536 69.1797L425.688 69.3449L425.789 67.4256L427.505 67.5156L427.37 70.0902L430.21 70.239L430.384 66.9311L432.116 67.0218L431.712 74.73L429.98 74.6392L430.135 71.6745L427.295 71.5257L427.163 74.0535L420.562 73.7076L420.905 67.1697L422.637 67.2605ZM422.368 72.394L425.52 72.5592L425.618 70.6868L422.466 70.5216L422.368 72.394ZM424.111 74.9575L424.036 76.3931L429.872 76.6989L429.947 75.2634L431.679 75.3541L431.387 80.9246L422.087 80.4372L422.379 74.8668L424.111 74.9575ZM423.893 79.1237L429.729 79.4295L429.801 78.0408L423.966 77.735L423.893 79.1237ZM446.496 74.0966L446.428 75.3917L443.151 75.22L443.1 76.1874L444.817 76.2774L444.648 79.4917L436.566 79.0681L436.513 80.0667L445.017 80.5124L444.954 81.7139L434.718 81.1774L434.893 77.8539L442.991 78.2783L443.037 77.4045L434.923 76.9793L434.986 75.7622L436.781 75.8562L436.832 74.8888L433.539 74.7163L433.607 73.4212L446.496 74.0966ZM445.218 68.0214L445.052 71.189L437.11 70.7727L437.065 71.6309L445.257 72.0602L445.194 73.2617L435.286 72.7424L435.452 69.5593L443.379 69.9747L443.424 69.1165L435.451 68.6987L435.513 67.5128L445.218 68.0214ZM438.497 75.9462L441.384 76.0975L441.435 75.13L438.548 74.9788L438.497 75.9462ZM452.713 72.1224C452.592 74.4318 453.822 76.9371 456.05 78.0083L455.027 79.3315C453.395 78.5262 452.255 76.9801 451.709 75.1522C450.953 77.0527 449.635 78.6109 447.94 79.3043L447.013 77.8945C449.298 76.9816 450.824 74.433 450.95 72.03L451.012 70.8442L447.907 70.6814L447.982 69.2459L455.94 69.6629L455.865 71.0985L452.775 70.9366L452.713 72.1224ZM459.336 68.4484L458.597 82.554L456.85 82.4625L457.589 68.3568L459.336 68.4484ZM473.079 69.1843L472.519 79.8571L470.772 79.7655L470.836 78.5328L468.074 78.3881L468.138 77.171L470.9 77.3158L471.331 69.0927L473.079 69.1843ZM472.756 81.6063L472.683 83.0106L462.337 82.4684L462.556 78.3023L464.288 78.393L464.143 81.1549L472.756 81.6063ZM460.857 74.8962C463.463 75.0171 466.96 75.1691 469.976 74.9516L470.004 76.2048C468.831 76.3389 467.623 76.4086 466.425 76.4241L466.283 79.1391L464.551 79.0483L464.688 76.4269C463.367 76.4124 462.11 76.3544 461.002 76.2964L460.857 74.8962ZM465.765 69.3173C467.824 69.4252 469.207 70.5147 469.145 71.9978C469.05 73.5106 467.564 74.4028 465.504 74.2948C463.413 74.1852 462.028 73.1426 462.107 71.629C462.185 70.1467 463.674 69.2077 465.765 69.3173ZM465.698 70.5968C464.574 70.5379 463.786 70.9503 463.746 71.7149C463.706 72.4795 464.447 72.9721 465.57 73.0309C466.647 73.0874 467.435 72.6749 467.491 71.9112C467.515 71.1458 466.774 70.6532 465.698 70.5968Z" fill="#3F5EF4"/>
<path fill-rule="evenodd" clip-rule="evenodd" d="M488.03 72.6155C487.683 73.0092 487.266 73.5549 487.102 73.8135C485.69 76.1658 485.671 76.1871 485.111 75.5901C483.814 74.231 481.614 73.2365 481.937 75.5017C482.139 76.8701 482.819 79.3878 482.988 80.2202C483.42 82.4132 483.692 82.7836 484.676 82.5457C487.118 81.9392 490.553 82.0969 492.972 82.9249C493.571 83.1343 493.61 83.0474 493.753 81.5078C494.04 78.3953 495.625 75.4288 495.677 74.452C495.734 73.3532 494.045 74.0883 491.693 76.1799L491.452 76.3899L491.141 76.0953C490.501 75.4942 490.144 75.9206 490.473 76.8839C490.741 77.6659 490.983 77.9346 491.682 77.5594C492.082 77.3466 492.642 76.9308 493.435 76.2934C493.748 76.0427 494.004 75.867 494.003 75.9003C493.995 76.0557 493.305 78.9356 493.305 78.9467C493.156 79.4154 493.289 79.2413 493.071 79.8583C493.071 79.8583 492.995 80.4775 492.853 80.8262C492.702 81.1744 492.477 81.2517 492.125 81.0774C489.36 79.7528 484.68 80.9433 484.671 80.9428C484.502 80.9673 483.237 75.7924 483.369 75.6435C483.388 75.6222 483.565 75.7762 483.766 75.987C486.037 78.2987 486.287 78.245 488.03 75.1421L488.848 73.6824L489.11 74.2415C489.872 75.873 491.106 75.2365 490.498 74.036C490.29 73.6355 489.941 73.0385 489.381 72.1076C489.13 71.6826 488.715 71.839 488.03 72.6155Z" fill="#3F5EF4"/>
</g>
<rect x="383.035" y="109.998" width="110.543" height="128.371" rx="9" transform="rotate(2 383.035 109.998)" fill="#FFFCEB"/>
<path d="M482 148.538L407.538 130L401.69 153.491L430.144 160.575L434.982 176.815L447.284 164.842L476.152 172.029L482 148.538Z" stroke="#FFDC00" stroke-width="5"/>
<path d="M463.462 223L389 204.462L394.848 180.971L423.302 188.054L435.19 175.978L440.442 192.321L469.31 199.508L463.462 223Z" stroke="#FFDC00" stroke-width="5"/>
<path d="M115.397 299.52C114.948 298.016 113.776 297.098 112.057 297.098C109.772 297.098 108.131 298.875 108.131 302.059C108.131 305.281 109.752 307.059 112.116 307.059C114.245 307.059 115.612 305.77 115.651 303.758H112.37V301.746H118.112V303.445C118.112 307.078 115.612 309.344 112.116 309.344C108.209 309.344 105.573 306.57 105.573 302.078C105.573 297.547 108.327 294.812 112.038 294.812C115.163 294.812 117.565 296.746 117.995 299.52H115.397ZM120.763 309.148V298.543H123.263V309.148H120.763ZM122.033 297.039C121.252 297.039 120.588 296.434 120.588 295.672C120.588 294.93 121.252 294.324 122.033 294.324C122.834 294.324 123.478 294.93 123.478 295.672C123.478 296.434 122.834 297.039 122.033 297.039ZM130.075 313.348C127.263 313.348 125.485 312.098 125.309 310.105H127.79C127.966 311.023 128.845 311.473 130.114 311.473C131.598 311.473 132.575 310.828 132.575 309.266V307.234H132.458C132.067 308.016 131.227 308.992 129.391 308.992C126.95 308.992 125.016 307.215 125.016 303.758C125.016 300.262 126.95 298.406 129.411 298.406C131.286 298.406 132.067 299.52 132.458 300.281H132.575V298.543H135.036V309.324C135.036 312.039 132.946 313.348 130.075 313.348ZM130.075 307.039C131.677 307.039 132.595 305.828 132.595 303.797C132.595 301.785 131.696 300.438 130.075 300.438C128.415 300.438 127.555 301.863 127.555 303.797C127.555 305.75 128.434 307.039 130.075 307.039ZM141.848 313.348C139.035 313.348 137.258 312.098 137.082 310.105H139.563C139.738 311.023 140.617 311.473 141.887 311.473C143.371 311.473 144.348 310.828 144.348 309.266V307.234H144.23C143.84 308.016 143 308.992 141.164 308.992C138.723 308.992 136.789 307.215 136.789 303.758C136.789 300.262 138.723 298.406 141.184 298.406C143.059 298.406 143.84 299.52 144.23 300.281H144.348V298.543H146.809V309.324C146.809 312.039 144.719 313.348 141.848 313.348ZM141.848 307.039C143.449 307.039 144.367 305.828 144.367 303.797C144.367 301.785 143.469 300.438 141.848 300.438C140.188 300.438 139.328 301.863 139.328 303.797C139.328 305.75 140.207 307.039 141.848 307.039ZM151.491 295.008V309.148H148.991V295.008H151.491ZM158.381 309.363C155.178 309.363 153.225 307.234 153.225 303.914C153.225 300.633 155.217 298.406 158.245 298.406C160.842 298.406 163.088 300.027 163.088 303.758V304.539H155.686C155.715 306.346 156.78 307.41 158.401 307.41C159.495 307.41 160.237 306.941 160.549 306.316H162.991C162.541 308.152 160.842 309.363 158.381 309.363ZM155.705 302.84H160.705C160.686 301.395 159.729 300.34 158.284 300.34C156.78 300.34 155.784 301.482 155.705 302.84ZM180.31 302.352V304.09H164.216V302.352H180.31ZM178.494 308.777V310.535H166.209V305.398H168.377V308.777H178.494ZM172.244 293.797C176.091 293.797 178.591 295.145 178.611 297.371C178.591 299.617 176.091 300.984 172.244 300.984C168.396 300.984 165.877 299.617 165.877 297.371C165.877 295.145 168.396 293.797 172.244 293.797ZM172.244 295.535C169.685 295.535 168.123 296.199 168.142 297.371C168.123 298.562 169.685 299.227 172.244 299.207C174.822 299.227 176.365 298.562 176.365 297.371C176.365 296.199 174.822 295.535 172.244 295.535ZM194.773 294.832V296.609H188.895V304.832C191.648 304.812 193.592 304.695 195.789 304.285L196.023 306.043C193.543 306.531 191.414 306.629 188.113 306.629H186.707V294.832H194.773ZM200.672 293.23V310.906H198.504V301.219H193.836V299.441H198.504V293.23H200.672ZM223.924 300.047V301.824H221.307V310.848H219.139V293.23H221.307V300.047H223.924ZM210.252 294.949V304.695C212.606 304.656 215.116 304.451 217.772 303.895L218.006 305.73C215.038 306.316 212.205 306.492 209.588 306.492H208.104V294.949H210.252ZM240.658 302.352V304.09H224.564V302.352H240.658ZM238.841 308.777V310.535H226.556V305.398H228.724V308.777H238.841ZM232.591 293.797C236.439 293.797 238.939 295.145 238.959 297.371C238.939 299.617 236.439 300.984 232.591 300.984C228.744 300.984 226.224 299.617 226.224 297.371C226.224 295.145 228.744 293.797 232.591 293.797ZM232.591 295.535C230.033 295.535 228.47 296.199 228.49 297.371C228.47 298.562 230.033 299.227 232.591 299.207C235.17 299.227 236.713 298.562 236.713 297.371C236.713 296.199 235.17 295.535 232.591 295.535ZM251.703 297.859C251.703 300.711 252.699 303.68 255.082 305.184L253.891 306.844C252.299 305.887 251.264 304.236 250.688 302.293C250.043 304.432 248.91 306.238 247.25 307.254L245.902 305.633C248.461 304.07 249.613 300.965 249.613 297.957V294.793H251.703V297.859ZM261.43 293.23V310.887H259.34V293.23H261.43ZM257.758 293.543V310.027H255.707V301.102H253.188V299.305H255.707V293.543H257.758ZM269.53 296.043C269.53 298.27 270.976 300.359 273.691 301.219L272.519 302.918C270.614 302.273 269.247 300.984 268.495 299.344C267.714 301.219 266.288 302.693 264.257 303.406L263.085 301.707C265.937 300.711 267.343 298.367 267.363 295.848V294.168H269.53V296.043ZM277.206 293.23V297.527H279.667V299.324H277.206V303.797H275.038V293.23H277.206ZM271.464 304.188C275.116 304.168 277.363 305.418 277.382 307.508C277.363 309.637 275.116 310.867 271.464 310.867C267.773 310.867 265.488 309.637 265.488 307.508C265.488 305.418 267.773 304.168 271.464 304.188ZM271.464 305.887C269.042 305.887 267.655 306.473 267.655 307.508C267.655 308.602 269.042 309.148 271.464 309.148C273.886 309.148 275.234 308.602 275.234 307.508C275.234 306.473 273.886 305.887 271.464 305.887ZM288.393 293.504C292.416 293.504 294.741 294.578 294.76 296.531C294.741 298.504 292.416 299.559 288.393 299.578C284.37 299.559 282.026 298.504 282.026 296.531C282.026 294.578 284.37 293.504 288.393 293.504ZM288.393 295.105C285.698 295.105 284.291 295.613 284.311 296.531C284.291 297.508 285.698 297.957 288.393 297.957C291.127 297.957 292.514 297.508 292.514 296.531C292.514 295.613 291.127 295.105 288.393 295.105ZM296.459 300.516V302.254H280.366V300.516H296.459ZM294.448 303.445V307.762H284.409V309.07H294.936V310.73H282.28V306.219H292.319V305.047H282.26V303.445H294.448ZM310.962 294.754V303.094H302.602V294.754H310.962ZM304.731 296.492V301.375H308.833V296.492H304.731ZM315.923 293.23V298.406H318.384V300.223H315.923V306.121H313.755V293.23H315.923ZM316.626 308.777V310.535H304.614V304.871H306.782V308.777H316.626ZM335.195 300.301V302.02H319.082V300.301H335.195ZM333.281 297.449V299.168H321.133V293.68H333.125V295.418H323.301V297.449H333.281ZM333.164 303.23V307.664H323.125V309.012H333.652V310.711H320.996V306.102H331.035V304.871H320.977V303.23H333.164ZM340.991 294.52C343.384 294.52 345.152 296.512 345.464 299.734H348.823V293.23H350.972V310.906H348.823V301.492H345.484C345.249 304.9 343.452 307 340.991 307C338.335 307 336.46 304.598 336.46 300.75C336.46 296.941 338.335 294.52 340.991 294.52ZM340.991 296.473C339.527 296.473 338.53 298.055 338.55 300.75C338.53 303.465 339.527 305.047 340.991 305.047C342.456 305.047 343.433 303.465 343.452 300.75C343.433 298.055 342.456 296.473 340.991 296.473ZM374.244 300.047V301.824H371.627V310.848H369.459V293.23H371.627V300.047H374.244ZM360.572 294.949V304.695C362.925 304.656 365.435 304.451 368.091 303.895L368.326 305.73C365.357 306.316 362.525 306.492 359.908 306.492H358.423V294.949H360.572ZM388.809 293.23V296.902H391.27V298.719H388.809V302.098H386.641V293.23H388.809ZM384.005 293.953C384.005 298.582 380.899 301.453 375.645 302.586L374.825 300.789C379.073 299.93 381.28 297.996 381.583 295.711H375.684V293.953H384.005ZM388.809 302.82V307.527H379.434V308.973H389.356V310.711H377.286V305.887H386.641V304.559H377.266V302.82H388.809ZM411.3 293.23V310.887H409.132V301.902H405.402V300.125H409.132V293.23H411.3ZM405.48 295.105C405.46 300.32 403.605 304.695 397.53 307.703L396.398 306.004C400.968 303.768 402.931 300.779 403.292 296.824H397.218V295.105H405.48ZM428.834 293.23V310.887H426.745V293.23H428.834ZM425.26 293.543V310.027H423.209V304.461H420.905C420.25 306.199 419.079 307.186 417.584 307.176C415.28 307.195 413.776 304.754 413.776 300.867C413.776 296.98 415.28 294.578 417.584 294.578C419.079 294.578 420.241 295.555 420.905 297.273H423.209V293.543H425.26ZM417.584 296.629C416.432 296.609 415.748 298.113 415.768 300.867C415.748 303.621 416.432 305.125 417.584 305.105C418.756 305.125 419.479 303.621 419.479 300.867C419.479 298.113 418.756 296.609 417.584 296.629ZM421.334 299.031C421.422 299.598 421.471 300.213 421.471 300.867C421.471 301.512 421.422 302.117 421.354 302.684H423.209V299.031H421.334ZM446.818 306.961V308.738H430.685V306.961H434.416V302.488C433.009 301.688 432.16 300.428 432.17 298.855C432.15 296.043 434.923 294.188 438.712 294.188C442.521 294.188 445.295 296.043 445.295 298.855C445.295 300.398 444.474 301.639 443.107 302.449V306.961H446.818ZM438.712 295.906C436.076 295.906 434.279 297.02 434.298 298.855C434.279 300.672 436.076 301.805 438.712 301.805C441.349 301.805 443.166 300.672 443.166 298.855C443.166 297.02 441.349 295.906 438.712 295.906ZM436.564 306.961H440.9V303.27C440.226 303.426 439.494 303.504 438.712 303.504C437.951 303.504 437.228 303.426 436.564 303.289V306.961Z" fill="#343434"/>
<defs>
<filter id="filter0_ddd_1310_14227" x="26.1283" y="46.6283" width="171.696" height="78.9543" filterUnits="userSpaceOnUse" color-interpolation-filters="sRGB">
<feFlood flood-opacity="0" result="BackgroundImageFix"/>
<feColorMatrix in="SourceAlpha" type="matrix" values="0 0 0 0 0 0 0 0 0 0 0 0 0 0 0 0 0 0 127 0" result="hardAlpha"/>
<feMorphology radius="3" operator="erode" in="SourceAlpha" result="effect1_dropShadow_1310_14227"/>
<feOffset dx="3" dy="12"/>
<feGaussianBlur stdDeviation="8.6585"/>
<feComposite in2="hardAlpha" operator="out"/>
<feColorMatrix type="matrix" values="0 0 0 0 0.219608 0 0 0 0 0.227451 0 0 0 0 0.239216 0 0 0 0.03 0"/>
<feBlend mode="normal" in2="BackgroundImageFix" result="effect1_dropShadow_1310_14227"/>
<feColorMatrix in="SourceAlpha" type="matrix" values="0 0 0 0 0 0 0 0 0 0 0 0 0 0 0 0 0 0 127 0" result="hardAlpha"/>
<feMorphology radius="2" operator="erode" in="SourceAlpha" result="effect2_dropShadow_1310_14227"/>
<feOffset dx="0.68656" dy="2.74624"/>
<feGaussianBlur stdDeviation="1.98153"/>
<feComposite in2="hardAlpha" operator="out"/>
<feColorMatrix type="matrix" values="0 0 0 0 0.219608 0 0 0 0 0.227451 0 0 0 0 0.239216 0 0 0 0.043 0"/>
<feBlend mode="normal" in2="effect1_dropShadow_1310_14227" result="effect2_dropShadow_1310_14227"/>
<feColorMatrix in="SourceAlpha" type="matrix" values="0 0 0 0 0 0 0 0 0 0 0 0 0 0 0 0 0 0 127 0" result="hardAlpha"/>
<feMorphology radius="1" operator="erode" in="SourceAlpha" result="effect3_dropShadow_1310_14227"/>
<feOffset dx="0.180656" dy="0.722625"/>
<feGaussianBlur stdDeviation="0.521405"/>
<feComposite in2="hardAlpha" operator="out"/>
<feColorMatrix type="matrix" values="0 0 0 0 0.219608 0 0 0 0 0.227451 0 0 0 0 0.239216 0 0 0 0.05 0"/>
<feBlend mode="normal" in2="effect2_dropShadow_1310_14227" result="effect3_dropShadow_1310_14227"/>
<feBlend mode="normal" in="SourceGraphic" in2="effect3_dropShadow_1310_14227" result="shape"/>
</filter>
<filter id="filter1_ddd_1310_14227" x="180.19" y="46.6283" width="183.639" height="71.634" filterUnits="userSpaceOnUse" color-interpolation-filters="sRGB">
<feFlood flood-opacity="0" result="BackgroundImageFix"/>
<feColorMatrix in="SourceAlpha" type="matrix" values="0 0 0 0 0 0 0 0 0 0 0 0 0 0 0 0 0 0 127 0" result="hardAlpha"/>
<feMorphology radius="3" operator="erode" in="SourceAlpha" result="effect1_dropShadow_1310_14227"/>
<feOffset dx="3" dy="12"/>
<feGaussianBlur stdDeviation="8.6585"/>
<feComposite in2="hardAlpha" operator="out"/>
<feColorMatrix type="matrix" values="0 0 0 0 0.219608 0 0 0 0 0.227451 0 0 0 0 0.239216 0 0 0 0.03 0"/>
<feBlend mode="normal" in2="BackgroundImageFix" result="effect1_dropShadow_1310_14227"/>
<feColorMatrix in="SourceAlpha" type="matrix" values="0 0 0 0 0 0 0 0 0 0 0 0 0 0 0 0 0 0 127 0" result="hardAlpha"/>
<feMorphology radius="2" operator="erode" in="SourceAlpha" result="effect2_dropShadow_1310_14227"/>
<feOffset dx="0.68656" dy="2.74624"/>
<feGaussianBlur stdDeviation="1.98153"/>
<feComposite in2="hardAlpha" operator="out"/>
<feColorMatrix type="matrix" values="0 0 0 0 0.219608 0 0 0 0 0.227451 0 0 0 0 0.239216 0 0 0 0.043 0"/>
<feBlend mode="normal" in2="effect1_dropShadow_1310_14227" result="effect2_dropShadow_1310_14227"/>
<feColorMatrix in="SourceAlpha" type="matrix" values="0 0 0 0 0 0 0 0 0 0 0 0 0 0 0 0 0 0 127 0" result="hardAlpha"/>
<feMorphology radius="1" operator="erode" in="SourceAlpha" result="effect3_dropShadow_1310_14227"/>
<feOffset dx="0.180656" dy="0.722625"/>
<feGaussianBlur stdDeviation="0.521405"/>
<feComposite in2="hardAlpha" operator="out"/>
<feColorMatrix type="matrix" values="0 0 0 0 0.219608 0 0 0 0 0.227451 0 0 0 0 0.239216 0 0 0 0.05 0"/>
<feBlend mode="normal" in2="effect2_dropShadow_1310_14227" result="effect3_dropShadow_1310_14227"/>
<feBlend mode="normal" in="SourceGraphic" in2="effect3_dropShadow_1310_14227" result="shape"/>
</filter>
<filter id="filter2_ddd_1310_14227" x="346.195" y="46.6283" width="185.676" height="79.6867" filterUnits="userSpaceOnUse" color-interpolation-filters="sRGB">
<feFlood flood-opacity="0" result="BackgroundImageFix"/>
<feColorMatrix in="SourceAlpha" type="matrix" values="0 0 0 0 0 0 0 0 0 0 0 0 0 0 0 0 0 0 127 0" result="hardAlpha"/>
<feMorphology radius="3" operator="erode" in="SourceAlpha" result="effect1_dropShadow_1310_14227"/>
<feOffset dx="3" dy="12"/>
<feGaussianBlur stdDeviation="8.6585"/>
<feComposite in2="hardAlpha" operator="out"/>
<feColorMatrix type="matrix" values="0 0 0 0 0.219608 0 0 0 0 0.227451 0 0 0 0 0.239216 0 0 0 0.03 0"/>
<feBlend mode="normal" in2="BackgroundImageFix" result="effect1_dropShadow_1310_14227"/>
<feColorMatrix in="SourceAlpha" type="matrix" values="0 0 0 0 0 0 0 0 0 0 0 0 0 0 0 0 0 0 127 0" result="hardAlpha"/>
<feMorphology radius="2" operator="erode" in="SourceAlpha" result="effect2_dropShadow_1310_14227"/>
<feOffset dx="0.68656" dy="2.74624"/>
<feGaussianBlur stdDeviation="1.98153"/>
<feComposite in2="hardAlpha" operator="out"/>
<feColorMatrix type="matrix" values="0 0 0 0 0.219608 0 0 0 0 0.227451 0 0 0 0 0.239216 0 0 0 0.043 0"/>
<feBlend mode="normal" in2="effect1_dropShadow_1310_14227" result="effect2_dropShadow_1310_14227"/>
<feColorMatrix in="SourceAlpha" type="matrix" values="0 0 0 0 0 0 0 0 0 0 0 0 0 0 0 0 0 0 127 0" result="hardAlpha"/>
<feMorphology radius="1" operator="erode" in="SourceAlpha" result="effect3_dropShadow_1310_14227"/>
<feOffset dx="0.180656" dy="0.722625"/>
<feGaussianBlur stdDeviation="0.521405"/>
<feComposite in2="hardAlpha" operator="out"/>
<feColorMatrix type="matrix" values="0 0 0 0 0.219608 0 0 0 0 0.227451 0 0 0 0 0.239216 0 0 0 0.05 0"/>
<feBlend mode="normal" in2="effect2_dropShadow_1310_14227" result="effect3_dropShadow_1310_14227"/>
<feBlend mode="normal" in="SourceGraphic" in2="effect3_dropShadow_1310_14227" result="shape"/>
</filter>
<clipPath id="clip0_1310_14227">
<rect x="51.498" y="113.123" width="110.543" height="128.371" rx="9" transform="rotate(-2 51.498 113.123)" fill="white"/>
</clipPath>
<clipPath id="clip1_1310_14227">
<rect x="213.509" y="101.945" width="111" height="129" rx="9" fill="white"/>
</clipPath>
</defs>
</svg>
