<svg width="582" height="359" viewBox="0 0 582 359" fill="none" xmlns="http://www.w3.org/2000/svg">
<g clip-path="url(#clip0_1310_14252)">
<rect y="0.945312" width="582" height="357.204" rx="64" fill="#FFFCEB"/>
<path d="M130.397 86.418C129.948 84.9141 128.776 83.9961 127.057 83.9961C124.772 83.9961 123.131 85.7734 123.131 88.957C123.131 92.1797 124.752 93.957 127.116 93.957C129.245 93.957 130.612 92.668 130.651 90.6562H127.37V88.6445H133.112V90.3438C133.112 93.9766 130.612 96.2422 127.116 96.2422C123.209 96.2422 120.573 93.4688 120.573 88.9766C120.573 84.4453 123.327 81.7109 127.038 81.7109C130.163 81.7109 132.565 83.6445 132.995 86.418H130.397ZM135.763 96.0469V85.4414H138.263V96.0469H135.763ZM137.033 83.9375C136.252 83.9375 135.588 83.332 135.588 82.5703C135.588 81.8281 136.252 81.2227 137.033 81.2227C137.834 81.2227 138.478 81.8281 138.478 82.5703C138.478 83.332 137.834 83.9375 137.033 83.9375ZM145.075 100.246C142.263 100.246 140.485 98.9961 140.309 97.0039H142.79C142.966 97.9219 143.845 98.3711 145.114 98.3711C146.598 98.3711 147.575 97.7266 147.575 96.1641V94.1328H147.458C147.067 94.9141 146.227 95.8906 144.391 95.8906C141.95 95.8906 140.016 94.1133 140.016 90.6562C140.016 87.1602 141.95 85.3047 144.411 85.3047C146.286 85.3047 147.067 86.418 147.458 87.1797H147.575V85.4414H150.036V96.2227C150.036 98.9375 147.946 100.246 145.075 100.246ZM145.075 93.9375C146.677 93.9375 147.595 92.7266 147.595 90.6953C147.595 88.6836 146.696 87.3359 145.075 87.3359C143.415 87.3359 142.555 88.7617 142.555 90.6953C142.555 92.6484 143.434 93.9375 145.075 93.9375ZM156.848 100.246C154.035 100.246 152.258 98.9961 152.082 97.0039H154.563C154.738 97.9219 155.617 98.3711 156.887 98.3711C158.371 98.3711 159.348 97.7266 159.348 96.1641V94.1328H159.23C158.84 94.9141 158 95.8906 156.164 95.8906C153.723 95.8906 151.789 94.1133 151.789 90.6562C151.789 87.1602 153.723 85.3047 156.184 85.3047C158.059 85.3047 158.84 86.418 159.23 87.1797H159.348V85.4414H161.809V96.2227C161.809 98.9375 159.719 100.246 156.848 100.246ZM156.848 93.9375C158.449 93.9375 159.367 92.7266 159.367 90.6953C159.367 88.6836 158.469 87.3359 156.848 87.3359C155.188 87.3359 154.328 88.7617 154.328 90.6953C154.328 92.6484 155.207 93.9375 156.848 93.9375ZM166.491 81.9062V96.0469H163.991V81.9062H166.491ZM173.381 96.2617C170.178 96.2617 168.225 94.1328 168.225 90.8125C168.225 87.5312 170.217 85.3047 173.245 85.3047C175.842 85.3047 178.088 86.9258 178.088 90.6562V91.4375H170.686C170.715 93.2441 171.78 94.3086 173.401 94.3086C174.495 94.3086 175.237 93.8398 175.549 93.2148H177.991C177.541 95.0508 175.842 96.2617 173.381 96.2617ZM170.705 89.7383H175.705C175.686 88.293 174.729 87.2383 173.284 87.2383C171.78 87.2383 170.784 88.3809 170.705 89.7383ZM195.31 89.25V90.9883H179.216V89.25H195.31ZM193.494 95.6758V97.4336H181.209V92.2969H183.377V95.6758H193.494ZM187.244 80.6953C191.091 80.6953 193.591 82.043 193.611 84.2695C193.591 86.5156 191.091 87.8828 187.244 87.8828C183.396 87.8828 180.877 86.5156 180.877 84.2695C180.877 82.043 183.396 80.6953 187.244 80.6953ZM187.244 82.4336C184.685 82.4336 183.123 83.0977 183.142 84.2695C183.123 85.4609 184.685 86.125 187.244 86.1055C189.822 86.125 191.365 85.4609 191.365 84.2695C191.365 83.0977 189.822 82.4336 187.244 82.4336ZM209.773 81.7305V83.5078H203.895V91.7305C206.648 91.7109 208.592 91.5938 210.789 91.1836L211.023 92.9414C208.543 93.4297 206.414 93.5273 203.113 93.5273H201.707V81.7305H209.773ZM215.672 80.1289V97.8047H213.504V88.1172H208.836V86.3398H213.504V80.1289H215.672ZM238.924 86.9453V88.7227H236.307V97.7461H234.139V80.1289H236.307V86.9453H238.924ZM225.252 81.8477V91.5938C227.606 91.5547 230.116 91.3496 232.772 90.793L233.006 92.6289C230.038 93.2148 227.205 93.3906 224.588 93.3906H223.104V81.8477H225.252ZM255.658 89.25V90.9883H239.564V89.25H255.658ZM253.841 95.6758V97.4336H241.556V92.2969H243.724V95.6758H253.841ZM247.591 80.6953C251.439 80.6953 253.939 82.043 253.959 84.2695C253.939 86.5156 251.439 87.8828 247.591 87.8828C243.744 87.8828 241.224 86.5156 241.224 84.2695C241.224 82.043 243.744 80.6953 247.591 80.6953ZM247.591 82.4336C245.033 82.4336 243.47 83.0977 243.49 84.2695C243.47 85.4609 245.033 86.125 247.591 86.1055C250.17 86.125 251.713 85.4609 251.713 84.2695C251.713 83.0977 250.17 82.4336 247.591 82.4336ZM266.703 84.7578C266.703 87.6094 267.699 90.5781 270.082 92.082L268.891 93.7422C267.299 92.7852 266.264 91.1348 265.688 89.1914C265.043 91.3301 263.91 93.1367 262.25 94.1523L260.902 92.5312C263.461 90.9688 264.613 87.8633 264.613 84.8555V81.6914H266.703V84.7578ZM276.43 80.1289V97.7852H274.34V80.1289H276.43ZM272.758 80.4414V96.9258H270.707V88H268.188V86.2031H270.707V80.4414H272.758ZM284.53 82.9414C284.53 85.168 285.976 87.2578 288.691 88.1172L287.519 89.8164C285.614 89.1719 284.247 87.8828 283.495 86.2422C282.714 88.1172 281.288 89.5918 279.257 90.3047L278.085 88.6055C280.937 87.6094 282.343 85.2656 282.363 82.7461V81.0664H284.53V82.9414ZM292.206 80.1289V84.4258H294.667V86.2227H292.206V90.6953H290.038V80.1289H292.206ZM286.464 91.0859C290.116 91.0664 292.363 92.3164 292.382 94.4062C292.363 96.5352 290.116 97.7656 286.464 97.7656C282.773 97.7656 280.488 96.5352 280.488 94.4062C280.488 92.3164 282.773 91.0664 286.464 91.0859ZM286.464 92.7852C284.042 92.7852 282.655 93.3711 282.655 94.4062C282.655 95.5 284.042 96.0469 286.464 96.0469C288.886 96.0469 290.234 95.5 290.234 94.4062C290.234 93.3711 288.886 92.7852 286.464 92.7852ZM303.393 80.4023C307.416 80.4023 309.741 81.4766 309.76 83.4297C309.741 85.4023 307.416 86.457 303.393 86.4766C299.37 86.457 297.026 85.4023 297.026 83.4297C297.026 81.4766 299.37 80.4023 303.393 80.4023ZM303.393 82.0039C300.698 82.0039 299.291 82.5117 299.311 83.4297C299.291 84.4062 300.698 84.8555 303.393 84.8555C306.127 84.8555 307.514 84.4062 307.514 83.4297C307.514 82.5117 306.127 82.0039 303.393 82.0039ZM311.459 87.4141V89.1523H295.366V87.4141H311.459ZM309.448 90.3438V94.6602H299.409V95.9688H309.936V97.6289H297.28V93.1172H307.319V91.9453H297.26V90.3438H309.448ZM325.962 81.6523V89.9922H317.602V81.6523H325.962ZM319.731 83.3906V88.2734H323.833V83.3906H319.731ZM330.923 80.1289V85.3047H333.384V87.1211H330.923V93.0195H328.755V80.1289H330.923ZM331.626 95.6758V97.4336H319.614V91.7695H321.782V95.6758H331.626ZM350.195 87.1992V88.918H334.082V87.1992H350.195ZM348.281 84.3477V86.0664H336.133V80.5781H348.125V82.3164H338.301V84.3477H348.281ZM348.164 90.1289V94.5625H338.125V95.9102H348.652V97.6094H335.996V93H346.035V91.7695H335.977V90.1289H348.164ZM355.991 81.418C358.384 81.418 360.152 83.4102 360.464 86.6328H363.823V80.1289H365.972V97.8047H363.823V88.3906H360.484C360.249 91.7988 358.452 93.8984 355.991 93.8984C353.335 93.8984 351.46 91.4961 351.46 87.6484C351.46 83.8398 353.335 81.418 355.991 81.418ZM355.991 83.3711C354.527 83.3711 353.53 84.9531 353.55 87.6484C353.53 90.3633 354.527 91.9453 355.991 91.9453C357.456 91.9453 358.433 90.3633 358.452 87.6484C358.433 84.9531 357.456 83.3711 355.991 83.3711ZM389.244 86.9453V88.7227H386.627V97.7461H384.459V80.1289H386.627V86.9453H389.244ZM375.572 81.8477V91.5938C377.925 91.5547 380.435 91.3496 383.091 90.793L383.326 92.6289C380.357 93.2148 377.525 93.3906 374.908 93.3906H373.423V81.8477H375.572ZM403.809 80.1289V83.8008H406.27V85.6172H403.809V88.9961H401.641V80.1289H403.809ZM399.005 80.8516C399.005 85.4805 395.899 88.3516 390.645 89.4844L389.825 87.6875C394.073 86.8281 396.28 84.8945 396.583 82.6094H390.684V80.8516H399.005ZM403.809 89.7188V94.4258H394.434V95.8711H404.356V97.6094H392.286V92.7852H401.641V91.457H392.266V89.7188H403.809ZM426.3 80.1289V97.7852H424.132V88.8008H420.402V87.0234H424.132V80.1289H426.3ZM420.48 82.0039C420.46 87.2188 418.605 91.5938 412.53 94.6016L411.398 92.9023C415.968 90.666 417.931 87.6777 418.292 83.7227H412.218V82.0039H420.48ZM443.834 80.1289V97.7852H441.745V80.1289H443.834ZM440.26 80.4414V96.9258H438.209V91.3594H435.905C435.25 93.0977 434.079 94.084 432.584 94.0742C430.28 94.0938 428.776 91.6523 428.776 87.7656C428.776 83.8789 430.28 81.4766 432.584 81.4766C434.079 81.4766 435.241 82.4531 435.905 84.1719H438.209V80.4414H440.26ZM432.584 83.5273C431.432 83.5078 430.748 85.0117 430.768 87.7656C430.748 90.5195 431.432 92.0234 432.584 92.0039C433.756 92.0234 434.479 90.5195 434.479 87.7656C434.479 85.0117 433.756 83.5078 432.584 83.5273ZM436.334 85.9297C436.422 86.4961 436.471 87.1113 436.471 87.7656C436.471 88.4102 436.422 89.0156 436.354 89.582H438.209V85.9297H436.334ZM461.818 93.8594V95.6367H445.685V93.8594H449.416V89.3867C448.009 88.5859 447.16 87.3262 447.17 85.7539C447.15 82.9414 449.923 81.0859 453.712 81.0859C457.521 81.0859 460.295 82.9414 460.295 85.7539C460.295 87.2969 459.474 88.5371 458.107 89.3477V93.8594H461.818ZM453.712 82.8047C451.076 82.8047 449.279 83.918 449.298 85.7539C449.279 87.5703 451.076 88.7031 453.712 88.7031C456.349 88.7031 458.166 87.5703 458.166 85.7539C458.166 83.918 456.349 82.8047 453.712 82.8047ZM451.564 93.8594H455.9V90.168C455.226 90.3242 454.494 90.4023 453.712 90.4023C452.951 90.4023 452.228 90.3242 451.564 90.1875V93.8594Z" fill="#343434"/>
<g filter="url(#filter0_ddd_1310_14252)">
<rect x="45.498" y="149.047" width="141.005" height="43" rx="21.5" fill="white"/>
<path d="M73.2046 163.312V167.375H75.1734V168.828H73.2046V173.5H71.439V163.312H73.2046ZM69.3609 164.391C69.3609 168.141 66.9234 170.812 62.7359 172.031L62.0171 170.656C65.2437 169.727 67.1655 167.969 67.4702 165.812H62.6109V164.391H69.3609ZM73.7359 175.75V177.156H64.1265V172.453H65.8921V175.75H73.7359ZM88.6384 174.281V175.688H75.7321V174.281H81.2634V171.016H82.9821V174.281H88.6384ZM83.029 165.203C83.029 167.344 85.1696 169.453 88.1384 169.922L87.3884 171.359C84.9977 170.906 83.0446 169.539 82.1071 167.688C81.1696 169.531 79.2321 170.922 76.8571 171.359L76.1071 169.922C79.0602 169.453 81.1696 167.328 81.1852 165.203V164.172H83.029V165.203ZM100.572 163.312V169.141H102.556V170.594H100.572V177.438H98.8221V163.312H100.572ZM89.2284 173.516C90.2987 173.516 91.5409 173.516 92.8377 173.484V172.156C91.2987 171.898 90.2909 170.93 90.3065 169.609C90.2909 168.016 91.6971 166.953 93.7284 166.953C95.7284 166.953 97.1502 168.016 97.1659 169.609C97.1502 170.938 96.1268 171.906 94.5877 172.156V173.422C95.7752 173.359 96.9627 173.266 98.0721 173.109L98.1815 174.375C95.1502 174.922 91.8846 174.953 89.4784 174.953L89.2284 173.516ZM97.9159 164.938V166.312H89.494V164.938H92.8377V163.375H94.5877V164.938H97.9159ZM93.7284 168.281C92.6502 168.297 91.9471 168.781 91.9471 169.609C91.9471 170.422 92.6502 170.906 93.7284 170.891C94.7909 170.906 95.494 170.422 95.494 169.609C95.494 168.781 94.7909 168.297 93.7284 168.281ZM111.287 167.75V169.141H108.662V170.734C109.842 170.688 111.014 170.609 112.115 170.5L112.24 171.75C109.24 172.172 105.99 172.25 103.365 172.25L103.131 170.859C104.295 170.852 105.584 170.844 106.912 170.797V169.141H104.35V164.188H111.178V165.594H106.1V167.75H111.287ZM114.85 163.312V173.922H113.1V163.312H114.85ZM115.256 175.75V177.156H105.381V173.141H107.131V175.75H115.256ZM125.514 165.391C125.498 166.906 126.655 168.484 128.811 169.109L127.998 170.484C126.397 170.016 125.264 169.023 124.639 167.781C123.998 169.156 122.811 170.281 121.17 170.797L120.311 169.438C122.514 168.719 123.764 167 123.764 165.375V165.328H120.795V163.922H128.436V165.328H125.514V165.391ZM132.201 163.312V170.547H130.467V167.688H128.045V166.297H130.467V163.312H132.201ZM132.201 171.141V174.812H124.639V175.922H132.655V177.281H122.905V173.516H130.467V172.516H122.889V171.141H132.201ZM139.01 167.797C139.01 169.891 140.198 172.172 142.37 173.203L141.401 174.516C139.877 173.805 138.768 172.406 138.182 170.75C137.557 172.531 136.393 174.039 134.776 174.766L133.823 173.422C136.041 172.422 137.291 170.016 137.291 167.797V167.062H134.276V165.672H137.291V163.609H139.026V165.672H141.995V167.062H139.01V167.797ZM145.104 163.312V168.906H147.276V170.359H145.104V177.438H143.37V163.312H145.104Z" fill="#FFDC00"/>
<path fill-rule="evenodd" clip-rule="evenodd" d="M160.83 165.971C160.504 166.382 160.116 166.949 159.966 167.216C158.678 169.639 158.661 169.661 158.07 169.094C156.704 167.805 154.455 166.927 154.896 169.172C155.17 170.528 155.981 173.007 156.192 173.829C156.739 175.997 157.03 176.352 158 176.063C160.407 175.33 163.845 175.307 166.305 176.008C166.913 176.186 166.948 176.097 167.01 174.552C167.134 171.428 168.562 168.383 168.562 167.405C168.562 166.305 166.913 167.127 164.674 169.339L164.445 169.561L164.118 169.283C163.448 168.716 163.113 169.161 163.492 170.106C163.801 170.873 164.057 171.128 164.735 170.717C165.123 170.484 165.661 170.039 166.419 169.361C166.719 169.094 166.966 168.905 166.966 168.939C166.966 169.094 166.428 172.006 166.428 172.018C166.305 172.493 166.428 172.313 166.243 172.94C166.243 172.94 166.199 173.562 166.076 173.918C165.943 174.274 165.723 174.363 165.361 174.207C162.531 173.029 157.92 174.463 157.911 174.463C157.744 174.496 156.21 169.394 156.333 169.239C156.351 169.217 156.536 169.361 156.748 169.561C159.137 171.751 159.384 171.684 160.962 168.494L161.703 166.994L161.993 167.538C162.84 169.128 164.039 168.427 163.369 167.26C163.14 166.871 162.761 166.293 162.152 165.393C161.879 164.982 161.473 165.16 160.83 165.971Z" fill="#FFDC00"/>
</g>
<rect x="197.503" y="152.547" width="339" height="36" rx="12" fill="white"/>
<path d="M217.549 170.79V171.679H206.469V170.79H211.477V169.33H207.938V164.786H209.011V166.197H215.025V164.786H216.099V169.33H212.541V170.79H217.549ZM207.697 173.749V172.878H216.176V176.659H215.093V173.749H207.697ZM209.011 168.46H215.025V167.019H209.011V168.46ZM222.677 166.633C222.668 168.208 223.876 169.63 225.675 170.2L225.162 171.041C223.755 170.582 222.677 169.625 222.15 168.407C221.628 169.755 220.502 170.795 219.042 171.293L218.491 170.442C220.318 169.833 221.595 168.354 221.604 166.652V166.207H218.839V165.318H225.394V166.207H222.677V166.633ZM220.376 176.494V171.747H221.44V173.236H226.999V171.747H228.072V176.494H220.376ZM221.44 175.615H226.999V174.087H221.44V175.615ZM226.999 171.157V164.505H228.072V167.319H229.9V168.218H228.072V171.157H226.999ZM240.172 164.515V168.518H241.999V169.427H240.172V173.623H239.099V164.515H240.172ZM230.697 166.884V166.004H233.791V164.515H234.854V166.004H237.939V166.884H230.697ZM231.393 169.823C231.383 168.441 232.563 167.551 234.323 167.551C236.053 167.551 237.233 168.441 237.242 169.823C237.233 171.186 236.053 172.066 234.323 172.066C232.563 172.066 231.383 171.186 231.393 169.823ZM232.418 169.823C232.408 170.674 233.172 171.225 234.323 171.215C235.454 171.225 236.218 170.674 236.227 169.823C236.218 168.953 235.454 168.392 234.323 168.392C233.172 168.392 232.408 168.953 232.418 169.823ZM232.563 176.388V172.888H233.626V175.499H240.733V176.388H232.563ZM250.555 167.773C250.555 169.968 251.966 172.182 253.736 172.994L253.088 173.865C251.705 173.154 250.564 171.699 250.023 169.973C249.486 171.791 248.345 173.347 246.958 174.087L246.272 173.226C248.051 172.347 249.462 170.007 249.472 167.773V165.559H250.555V167.773ZM252.411 169.533V168.653H255.292V164.505H256.356V176.678H255.292V169.533H252.411ZM269.49 171.757V172.617H266.57V176.659H265.497V172.617H262.355V176.659H261.281V172.617H258.361V171.757H269.49ZM259.705 165.869V164.979H268.146V168.092H260.817V169.61H268.407V170.5H259.734V167.261H267.053V165.869H259.705ZM278.2 166.391C278.2 167.831 279.428 169.233 281.178 169.784L280.656 170.635C279.273 170.186 278.195 169.238 277.673 168.059C277.136 169.364 276.01 170.432 274.584 170.925L274.042 170.074C275.821 169.465 277.127 167.947 277.127 166.371V166.033H274.381V165.144H280.926V166.033H278.2V166.391ZM276.179 172.269V171.389H284.059V174.3H277.272V175.663H284.523V176.523H276.208V173.478H282.995V172.269H276.179ZM280.54 168.112V167.222H282.995V164.505H284.059V170.79H282.995V168.112H280.54ZM290.145 168.46C290.145 170.413 291.411 172.405 293.171 173.255L292.543 174.077C291.208 173.425 290.15 172.1 289.637 170.534C289.11 172.221 287.979 173.633 286.596 174.3L285.978 173.468C287.766 172.637 289.091 170.558 289.101 168.46V167.493H286.316V166.623H289.091V164.728H290.164V166.623H292.9V167.493H290.145V168.46ZM294.428 176.659V164.505H295.501V169.494H297.532V170.413H295.501V176.659H294.428ZM309.302 170.152V170.993H298.174V170.152H309.302ZM299.518 172.772V171.97H307.91V174.551H300.61V175.711H308.307V176.494H299.537V173.807H306.847V172.772H299.518ZM299.586 165.646V164.873H307.871V167.387H300.688V168.45H308.084V169.233H299.624V166.652H306.798V165.646H299.586ZM323.311 164.505V168.199H325.138V169.108H323.311V173.4H322.228V164.505H323.311ZM313.826 171.128C316.741 170.22 318.631 168.494 318.858 166.342H314.329V165.443H320.023C320.023 168.576 317.79 170.896 314.29 171.989L313.826 171.128ZM315.692 176.388V172.492H316.765V175.499H323.862V176.388H315.692ZM337.035 174.174V175.063H325.906V174.174H330.885V171.206H331.939V174.174H337.035ZM326.341 170.452C328.468 170.084 330.837 168.305 330.847 166.265V165.327H331.968V166.265C331.968 168.295 334.366 170.084 336.493 170.452L336.01 171.341C334.158 170.954 332.205 169.702 331.412 167.952C330.615 169.697 328.676 170.954 326.825 171.341L326.341 170.452ZM347.433 164.505V169.678H349.376V170.587H347.433V176.659H346.359V164.505H347.433ZM337.851 173.42C338.842 173.415 340.002 173.41 341.206 173.376V172.037C339.79 171.868 338.866 171.041 338.876 169.833C338.866 168.46 340.027 167.57 341.748 167.57C343.449 167.57 344.629 168.46 344.638 169.833C344.629 171.041 343.691 171.873 342.279 172.037V173.333C343.41 173.28 344.556 173.188 345.615 173.033L345.692 173.845C343.033 174.3 340.162 174.329 338.035 174.329L337.851 173.42ZM338.073 166.865V165.994H341.206V164.525H342.279V165.994H345.402V166.865H338.073ZM339.881 169.833C339.881 170.674 340.626 171.225 341.748 171.215C342.859 171.225 343.604 170.674 343.604 169.833C343.604 168.982 342.859 168.412 341.748 168.412C340.626 168.412 339.881 168.982 339.881 169.833ZM359.513 164.505V169.514H361.543V170.413H359.513V176.659H358.449V164.505H359.513ZM350.038 167.348V166.458H353.161V164.65H354.234V166.458H357.27V167.348H350.038ZM350.734 171.148C350.724 169.504 351.981 168.354 353.712 168.354C355.433 168.354 356.68 169.504 356.69 171.148C356.68 172.791 355.433 173.932 353.712 173.932C351.981 173.932 350.724 172.791 350.734 171.148ZM351.759 171.148C351.749 172.25 352.581 173.033 353.712 173.023C354.833 173.033 355.655 172.25 355.665 171.148C355.655 170.045 354.833 169.253 353.712 169.253C352.581 169.253 351.749 170.045 351.759 171.148ZM371.951 165.733V166.942C371.941 168.441 371.941 170.104 371.496 172.55L370.414 172.424C370.868 170.104 370.868 168.402 370.878 166.942V166.623H363.385V165.733H371.951ZM362.205 174.938V174.039H366.546V169.697H367.61V174.039H373.285V174.938H362.205ZM387.322 164.515V168.518H389.15V169.427H387.322V173.623H386.249V164.515H387.322ZM377.847 166.884V166.004H380.941V164.515H382.005V166.004H385.089V166.884H377.847ZM378.543 169.823C378.534 168.441 379.713 167.551 381.473 167.551C383.204 167.551 384.383 168.441 384.393 169.823C384.383 171.186 383.204 172.066 381.473 172.066C379.713 172.066 378.534 171.186 378.543 169.823ZM379.568 169.823C379.559 170.674 380.322 171.225 381.473 171.215C382.604 171.225 383.368 170.674 383.378 169.823C383.368 168.953 382.604 168.392 381.473 168.392C380.322 168.392 379.559 168.953 379.568 169.823ZM379.713 176.388V172.888H380.777V175.499H387.883V176.388H379.713ZM403.09 165.105V165.956C403.09 166.874 403.09 167.938 402.771 169.378L401.717 169.253C402.027 167.846 402.027 166.85 402.027 165.965H394.756V165.105H403.09ZM393.441 171.08V170.21H398.024V167.754H399.078V170.21H404.502V171.08H393.441ZM394.244 175.76C396.438 175.441 398.372 174.222 398.382 172.608V172.047H399.465V172.608C399.465 174.222 401.398 175.441 403.622 175.76L403.206 176.601C401.35 176.296 399.658 175.426 398.923 174.097C398.188 175.426 396.492 176.296 394.64 176.601L394.244 175.76ZM415.944 164.505V176.659H414.91V164.505H415.944ZM405.686 169.746C405.686 167.164 406.711 165.53 408.287 165.53C409.766 165.53 410.767 166.952 410.902 169.243H412.473V164.766H413.508V176.04H412.473V170.133H410.907C410.801 172.501 409.79 173.981 408.287 173.971C406.711 173.981 405.686 172.337 405.686 169.746ZM406.691 169.746C406.682 171.718 407.31 172.965 408.287 172.956C409.283 172.965 409.911 171.718 409.911 169.746C409.911 167.773 409.283 166.536 408.287 166.536C407.31 166.536 406.682 167.773 406.691 169.746ZM421.904 167.773C421.904 169.968 423.316 172.182 425.085 172.994L424.437 173.865C423.055 173.154 421.914 171.699 421.373 169.973C420.836 171.791 419.695 173.347 418.308 174.087L417.621 173.226C419.4 172.347 420.812 170.007 420.821 167.773V165.559H421.904V167.773ZM423.761 169.533V168.653H426.642V164.505H427.705V176.678H426.642V169.533H423.761ZM439.983 165.443V166.091C439.973 166.884 439.973 168.092 439.664 169.688L438.591 169.601C438.886 168.141 438.915 167.111 438.924 166.342H433.921V165.443H439.983ZM433.176 170.819C433.96 170.814 434.849 170.809 435.787 170.785V168.141H436.85V170.751C438.199 170.693 439.591 170.597 440.853 170.423L440.921 171.215C438.378 171.65 435.448 171.699 433.283 171.708L433.176 170.819ZM435.052 176.388V172.82H436.125V175.499H443.164V176.388H435.052ZM441.685 173.652V164.505H442.768V168.46H444.547V169.378H442.768V173.652H441.685ZM455.38 164.505V176.678H454.316V164.505H455.38ZM446.03 166.526V165.637H451.686V169.958H447.152V172.83C449.168 172.825 450.961 172.738 453.136 172.385L453.243 173.284C451.009 173.642 449.163 173.729 447.065 173.729H446.049V169.079H450.603V166.526H446.03ZM466.947 164.457V167.416H468.784V168.305H466.947V171.186H465.874V164.457H466.947ZM457.472 166.468V165.608H460.566V164.38H461.63V165.608H464.714V166.468H457.472ZM458.168 169.011C458.159 167.783 459.319 167.019 461.098 167.019C462.858 167.019 464.008 167.783 464.018 169.011C464.008 170.249 462.858 171.003 461.098 171.003C459.319 171.003 458.159 170.249 458.168 169.011ZM459.193 172.627V171.815H466.947V174.512H460.276V175.692H467.392V176.523H459.222V173.72H465.884V172.627H459.193ZM459.193 169.011C459.184 169.746 459.938 170.2 461.098 170.2C462.239 170.2 462.993 169.746 463.003 169.011C462.993 168.286 462.239 167.812 461.098 167.812C459.938 167.812 459.184 168.286 459.193 169.011ZM479.157 165.637C479.157 167.348 481.391 168.827 483.586 169.137L483.15 170.016C481.255 169.697 479.385 168.648 478.606 167.155C477.833 168.658 475.962 169.697 474.072 170.016L473.627 169.137C475.822 168.827 478.046 167.377 478.046 165.637V164.941H479.157V165.637ZM473.057 172.25V171.351H484.137V172.25H479.099V176.659H478.046V172.25H473.057ZM492.779 172.656C492.779 173.734 493.364 174.88 494.514 175.537C495.675 174.822 496.289 173.599 496.289 172.656V171.989H497.343V172.656C497.333 173.913 498.251 175.16 499.818 175.692L499.276 176.485C498.063 176.059 497.212 175.208 496.791 174.188C496.414 175.179 495.675 176.112 494.548 176.591C493.364 176.137 492.615 175.247 492.252 174.227C491.812 175.208 490.976 176.05 489.811 176.485L489.269 175.692C490.807 175.121 491.735 173.826 491.744 172.656V171.989H492.779V172.656ZM488.95 168.063C488.95 166.371 490.294 165.221 492.141 165.221C493.988 165.221 495.322 166.371 495.322 168.063C495.322 169.736 493.988 170.887 492.141 170.887C490.294 170.887 488.95 169.736 488.95 168.063ZM490.004 168.063C489.994 169.195 490.894 169.987 492.141 169.997C493.378 169.987 494.278 169.195 494.278 168.063C494.278 166.932 493.378 166.13 492.141 166.139C490.894 166.13 489.994 166.932 490.004 168.063ZM497.633 171.457V164.515H498.706V171.457H497.633ZM504.037 165.443C505.691 165.453 506.885 166.874 507.054 169.146H509.781V164.505H510.844V176.678H509.781V170.036H507.064C506.948 172.419 505.734 173.913 504.037 173.913C502.239 173.913 500.982 172.269 500.992 169.678C500.982 167.097 502.239 165.453 504.037 165.443ZM502.017 169.678C502.017 171.66 502.839 172.956 504.037 172.956C505.227 172.956 506.058 171.66 506.058 169.678C506.058 167.706 505.227 166.41 504.037 166.4C502.839 166.41 502.017 167.706 502.017 169.678ZM523.998 174.193V175.092H512.869V174.193H515.625V170.916C514.59 170.374 513.962 169.499 513.962 168.402C513.962 166.516 515.808 165.279 518.399 165.269C521 165.279 522.847 166.516 522.847 168.402C522.847 169.485 522.238 170.345 521.232 170.887V174.193H523.998ZM514.996 168.402C514.996 169.755 516.408 170.664 518.399 170.664C520.382 170.664 521.812 169.755 521.812 168.402C521.812 167.039 520.382 166.139 518.399 166.149C516.408 166.139 514.996 167.039 514.996 168.402ZM516.678 174.193H520.149V171.307C519.623 171.443 519.033 171.515 518.399 171.515C517.776 171.515 517.201 171.443 516.678 171.312V174.193ZM526.255 175.624C525.771 175.624 525.365 175.228 525.375 174.744C525.365 174.261 525.771 173.865 526.255 173.865C526.738 173.865 527.134 174.261 527.134 174.744C527.134 175.228 526.738 175.624 526.255 175.624Z" fill="#494949"/>
<g filter="url(#filter1_ddd_1310_14252)">
<rect x="26.498" y="208.047" width="155.005" height="43" rx="21.5" fill="white"/>
<path d="M50.4018 223.25V229.391H43.7143V223.25H50.4018ZM45.4174 224.641V228H48.6987V224.641H45.4174ZM54.3705 222.312V225.484H56.3393V226.922H54.3705V230.281H52.6362V222.312H54.3705ZM54.5737 231V232.375H50.8237C51.0971 233.578 52.6987 234.711 55.1674 235.062L54.5424 236.391C52.3393 236.078 50.6596 235.133 49.8549 233.859C49.0346 235.133 47.3862 236.07 45.183 236.359L44.5424 235.047C47.0346 234.711 48.5971 233.609 48.8862 232.375H45.1205V231H54.5737ZM69.773 229.172V230.547H64.1793V231.781H68.2105V236.266H58.4137V231.781H62.4605V230.547H56.898V229.172H69.773ZM64.1793 222.297V223.562H68.5074V224.938H64.3043C64.5074 226.094 66.1715 227.047 69.1324 227.25L68.6324 228.531C66.0777 228.336 64.2027 227.586 63.3199 226.391C62.4293 227.586 60.5543 228.336 58.023 228.531L57.5074 227.25C60.484 227.047 62.1246 226.094 62.3355 224.938H58.1637V223.562H62.4605V222.297H64.1793ZM60.1324 233.172V234.859H66.523V233.172H60.1324ZM78.488 223.719V225.094H70.5974V223.719H73.7537V222.188H75.488V223.719H78.488ZM74.5974 225.656C76.5193 225.656 77.8943 226.719 77.9099 228.297C77.8943 229.859 76.5193 230.906 74.5974 230.906C72.6755 230.906 71.3162 229.859 71.3318 228.297C71.3162 226.719 72.6755 225.656 74.5974 225.656ZM74.5974 226.953C73.5974 226.953 72.9412 227.453 72.9568 228.297C72.9412 229.125 73.5974 229.609 74.5974 229.609C75.5974 229.609 76.2849 229.125 76.2849 228.297C76.2849 227.453 75.5974 226.953 74.5974 226.953ZM82.3943 222.312V231.359H80.6599V229.703H78.5662V228.312H80.6599V226.922H78.5818V225.516H80.6599V222.312H82.3943ZM77.6443 231.516C80.6287 231.516 82.4724 232.422 82.4724 233.969C82.4724 235.5 80.6287 236.422 77.6443 236.422C74.6599 236.422 72.8162 235.5 72.8162 233.969C72.8162 232.422 74.6599 231.516 77.6443 231.516ZM77.6443 232.844C75.738 232.844 74.6443 233.219 74.6443 233.969C74.6443 234.703 75.738 235.094 77.6443 235.094C79.5349 235.094 80.613 234.703 80.613 233.969C80.613 233.219 79.5349 232.844 77.6443 232.844ZM99.6993 222.312V230.703H97.9649V227.25H95.5587V225.828H97.9649V222.312H99.6993ZM94.918 231.062C97.918 231.062 99.7462 232.047 99.7462 233.75C99.7462 235.453 97.918 236.438 94.918 236.438C91.9337 236.438 90.1055 235.453 90.1212 233.75C90.1055 232.047 91.9337 231.062 94.918 231.062ZM94.918 232.391C92.9493 232.391 91.8399 232.859 91.8399 233.75C91.8399 234.625 92.9493 235.094 94.918 235.094C96.8868 235.094 98.0118 234.625 98.0118 233.75C98.0118 232.859 96.8868 232.391 94.918 232.391ZM93.0587 224.734C93.0587 226.453 94.1993 228.188 96.3868 228.922L95.5118 230.297C93.9415 229.766 92.8243 228.688 92.2149 227.359C91.5899 228.867 90.4102 230.07 88.7305 230.672L87.8243 229.297C90.0899 228.516 91.293 226.609 91.293 224.75V224.641H88.3555V223.234H95.9805V224.641H93.0587V224.734ZM114.446 233.312V234.734H101.539V233.312H107.102V230.562H102.961V223.25H104.696V225.562H111.242V223.25H112.977V230.562H108.821V233.312H114.446ZM104.696 229.156H111.242V226.953H104.696V229.156ZM127.364 222.312V236.438H125.707V222.312H127.364ZM124.489 222.578V235.75H122.848V228.641H120.817V227.234H122.848V222.578H124.489ZM119.567 226.172C119.567 228.562 120.426 230.953 122.442 232.109L121.411 233.391C120.106 232.609 119.239 231.266 118.754 229.656C118.254 231.398 117.356 232.883 116.02 233.719L114.957 232.422C117.004 231.188 117.895 228.625 117.895 226.172V225.234H115.442V223.828H121.848V225.234H119.567V226.172ZM135.235 231.141C138.297 231.156 140.235 232.125 140.251 233.797C140.235 235.438 138.297 236.422 135.235 236.422C132.188 236.422 130.235 235.438 130.235 233.797C130.235 232.125 132.188 231.156 135.235 231.141ZM135.235 232.453C133.204 232.453 131.969 232.938 131.985 233.797C131.969 234.625 133.204 235.078 135.235 235.078C137.282 235.078 138.516 234.625 138.532 233.797C138.516 232.938 137.282 232.453 135.235 232.453ZM140.157 222.984V224.156C140.157 225.266 140.157 226.453 139.766 227.906L138.047 227.75C138.399 226.375 138.422 225.383 138.422 224.359H130.376V222.984H140.157ZM141.719 228.719V230.125H128.907V228.719H133.876V226.156H135.594V228.719H141.719Z" fill="#00EB90"/>
<path fill-rule="evenodd" clip-rule="evenodd" d="M155.83 224.971C155.504 225.382 155.116 225.949 154.966 226.216C153.678 228.639 153.661 228.661 153.07 228.094C151.704 226.805 149.455 225.927 149.896 228.172C150.17 229.528 150.981 232.007 151.192 232.829C151.739 234.997 152.03 235.352 153 235.063C155.407 234.33 158.845 234.307 161.305 235.008C161.913 235.186 161.948 235.097 162.01 233.552C162.134 230.428 163.562 227.383 163.562 226.405C163.562 225.305 161.913 226.127 159.674 228.339L159.445 228.561L159.118 228.283C158.448 227.716 158.113 228.161 158.492 229.106C158.801 229.873 159.057 230.128 159.735 229.717C160.123 229.484 160.661 229.039 161.419 228.361C161.719 228.094 161.966 227.905 161.966 227.939C161.966 228.094 161.428 231.006 161.428 231.018C161.305 231.493 161.428 231.313 161.243 231.94C161.243 231.94 161.199 232.562 161.076 232.918C160.943 233.274 160.723 233.363 160.361 233.207C157.531 232.029 152.92 233.463 152.911 233.463C152.744 233.496 151.21 228.394 151.333 228.239C151.351 228.217 151.536 228.361 151.748 228.561C154.137 230.751 154.384 230.684 155.962 227.494L156.703 225.994L156.993 226.538C157.84 228.128 159.039 227.427 158.369 226.26C158.14 225.871 157.761 225.293 157.152 224.393C156.879 223.982 156.473 224.16 155.83 224.971Z" fill="#00EB90"/>
</g>
<rect x="192.503" y="211.547" width="363" height="36" rx="12" fill="white"/>
<path d="M204.637 224.443C205.754 224.448 206.663 225.101 207.185 226.222H210.38V223.505H211.444V235.678H210.38V230.96H207.262C206.754 232.193 205.812 232.913 204.637 232.913C202.839 232.913 201.582 231.269 201.591 228.678C201.582 226.097 202.839 224.453 204.637 224.443ZM202.616 228.678C202.616 230.66 203.438 231.956 204.637 231.956C205.826 231.956 206.658 230.66 206.658 228.678C206.658 226.706 205.826 225.41 204.637 225.4C203.438 225.41 202.616 226.706 202.616 228.678ZM207.494 227.121C207.61 227.59 207.673 228.112 207.673 228.678C207.673 229.181 207.625 229.645 207.533 230.07H210.38V227.121H207.494ZM223.534 223.505V235.678H222.47V229.074H220.101V228.175H222.47V223.505H223.534ZM213.894 225.526V224.637H219.366V228.881H214.996V231.84C217.09 231.835 218.612 231.777 220.382 231.443L220.469 232.342C218.641 232.671 217.065 232.749 214.861 232.758H213.933V227.992H218.322V225.526H213.894ZM239.157 223.505V230.747H238.083V227.566H235.628V226.677H238.083V223.505H239.157ZM229.13 229.78C230.938 229.123 232.224 227.479 232.224 225.739V225.284H229.478V224.395H236.024V225.284H233.307V225.729C233.307 227.315 234.525 228.823 236.304 229.432L235.744 230.293C234.375 229.8 233.317 228.78 232.79 227.528C232.268 228.949 231.141 230.085 229.691 230.631L229.13 229.78ZM231.054 233.387C231.045 231.956 232.592 231.124 235.125 231.124C237.648 231.124 239.195 231.956 239.195 233.387C239.195 234.818 237.648 235.639 235.125 235.649C232.592 235.639 231.045 234.818 231.054 233.387ZM232.118 233.387C232.108 234.266 233.259 234.798 235.125 234.789C236.981 234.798 238.132 234.266 238.132 233.387C238.132 232.497 236.981 231.965 235.125 231.965C233.259 231.965 232.108 232.497 232.118 233.387ZM252.31 233.203V234.102H241.182V233.203H246.18V230.583H242.496V224.366H243.57V226.561H249.883V224.366H250.947V230.583H247.244V233.203H252.31ZM243.57 229.703H249.883V227.441H243.57V229.703ZM264.39 229.152V229.993H253.262V229.152H264.39ZM254.606 231.772V230.97H262.998V233.551H255.698V234.711H263.394V235.494H254.625V232.807H261.934V231.772H254.606ZM254.673 224.646V223.873H262.959V226.387H255.776V227.45H263.172V228.233H254.712V225.652H261.886V224.646H254.673ZM278.302 223.505V228.291H280.332V229.22H278.302V235.659H277.229V223.505H278.302ZM269.397 232.739V224.54H270.461V227.75H274.019V224.54H275.082V232.739H269.397ZM270.461 231.84H274.019V228.61H270.461V231.84ZM290.498 223.505V226.667H292.326V227.557H290.498V230.979H289.425V223.505H290.498ZM281.565 230.148V224.366H287.153V225.236H282.638V226.793H286.931V227.653H282.638V229.268C285.006 229.273 286.355 229.215 287.955 228.939L288.081 229.809C286.399 230.109 284.997 230.157 282.483 230.148H281.565ZM282.589 233.464C282.58 232.081 284.117 231.289 286.621 231.289C289.116 231.289 290.634 232.081 290.634 233.464C290.634 234.847 289.116 235.63 286.621 235.63C284.117 235.63 282.58 234.847 282.589 233.464ZM283.653 233.464C283.653 234.295 284.765 234.798 286.621 234.789C288.448 234.798 289.57 234.295 289.57 233.464C289.57 232.633 288.448 232.139 286.621 232.139C284.765 232.139 283.653 232.633 283.653 233.464ZM298.624 224.289C301.167 224.298 303.072 225.623 303.072 227.634C303.072 229.655 301.167 230.979 298.624 230.97C296.091 230.979 294.186 229.655 294.186 227.634C294.186 225.623 296.091 224.298 298.624 224.289ZM293.094 234.034V233.135H304.222V234.034H293.094ZM295.211 227.634C295.201 229.104 296.671 230.09 298.624 230.09C300.577 230.09 302.037 229.104 302.037 227.634C302.037 226.174 300.577 225.159 298.624 225.168C296.671 225.159 295.201 226.174 295.211 227.634ZM316.322 233.242V234.15H305.193V233.242H310.192V230.95H306.586V227.199H313.856V225.294H306.557V224.405H314.92V228.079H307.649V230.061H315.2V230.95H311.255V233.242H316.322ZM325.032 225.749C325.032 227.324 326.25 228.833 328.029 229.452L327.468 230.293C326.095 229.804 325.037 228.789 324.51 227.537C323.988 228.934 322.861 230.051 321.416 230.583L320.855 229.732C322.653 229.094 323.949 227.47 323.949 225.758V225.226H321.203V224.347H327.749V225.226H325.032V225.749ZM322.702 232.313V231.434H330.881V235.659H329.808V232.313H322.702ZM327.362 227.586V226.686H329.808V223.505H330.881V230.786H329.808V227.586H327.362ZM342.41 223.505V226.619H344.238V227.528H342.41V230.563H341.337V223.505H342.41ZM332.935 225.642V224.762H336.029V223.389H337.093V224.762H340.177V225.642H332.935ZM333.631 228.34C333.622 227.044 334.792 226.213 336.561 226.213C338.301 226.213 339.471 227.044 339.481 228.34C339.471 229.635 338.301 230.476 336.561 230.467C334.792 230.476 333.622 229.635 333.631 228.34ZM334.656 228.34C334.647 229.133 335.41 229.655 336.561 229.655C337.692 229.655 338.456 229.133 338.466 228.34C338.456 227.557 337.692 227.025 336.561 227.034C335.41 227.025 334.647 227.557 334.656 228.34ZM334.724 235.494V231.095H335.787V232.4H341.337V231.095H342.41V235.494H334.724ZM335.787 234.624H341.337V233.251H335.787V234.624ZM354.51 223.515V227.518H356.337V228.427H354.51V232.623H353.437V223.515H354.51ZM345.035 225.884V225.004H348.129V223.515H349.192V225.004H352.276V225.884H345.035ZM345.731 228.823C345.721 227.441 346.901 226.551 348.66 226.551C350.391 226.551 351.571 227.441 351.58 228.823C351.571 230.186 350.391 231.066 348.66 231.066C346.901 231.066 345.721 230.186 345.731 228.823ZM346.756 228.823C346.746 229.674 347.51 230.225 348.66 230.215C349.792 230.225 350.556 229.674 350.565 228.823C350.556 227.953 349.792 227.392 348.66 227.392C347.51 227.392 346.746 227.953 346.756 228.823ZM346.901 235.388V231.888H347.964V234.499H355.071V235.388H346.901ZM363.868 224.443C365.666 224.453 366.933 226.097 366.942 228.678C366.933 231.269 365.666 232.913 363.868 232.913C362.069 232.913 360.803 231.269 360.812 228.678C360.803 226.097 362.069 224.453 363.868 224.443ZM361.828 228.678C361.828 230.66 362.669 231.956 363.868 231.956C365.086 231.956 365.908 230.66 365.908 228.678C365.908 226.706 365.086 225.41 363.868 225.4C362.669 225.41 361.828 226.706 361.828 228.678ZM368.953 235.659V223.505H370.027V228.359H372.057V229.278H370.027V235.659H368.953ZM383.847 233.222V234.121H372.719V233.222H383.847ZM374.082 225.323V224.434H382.445V228.108H375.174V230.099H382.726V230.97H374.111V227.228H381.382V225.323H374.082ZM394.226 223.505V228.291H396.256V229.22H394.226V235.659H393.153V223.505H394.226ZM385.321 232.739V224.54H386.385V227.75H389.943V224.54H391.006V232.739H385.321ZM386.385 231.84H389.943V228.61H386.385V231.84ZM406.934 223.505V235.678H405.861V223.505H406.934ZM397.372 228.678C397.372 226.097 398.658 224.453 400.476 224.443C402.274 224.453 403.579 226.097 403.579 228.678C403.579 231.269 402.274 232.913 400.476 232.913C398.658 232.913 397.372 231.269 397.372 228.678ZM398.407 228.678C398.407 230.66 399.258 231.956 400.476 231.956C401.694 231.956 402.535 230.66 402.535 228.678C402.535 226.706 401.694 225.41 400.476 225.4C399.258 225.41 398.407 226.706 398.407 228.678ZM418.86 230.07V230.95H410.458V224.559H418.725V225.449H411.541V227.257H418.464V228.127H411.541V230.07H418.86ZM409.017 234.073V233.174H420.146V234.073H409.017ZM432.226 229.152V229.993H421.098V229.152H432.226ZM422.442 231.772V230.97H430.834V233.551H423.534V234.711H431.23V235.494H422.461V232.807H429.77V231.772H422.442ZM422.509 224.646V223.873H430.795V226.387H423.612V227.45H431.008V228.233H422.548V225.652H429.722V224.646H422.509ZM446.138 223.505V228.291H448.168V229.22H446.138V235.659H445.065V223.505H446.138ZM437.233 232.739V224.54H438.297V227.75H441.855V224.54H442.918V232.739H437.233ZM438.297 231.84H441.855V228.61H438.297V231.84ZM459.958 233.242V234.15H448.83V233.242H453.829V230.95H450.222V227.199H457.493V225.294H450.193V224.405H458.557V228.079H451.286V230.061H458.837V230.95H454.892V233.242H459.958ZM468.591 226.039C468.591 227.499 469.809 228.833 471.608 229.365L471.105 230.186C469.698 229.766 468.61 228.862 468.074 227.702C467.542 228.978 466.416 229.959 464.975 230.428L464.443 229.577C466.251 229.036 467.528 227.644 467.528 226.039V225.807H464.782V224.927H467.528V223.447H468.61V224.927H471.327V225.807H468.591V226.039ZM465.671 234.779C467.624 234.465 469.394 233.396 469.582 232.101H466.145V231.221H474.16V232.101H470.723C470.897 233.372 472.681 234.47 474.634 234.779L474.228 235.62C472.454 235.316 470.839 234.436 470.143 233.217C469.452 234.431 467.847 235.296 466.077 235.601L465.671 234.779ZM472.874 230.573V223.505H473.947V226.512H475.775V227.412H473.947V230.573H472.874ZM482.073 223.718C484.78 223.718 486.366 224.463 486.366 225.816C486.366 227.189 484.78 227.934 482.073 227.943C479.366 227.934 477.771 227.189 477.771 225.816C477.771 224.463 479.366 223.718 482.073 223.718ZM476.543 229.635V228.765H487.623V229.635H476.543ZM477.887 231.511V230.689H486.192V233.406H478.97V234.673H486.559V235.523H477.916V232.613H485.138V231.511H477.887ZM478.892 225.816C478.883 226.657 480.062 227.121 482.073 227.121C484.094 227.121 485.274 226.657 485.274 225.816C485.274 225.014 484.094 224.53 482.073 224.53C480.062 224.53 478.883 225.014 478.892 225.816ZM498.257 224.637C498.257 226.348 500.49 227.827 502.685 228.137L502.25 229.016C500.355 228.697 498.484 227.648 497.706 226.155C496.932 227.658 495.062 228.697 493.171 229.016L492.727 228.137C494.921 227.827 497.145 226.377 497.145 224.637V223.941H498.257V224.637ZM492.156 231.25V230.351H503.236V231.25H498.199V235.659H497.145V231.25H492.156ZM511.879 231.656C511.879 232.734 512.464 233.88 513.614 234.537C514.774 233.822 515.388 232.599 515.388 231.656V230.989H516.442V231.656C516.432 232.913 517.351 234.16 518.917 234.692L518.376 235.485C517.162 235.059 516.312 234.208 515.891 233.188C515.514 234.179 514.774 235.112 513.648 235.591C512.464 235.137 511.714 234.247 511.352 233.227C510.912 234.208 510.075 235.05 508.91 235.485L508.369 234.692C509.906 234.121 510.834 232.826 510.844 231.656V230.989H511.879V231.656ZM508.05 227.063C508.05 225.371 509.394 224.221 511.24 224.221C513.087 224.221 514.421 225.371 514.421 227.063C514.421 228.736 513.087 229.887 511.24 229.887C509.394 229.887 508.05 228.736 508.05 227.063ZM509.104 227.063C509.094 228.195 509.993 228.987 511.24 228.997C512.478 228.987 513.377 228.195 513.377 227.063C513.377 225.932 512.478 225.13 511.24 225.139C509.993 225.13 509.094 225.932 509.104 227.063ZM516.732 230.457V223.515H517.805V230.457H516.732ZM523.137 224.443C524.79 224.453 525.984 225.874 526.154 228.146H528.88V223.505H529.944V235.678H528.88V229.036H526.163C526.047 231.419 524.834 232.913 523.137 232.913C521.339 232.913 520.082 231.269 520.091 228.678C520.082 226.097 521.339 224.453 523.137 224.443ZM521.116 228.678C521.116 230.66 521.938 231.956 523.137 231.956C524.326 231.956 525.158 230.66 525.158 228.678C525.158 226.706 524.326 225.41 523.137 225.4C521.938 225.41 521.116 226.706 521.116 228.678ZM543.097 233.193V234.092H531.969V233.193H534.724V229.916C533.69 229.374 533.061 228.499 533.061 227.402C533.061 225.516 534.908 224.279 537.499 224.269C540.1 224.279 541.947 225.516 541.947 227.402C541.947 228.485 541.337 229.345 540.332 229.887V233.193H543.097ZM534.096 227.402C534.096 228.755 535.507 229.664 537.499 229.664C539.481 229.664 540.912 228.755 540.912 227.402C540.912 226.039 539.481 225.139 537.499 225.149C535.507 225.139 534.096 226.039 534.096 227.402ZM535.778 233.193H539.249V230.307C538.722 230.443 538.132 230.515 537.499 230.515C536.875 230.515 536.3 230.443 535.778 230.312V233.193ZM545.354 234.624C544.871 234.624 544.465 234.228 544.474 233.744C544.465 233.261 544.871 232.865 545.354 232.865C545.838 232.865 546.234 233.261 546.234 233.744C546.234 234.228 545.838 234.624 545.354 234.624Z" fill="#494949"/>
<g filter="url(#filter2_ddd_1310_14252)">
<rect x="0.498047" y="267.047" width="155.005" height="43" rx="21.5" fill="white"/>
<path d="M28.9955 281.328V291.641H27.2455V281.328H28.9955ZM29.3862 293.75V295.156H19.6518V290.656H21.4018V293.75H29.3862ZM22.4955 283.484C22.4955 285.453 23.6518 287.312 25.8862 288.062L24.9955 289.438C23.3862 288.875 22.2377 287.75 21.6205 286.312C20.9799 287.852 19.8159 289.086 18.1518 289.688L17.2455 288.312C19.5424 287.5 20.6987 285.516 20.6987 283.484V282.109H22.4955V283.484ZM43.773 288.25V289.656H30.898V288.25H36.4605V286.281H38.1793V288.25H43.773ZM38.1949 282.078C38.1949 283.797 40.0855 285.359 43.0387 285.734L42.3668 287.094C40.0465 286.734 38.2027 285.688 37.3043 284.203C36.398 285.688 34.5543 286.734 32.2262 287.094L31.6012 285.734C34.5074 285.359 36.4293 283.766 36.4293 282.078V281.547H38.1949V282.078ZM42.1949 290.781V295.438H40.4605V292.141H32.3199V290.781H42.1949ZM55.7068 281.328V285.766H57.6755V287.203H55.7068V291.875H53.9724V281.328H55.7068ZM52.9568 282.891V284.281H44.5818V282.891H47.9099V281.312H49.6443V282.891H52.9568ZM48.7693 284.859C50.8005 284.859 52.2068 285.938 52.2224 287.562C52.2068 289.172 50.8005 290.234 48.7693 290.234C46.7224 290.234 45.3005 289.172 45.3005 287.562C45.3005 285.938 46.7224 284.859 48.7693 284.859ZM48.7693 286.203C47.6912 286.203 46.988 286.703 46.988 287.562C46.988 288.406 47.6912 288.906 48.7693 288.891C49.8474 288.906 50.5662 288.406 50.5662 287.562C50.5662 286.703 49.8474 286.203 48.7693 286.203ZM56.2693 293.75V295.156H46.6599V291.047H48.3943V293.75H56.2693ZM64.2462 282.047V283.969H67.4024V282.047H69.1212V284.625H71.9649V281.312H73.6993V289.031H71.9649V286.062H69.1212V288.594H62.5118V282.047H64.2462ZM64.2462 287.188H67.4024V285.312H64.2462V287.188ZM66.1212 289.656V291.094H71.9649V289.656H73.6993V295.234H64.3868V289.656H66.1212ZM66.1212 293.828H71.9649V292.438H66.1212V293.828ZM88.4299 287.625V288.922H85.1487V289.891H86.8674V293.109H78.7737V294.109H87.2893V295.312H77.0393V291.984H85.1487V291.109H77.0237V289.891H78.8205V288.922H75.5237V287.625H88.4299ZM86.8362 281.625V284.797H78.883V285.656H87.0862V286.859H77.1643V283.672H85.1018V282.812H77.1174V281.625H86.8362ZM80.5393 289.891H83.4299V288.922H80.5393V289.891ZM94.5356 285.328C94.5356 287.641 95.8949 290.078 98.1762 291.031L97.2231 292.406C95.5512 291.688 94.3324 290.203 93.6918 288.406C93.0356 290.344 91.8012 291.969 90.1449 292.75L89.1449 291.391C91.3793 290.359 92.7699 287.734 92.7699 285.328V284.141H89.6606V282.703H97.6293V284.141H94.5356V285.328ZM100.957 281.312V295.438H99.2074V281.312H100.957ZM114.719 281.328V292.016H112.969V290.781H110.204V289.562H112.969V281.328H114.719ZM115.047 293.75V295.156H104.688V290.984H106.422V293.75H115.047ZM102.813 287.672C105.422 287.656 108.922 287.625 111.922 287.25L112.016 288.5C110.852 288.695 109.649 288.828 108.454 288.906V291.625H106.719V289C105.399 289.055 104.141 289.062 103.032 289.062L102.813 287.672ZM107.422 281.844C109.485 281.844 110.922 282.859 110.938 284.344C110.922 285.859 109.485 286.828 107.422 286.828C105.329 286.828 103.891 285.859 103.891 284.344C103.891 282.859 105.329 281.844 107.422 281.844ZM107.422 283.125C106.297 283.125 105.532 283.578 105.532 284.344C105.532 285.109 106.297 285.562 107.422 285.562C108.501 285.562 109.266 285.109 109.282 284.344C109.266 283.578 108.501 283.125 107.422 283.125Z" fill="#3F5EF4"/>
<path fill-rule="evenodd" clip-rule="evenodd" d="M129.83 283.971C129.504 284.382 129.116 284.949 128.966 285.216C127.678 287.639 127.661 287.661 127.07 287.094C125.704 285.805 123.455 284.927 123.896 287.172C124.17 288.528 124.981 291.007 125.192 291.829C125.739 293.997 126.03 294.352 127 294.063C129.407 293.33 132.845 293.307 135.305 294.008C135.913 294.186 135.948 294.097 136.01 292.552C136.134 289.428 137.562 286.383 137.562 285.405C137.562 284.305 135.913 285.127 133.674 287.339L133.445 287.561L133.118 287.283C132.448 286.716 132.113 287.161 132.492 288.106C132.801 288.873 133.057 289.128 133.735 288.717C134.123 288.484 134.661 288.039 135.419 287.361C135.719 287.094 135.966 286.905 135.966 286.939C135.966 287.094 135.428 290.006 135.428 290.018C135.305 290.493 135.428 290.313 135.243 290.94C135.243 290.94 135.199 291.562 135.076 291.918C134.943 292.274 134.723 292.363 134.361 292.207C131.531 291.029 126.92 292.463 126.911 292.463C126.744 292.496 125.21 287.394 125.333 287.239C125.351 287.217 125.536 287.361 125.748 287.561C128.137 289.751 128.384 289.684 129.962 286.494L130.703 284.994L130.993 285.538C131.84 287.128 133.039 286.427 132.369 285.26C132.14 284.871 131.761 284.293 131.152 283.393C130.879 282.982 130.473 283.16 129.83 283.971Z" fill="#3F5EF4"/>
</g>
<rect x="166.503" y="270.547" width="415" height="36" rx="12" fill="white"/>
<path d="M179.03 285.039C179.03 286.441 179.987 287.852 181.534 288.461L181.012 289.283C179.828 288.809 178.982 287.886 178.552 286.789C178.131 287.997 177.28 289.022 176.081 289.554L175.53 288.751C177.077 288.084 178.005 286.557 178.015 285.039V285.01H175.772V284.149H178.015V282.699H179.03V284.149H181.225V285.01H179.03V285.039ZM177 293.76C179.117 293.441 181.148 292.126 181.157 290.521V290.221H182.23V290.521C182.23 292.126 184.28 293.441 186.388 293.76L186.001 294.601C184.159 294.296 182.434 293.354 181.694 291.99C180.954 293.354 179.224 294.296 177.396 294.601L177 293.76ZM182.105 289.679V282.737H183.139V285.619H184.735V282.515H185.75V290.724H184.735V286.518H183.139V289.679H182.105ZM190.076 282.824V284.197H196.09V282.824H197.163V287.291H193.605V288.674H198.613V289.544H187.533V288.674H192.551V287.291H189.003V282.824H190.076ZM188.394 293.76C190.579 293.46 192.522 292.271 192.522 290.685V290.347H193.605V290.685C193.605 292.271 195.539 293.46 197.753 293.76L197.347 294.601C195.485 294.296 193.793 293.45 193.068 292.14C192.338 293.45 190.646 294.296 188.8 294.601L188.394 293.76ZM190.076 286.431H196.09V285.039H190.076V286.431ZM205.163 282.718C207.87 282.718 209.456 283.463 209.456 284.816C209.456 286.189 207.87 286.934 205.163 286.943C202.456 286.934 200.861 286.189 200.861 284.816C200.861 283.463 202.456 282.718 205.163 282.718ZM199.633 288.635V287.765H210.713V288.635H199.633ZM200.977 290.511V289.689H209.282V292.406H202.06V293.673H209.649V294.523H201.006V291.613H208.228V290.511H200.977ZM201.982 284.816C201.973 285.657 203.152 286.121 205.163 286.121C207.184 286.121 208.363 285.657 208.363 284.816C208.363 284.014 207.184 283.53 205.163 283.53C203.152 283.53 201.973 284.014 201.982 284.816ZM226.326 288.954V289.824H215.227V288.954H220.235V287.746H216.706V282.854H224.944V283.724H217.789V284.865H224.615V285.686H217.789V286.895H225.011V287.746H221.308V288.954H226.326ZM216.58 292.686C216.58 291.42 218.089 290.733 220.776 290.743C223.445 290.733 224.953 291.42 224.963 292.686C224.953 293.963 223.445 294.63 220.776 294.63C218.089 294.63 216.58 293.963 216.58 292.686ZM217.663 292.686C217.653 293.421 218.775 293.808 220.776 293.798C222.768 293.808 223.88 293.421 223.89 292.686C223.88 291.961 222.768 291.555 220.776 291.555C218.775 291.555 217.653 291.961 217.663 292.686ZM233.417 284.604V285.483H227.317V284.604H229.84V282.873H230.913V284.604H233.417ZM227.761 289.061C227.752 287.446 228.854 286.305 230.372 286.305C231.899 286.305 232.992 287.446 233.002 289.061C232.992 290.695 231.899 291.845 230.372 291.845C228.854 291.845 227.752 290.695 227.761 289.061ZM228.709 289.061C228.709 290.144 229.405 290.917 230.372 290.907C231.339 290.917 232.045 290.144 232.045 289.061C232.045 287.997 231.339 287.214 230.372 287.204C229.405 287.214 228.709 287.997 228.709 289.061ZM234.046 294.059V282.795H235.061V287.63H236.676V282.505H237.701V294.659H236.676V288.519H235.061V294.059H234.046ZM252.695 282.505V287.253H254.348V288.171H252.695V294.659H251.632V282.505H252.695ZM243.21 291.72V283.637H244.129V286.779H245.666V283.637H246.575V291.72H243.21ZM244.129 290.811H245.666V287.639H244.129V290.811ZM247.242 291.72V283.637H248.151V286.779H249.65V283.637H250.558V291.72H247.242ZM248.151 290.811H249.65V287.639H248.151V290.811ZM266.187 292.222V293.121H255.059V292.222H266.187ZM256.422 284.323V283.434H264.785V287.108H257.514V289.099H265.065V289.97H256.451V286.228H263.722V284.323H256.422ZM277.561 282.505V294.659H276.537V282.505H277.561ZM267.168 291.255C269.807 289.689 271.132 287.494 271.335 284.952H267.69V284.052H272.408C272.403 285.251 272.215 286.412 271.799 287.494H273.984V282.834H275.009V294.04H273.984V288.365H271.403C270.668 289.776 269.493 291.028 267.796 292.029L267.168 291.255ZM286.02 283.443C287.818 283.453 289.085 285.097 289.095 287.678C289.085 290.269 287.818 291.913 286.02 291.913C284.222 291.913 282.955 290.269 282.965 287.678C282.955 285.097 284.222 283.453 286.02 283.443ZM283.98 287.678C283.98 289.66 284.821 290.956 286.02 290.956C287.238 290.956 288.06 289.66 288.06 287.678C288.06 285.706 287.238 284.41 286.02 284.4C284.821 284.41 283.98 285.706 283.98 287.678ZM291.106 294.659V282.505H292.179V287.359H294.209V288.278H292.179V294.659H291.106ZM305.999 292.222V293.121H294.871V292.222H305.999ZM296.234 284.323V283.434H304.598V287.108H297.327V289.099H304.878V289.97H296.263V286.228H303.534V284.323H296.234ZM316.378 282.505V287.291H318.408V288.22H316.378V294.659H315.305V282.505H316.378ZM307.473 291.739V283.54H308.537V286.75H312.095V283.54H313.158V291.739H307.473ZM308.537 290.84H312.095V287.61H308.537V290.84ZM329.087 282.505V294.678H328.014V282.505H329.087ZM319.525 287.678C319.525 285.097 320.811 283.453 322.628 283.443C324.427 283.453 325.732 285.097 325.732 287.678C325.732 290.269 324.427 291.913 322.628 291.913C320.811 291.913 319.525 290.269 319.525 287.678ZM320.559 287.678C320.559 289.66 321.41 290.956 322.628 290.956C323.846 290.956 324.688 289.66 324.688 287.678C324.688 285.706 323.846 284.41 322.628 284.4C321.41 284.41 320.559 285.706 320.559 287.678ZM341.012 289.07V289.95H332.61V283.559H340.877V284.449H333.693V286.257H340.616V287.127H333.693V289.07H341.012ZM331.17 293.073V292.174H342.298V293.073H331.17ZM353.522 283.443V284.091C353.512 284.884 353.512 286.092 353.203 287.688L352.13 287.601C352.425 286.141 352.454 285.111 352.463 284.342H347.46V283.443H353.522ZM346.715 288.819C347.499 288.814 348.388 288.809 349.326 288.785V286.141H350.389V288.751C351.738 288.693 353.13 288.597 354.392 288.423L354.46 289.215C351.917 289.65 348.988 289.699 346.822 289.708L346.715 288.819ZM348.591 294.388V290.82H349.664V293.499H356.703V294.388H348.591ZM355.224 291.652V282.505H356.307V286.46H358.086V287.378H356.307V291.652H355.224ZM364.645 283.376V286.914H360.468V288.925C362.687 288.92 363.906 288.867 365.39 288.616L365.496 289.505C363.91 289.776 362.644 289.815 360.265 289.815H359.385V286.063H363.562V284.246H359.356V283.376H364.645ZM361.058 294.33V290.801H362.131V293.431H369.325V294.33H361.058ZM365.477 288.171V287.282H367.884V285.445H365.477V284.565H367.884V282.515H368.957V291.449H367.884V288.171H365.477ZM384.571 282.505V289.747H383.497V286.566H381.042V285.677H383.497V282.505H384.571ZM374.544 288.78C376.352 288.123 377.638 286.479 377.638 284.739V284.284H374.892V283.395H381.438V284.284H378.721V284.729C378.721 286.315 379.939 287.823 381.718 288.432L381.158 289.293C379.79 288.8 378.731 287.78 378.204 286.528C377.682 287.949 376.555 289.085 375.105 289.631L374.544 288.78ZM376.468 292.387C376.459 290.956 378.006 290.124 380.539 290.124C383.062 290.124 384.609 290.956 384.609 292.387C384.609 293.818 383.062 294.639 380.539 294.649C378.006 294.639 376.459 293.818 376.468 292.387ZM377.532 292.387C377.522 293.266 378.673 293.798 380.539 293.789C382.395 293.798 383.546 293.266 383.546 292.387C383.546 291.497 382.395 290.965 380.539 290.965C378.673 290.965 377.522 291.497 377.532 292.387ZM397.724 292.203V293.102H386.596V292.203H391.594V289.583H387.911V283.366H388.984V285.561H395.297V283.366H396.361V289.583H392.658V292.203H397.724ZM388.984 288.703H395.297V286.441H388.984V288.703ZM409.804 288.152V288.993H398.676V288.152H409.804ZM400.02 290.772V289.97H408.412V292.551H401.112V293.711H408.808V294.494H400.039V291.807H407.349V290.772H400.02ZM400.087 283.646V282.873H408.373V285.387H401.19V286.45H408.586V287.233H400.126V284.652H407.3V283.646H400.087ZM424.451 290.173V291.052H417.557V293.615H424.634V294.494H416.484V290.173H424.451ZM414.502 286.054C414.492 284.362 415.836 283.163 417.654 283.173C419.278 283.163 420.525 284.144 420.757 285.58H423.31V282.505H424.383V289.486H423.31V286.479H420.762C420.55 287.934 419.297 288.925 417.654 288.935C415.836 288.925 414.492 287.736 414.502 286.054ZM415.527 286.054C415.527 287.185 416.416 288.007 417.654 288.016C418.853 288.007 419.762 287.185 419.762 286.054C419.762 284.894 418.853 284.072 417.654 284.081C416.416 284.072 415.527 284.894 415.527 286.054ZM436.154 283.733V284.942C436.144 286.441 436.144 288.104 435.7 290.55L434.617 290.424C435.071 288.104 435.071 286.402 435.081 284.942V284.623H427.588V283.733H436.154ZM426.408 292.938V292.039H430.749V287.697H431.813V292.039H437.488V292.938H426.408ZM453.131 288.722V289.612H448.18V292.097H447.117V289.612H442.002V288.722H453.131ZM443.433 294.388V290.898H444.506V293.499H451.893V294.388H443.433ZM443.452 287.33V283.095H451.68V287.33H443.452ZM444.506 286.47H450.617V283.956H444.506V286.47ZM464.505 282.505V294.659H463.48V282.505H464.505ZM453.976 291.42C455.668 290.405 456.654 288.181 456.654 285.967V284.826H454.305V283.936H459.912V284.826H457.689V285.967C457.689 288.074 458.636 290.173 460.309 291.139L459.661 291.932C458.467 291.217 457.616 289.907 457.186 288.36C456.751 290.032 455.871 291.458 454.653 292.222L453.976 291.42ZM458.984 287.765V286.885H461.034V282.795H462.049V294.021H461.034V287.765H458.984ZM477.33 288.152V288.993H466.201V288.152H477.33ZM467.545 290.772V289.97H475.937V292.551H468.638V293.711H476.334V294.494H467.565V291.807H474.874V290.772H467.545ZM467.613 283.646V282.873H475.899V285.387H468.715V286.45H476.111V287.233H467.652V284.652H474.826V283.646H467.613ZM487.906 284.604V285.483H481.805V284.604H484.328V282.873H485.402V284.604H487.906ZM482.25 289.061C482.24 287.446 483.342 286.305 484.86 286.305C486.388 286.305 487.48 287.446 487.49 289.061C487.48 290.695 486.388 291.845 484.86 291.845C483.342 291.845 482.24 290.695 482.25 289.061ZM483.197 289.061C483.197 290.144 483.893 290.917 484.86 290.907C485.827 290.917 486.533 290.144 486.533 289.061C486.533 287.997 485.827 287.214 484.86 287.204C483.893 287.214 483.197 287.997 483.197 289.061ZM488.534 294.059V282.795H489.549V287.63H491.164V282.505H492.189V294.659H491.164V288.519H489.549V294.059H488.534ZM504.008 282.505V288.722H502.935V287.446H499.686V286.595H502.935V285.135H499.865C499.106 287.05 497.221 288.35 494.523 288.993L494.137 288.104C497.119 287.412 498.855 285.962 499.048 284.004H494.755V283.115H500.237C500.237 283.521 500.199 283.907 500.121 284.275H502.935V282.505H504.008ZM496.128 290.144V289.273H504.008V292.232H497.221V293.663H504.424V294.543H496.157V291.41H502.935V290.144H496.128ZM515.537 282.457V285.416H517.374V286.305H515.537V289.186H514.464V282.457H515.537ZM506.062 284.468V283.608H509.156V282.38H510.22V283.608H513.304V284.468H506.062ZM506.758 287.011C506.749 285.783 507.909 285.019 509.688 285.019C511.447 285.019 512.598 285.783 512.608 287.011C512.598 288.249 511.447 289.003 509.688 289.003C507.909 289.003 506.749 288.249 506.758 287.011ZM507.783 290.627V289.815H515.537V292.512H508.866V293.692H515.982V294.523H507.812V291.72H514.474V290.627H507.783ZM507.783 287.011C507.773 287.746 508.528 288.2 509.688 288.2C510.829 288.2 511.583 287.746 511.593 287.011C511.583 286.286 510.829 285.812 509.688 285.812C508.528 285.812 507.773 286.286 507.783 287.011ZM527.747 283.637C527.747 285.348 529.981 286.827 532.175 287.137L531.74 288.016C529.845 287.697 527.974 286.648 527.196 285.155C526.423 286.658 524.552 287.697 522.662 288.016L522.217 287.137C524.412 286.827 526.635 285.377 526.635 283.637V282.941H527.747V283.637ZM521.646 290.25V289.351H532.727V290.25H527.689V294.659H526.635V290.25H521.646ZM541.369 290.656C541.369 291.734 541.954 292.88 543.104 293.537C544.265 292.822 544.878 291.599 544.878 290.656V289.989H545.932V290.656C545.923 291.913 546.841 293.16 548.407 293.692L547.866 294.485C546.653 294.059 545.802 293.208 545.381 292.188C545.004 293.179 544.265 294.112 543.138 294.591C541.954 294.137 541.204 293.247 540.842 292.227C540.402 293.208 539.566 294.05 538.401 294.485L537.859 293.692C539.396 293.121 540.325 291.826 540.334 290.656V289.989H541.369V290.656ZM537.54 286.063C537.54 284.371 538.884 283.221 540.731 283.221C542.577 283.221 543.912 284.371 543.912 286.063C543.912 287.736 542.577 288.887 540.731 288.887C538.884 288.887 537.54 287.736 537.54 286.063ZM538.594 286.063C538.584 287.195 539.483 287.987 540.731 287.997C541.968 287.987 542.867 287.195 542.867 286.063C542.867 284.932 541.968 284.13 540.731 284.139C539.483 284.13 538.584 284.932 538.594 286.063ZM546.222 289.457V282.515H547.296V289.457H546.222ZM552.627 283.443C554.281 283.453 555.475 284.874 555.644 287.146H558.37V282.505H559.434V294.678H558.37V288.036H555.653C555.537 290.419 554.324 291.913 552.627 291.913C550.829 291.913 549.572 290.269 549.582 287.678C549.572 285.097 550.829 283.453 552.627 283.443ZM550.607 287.678C550.607 289.66 551.428 290.956 552.627 290.956C553.816 290.956 554.648 289.66 554.648 287.678C554.648 285.706 553.816 284.41 552.627 284.4C551.428 284.41 550.607 285.706 550.607 287.678ZM572.587 292.193V293.092H561.459V292.193H564.214V288.916C563.18 288.374 562.551 287.499 562.551 286.402C562.551 284.516 564.398 283.279 566.989 283.269C569.59 283.279 571.437 284.516 571.437 286.402C571.437 287.485 570.828 288.345 569.822 288.887V292.193H572.587ZM563.586 286.402C563.586 287.755 564.998 288.664 566.989 288.664C568.971 288.664 570.402 287.755 570.402 286.402C570.402 285.039 568.971 284.139 566.989 284.149C564.998 284.139 563.586 285.039 563.586 286.402ZM565.268 292.193H568.739V289.307C568.212 289.443 567.623 289.515 566.989 289.515C566.366 289.515 565.79 289.443 565.268 289.312V292.193Z" fill="#494949"/>
</g>
<defs>
<filter id="filter0_ddd_1310_14252" x="34.181" y="146.73" width="169.639" height="71.634" filterUnits="userSpaceOnUse" color-interpolation-filters="sRGB">
<feFlood flood-opacity="0" result="BackgroundImageFix"/>
<feColorMatrix in="SourceAlpha" type="matrix" values="0 0 0 0 0 0 0 0 0 0 0 0 0 0 0 0 0 0 127 0" result="hardAlpha"/>
<feMorphology radius="3" operator="erode" in="SourceAlpha" result="effect1_dropShadow_1310_14252"/>
<feOffset dx="3" dy="12"/>
<feGaussianBlur stdDeviation="8.6585"/>
<feComposite in2="hardAlpha" operator="out"/>
<feColorMatrix type="matrix" values="0 0 0 0 0.219608 0 0 0 0 0.227451 0 0 0 0 0.239216 0 0 0 0.03 0"/>
<feBlend mode="normal" in2="BackgroundImageFix" result="effect1_dropShadow_1310_14252"/>
<feColorMatrix in="SourceAlpha" type="matrix" values="0 0 0 0 0 0 0 0 0 0 0 0 0 0 0 0 0 0 127 0" result="hardAlpha"/>
<feMorphology radius="2" operator="erode" in="SourceAlpha" result="effect2_dropShadow_1310_14252"/>
<feOffset dx="0.68656" dy="2.74624"/>
<feGaussianBlur stdDeviation="1.98153"/>
<feComposite in2="hardAlpha" operator="out"/>
<feColorMatrix type="matrix" values="0 0 0 0 0.219608 0 0 0 0 0.227451 0 0 0 0 0.239216 0 0 0 0.043 0"/>
<feBlend mode="normal" in2="effect1_dropShadow_1310_14252" result="effect2_dropShadow_1310_14252"/>
<feColorMatrix in="SourceAlpha" type="matrix" values="0 0 0 0 0 0 0 0 0 0 0 0 0 0 0 0 0 0 127 0" result="hardAlpha"/>
<feMorphology radius="1" operator="erode" in="SourceAlpha" result="effect3_dropShadow_1310_14252"/>
<feOffset dx="0.180656" dy="0.722625"/>
<feGaussianBlur stdDeviation="0.521405"/>
<feComposite in2="hardAlpha" operator="out"/>
<feColorMatrix type="matrix" values="0 0 0 0 0.219608 0 0 0 0 0.227451 0 0 0 0 0.239216 0 0 0 0.05 0"/>
<feBlend mode="normal" in2="effect2_dropShadow_1310_14252" result="effect3_dropShadow_1310_14252"/>
<feBlend mode="normal" in="SourceGraphic" in2="effect3_dropShadow_1310_14252" result="shape"/>
</filter>
<filter id="filter1_ddd_1310_14252" x="15.181" y="205.73" width="183.639" height="71.634" filterUnits="userSpaceOnUse" color-interpolation-filters="sRGB">
<feFlood flood-opacity="0" result="BackgroundImageFix"/>
<feColorMatrix in="SourceAlpha" type="matrix" values="0 0 0 0 0 0 0 0 0 0 0 0 0 0 0 0 0 0 127 0" result="hardAlpha"/>
<feMorphology radius="3" operator="erode" in="SourceAlpha" result="effect1_dropShadow_1310_14252"/>
<feOffset dx="3" dy="12"/>
<feGaussianBlur stdDeviation="8.6585"/>
<feComposite in2="hardAlpha" operator="out"/>
<feColorMatrix type="matrix" values="0 0 0 0 0.219608 0 0 0 0 0.227451 0 0 0 0 0.239216 0 0 0 0.03 0"/>
<feBlend mode="normal" in2="BackgroundImageFix" result="effect1_dropShadow_1310_14252"/>
<feColorMatrix in="SourceAlpha" type="matrix" values="0 0 0 0 0 0 0 0 0 0 0 0 0 0 0 0 0 0 127 0" result="hardAlpha"/>
<feMorphology radius="2" operator="erode" in="SourceAlpha" result="effect2_dropShadow_1310_14252"/>
<feOffset dx="0.68656" dy="2.74624"/>
<feGaussianBlur stdDeviation="1.98153"/>
<feComposite in2="hardAlpha" operator="out"/>
<feColorMatrix type="matrix" values="0 0 0 0 0.219608 0 0 0 0 0.227451 0 0 0 0 0.239216 0 0 0 0.043 0"/>
<feBlend mode="normal" in2="effect1_dropShadow_1310_14252" result="effect2_dropShadow_1310_14252"/>
<feColorMatrix in="SourceAlpha" type="matrix" values="0 0 0 0 0 0 0 0 0 0 0 0 0 0 0 0 0 0 127 0" result="hardAlpha"/>
<feMorphology radius="1" operator="erode" in="SourceAlpha" result="effect3_dropShadow_1310_14252"/>
<feOffset dx="0.180656" dy="0.722625"/>
<feGaussianBlur stdDeviation="0.521405"/>
<feComposite in2="hardAlpha" operator="out"/>
<feColorMatrix type="matrix" values="0 0 0 0 0.219608 0 0 0 0 0.227451 0 0 0 0 0.239216 0 0 0 0.05 0"/>
<feBlend mode="normal" in2="effect2_dropShadow_1310_14252" result="effect3_dropShadow_1310_14252"/>
<feBlend mode="normal" in="SourceGraphic" in2="effect3_dropShadow_1310_14252" result="shape"/>
</filter>
<filter id="filter2_ddd_1310_14252" x="-10.819" y="264.73" width="183.639" height="71.634" filterUnits="userSpaceOnUse" color-interpolation-filters="sRGB">
<feFlood flood-opacity="0" result="BackgroundImageFix"/>
<feColorMatrix in="SourceAlpha" type="matrix" values="0 0 0 0 0 0 0 0 0 0 0 0 0 0 0 0 0 0 127 0" result="hardAlpha"/>
<feMorphology radius="3" operator="erode" in="SourceAlpha" result="effect1_dropShadow_1310_14252"/>
<feOffset dx="3" dy="12"/>
<feGaussianBlur stdDeviation="8.6585"/>
<feComposite in2="hardAlpha" operator="out"/>
<feColorMatrix type="matrix" values="0 0 0 0 0.219608 0 0 0 0 0.227451 0 0 0 0 0.239216 0 0 0 0.03 0"/>
<feBlend mode="normal" in2="BackgroundImageFix" result="effect1_dropShadow_1310_14252"/>
<feColorMatrix in="SourceAlpha" type="matrix" values="0 0 0 0 0 0 0 0 0 0 0 0 0 0 0 0 0 0 127 0" result="hardAlpha"/>
<feMorphology radius="2" operator="erode" in="SourceAlpha" result="effect2_dropShadow_1310_14252"/>
<feOffset dx="0.68656" dy="2.74624"/>
<feGaussianBlur stdDeviation="1.98153"/>
<feComposite in2="hardAlpha" operator="out"/>
<feColorMatrix type="matrix" values="0 0 0 0 0.219608 0 0 0 0 0.227451 0 0 0 0 0.239216 0 0 0 0.043 0"/>
<feBlend mode="normal" in2="effect1_dropShadow_1310_14252" result="effect2_dropShadow_1310_14252"/>
<feColorMatrix in="SourceAlpha" type="matrix" values="0 0 0 0 0 0 0 0 0 0 0 0 0 0 0 0 0 0 127 0" result="hardAlpha"/>
<feMorphology radius="1" operator="erode" in="SourceAlpha" result="effect3_dropShadow_1310_14252"/>
<feOffset dx="0.180656" dy="0.722625"/>
<feGaussianBlur stdDeviation="0.521405"/>
<feComposite in2="hardAlpha" operator="out"/>
<feColorMatrix type="matrix" values="0 0 0 0 0.219608 0 0 0 0 0.227451 0 0 0 0 0.239216 0 0 0 0.05 0"/>
<feBlend mode="normal" in2="effect2_dropShadow_1310_14252" result="effect3_dropShadow_1310_14252"/>
<feBlend mode="normal" in="SourceGraphic" in2="effect3_dropShadow_1310_14252" result="shape"/>
</filter>
<clipPath id="clip0_1310_14252">
<rect y="0.945312" width="582" height="357.204" rx="64" fill="white"/>
</clipPath>
</defs>
</svg>
