<svg xmlns="http://www.w3.org/2000/svg" width="188" height="62" viewBox="0 0 188 62" fill="none">
  <path d="M171.039 49.1266C160.233 49.1266 153.625 42.5852 153.625 31.6239C153.625 21.1266 160.321 14.1211 170.752 14.1211C180.829 14.1211 187.526 20.5962 187.526 31.5134V34.2979H165.271V34.762C165.271 38.2758 167.526 40.773 171.282 40.773C173.868 40.773 175.923 39.646 176.653 37.7233H187.481C186.31 44.6846 180.321 49.1266 171.039 49.1266ZM165.271 27.7123H176.608C176.564 24.6404 174.177 22.4747 171.017 22.4747C167.879 22.4747 165.36 24.6404 165.271 27.7123Z" fill="#FFDC00"/>
  <path d="M151.144 3.24805V48.5077H139.32V3.24805H151.144Z" fill="#FFDC00"/>
  <path d="M117.829 61.9443C107.751 61.9443 101.829 57.3255 101.342 50.7841H112.768C113.121 53.0382 115.243 53.9222 118.182 53.9222C121.475 53.9222 123.884 52.552 123.884 48.4636V42.6515H123.508C122.204 46.0106 118.668 48.0658 113.939 48.0658C106.646 48.0658 100.547 43.204 100.547 31.5134C100.547 19.3366 107.044 14.1211 113.873 14.1211C119 14.1211 122.116 17.1045 123.442 20.4636H123.707V14.5631H135.508V48.4857C135.508 57.1045 128.436 61.9443 117.829 61.9443ZM112.679 31.5134C112.679 36.6625 114.713 39.6239 118.249 39.6239C121.762 39.6239 123.884 36.6183 123.884 31.5134C123.884 26.3642 121.762 23.2261 118.249 23.2261C114.713 23.2261 112.679 26.3863 112.679 31.5134Z" fill="#FFDC00"/>
  <path d="M80.1392 61.9443C70.0618 61.9443 64.1392 57.3255 63.653 50.7841H75.0784C75.432 53.0382 77.5536 53.9222 80.4928 53.9222C83.7856 53.9222 86.1944 52.552 86.1944 48.4636V42.6515H85.8187C84.5149 46.0106 80.979 48.0658 76.2497 48.0658C68.9569 48.0658 62.8574 43.204 62.8574 31.5134C62.8574 19.3366 69.3547 14.1211 76.1834 14.1211C81.3105 14.1211 84.4265 17.1045 85.7524 20.4636H86.0176V14.5631H97.8187V48.4857C97.8187 57.1045 90.7469 61.9443 80.1392 61.9443ZM74.99 31.5134C74.99 36.6625 77.0232 39.6239 80.5591 39.6239C84.0729 39.6239 86.1944 36.6183 86.1944 31.5134C86.1944 26.3642 84.0729 23.2261 80.5591 23.2261C77.0232 23.2261 74.99 26.3863 74.99 31.5134Z" fill="#FFDC00"/>
  <path d="M48.375 48.5083V14.5635H60.1982V48.5083H48.375ZM48.3971 5.45856C48.3971 2.45304 51.0269 0 54.2756 0C57.5242 0 60.154 2.45304 60.154 5.45856C60.154 8.46409 57.5242 10.9171 54.2756 10.9171C51.0269 10.9171 48.3971 8.46409 48.3971 5.45856Z" fill="#FFDC00"/>
  <path d="M30.2205 18.1427C29.4028 14.8941 26.6846 13.0156 22.7067 13.0156C16.4083 13.0156 12.7177 17.7228 12.7177 25.7891C12.7177 33.9659 16.1652 38.7394 22.6404 38.7394C28.2757 38.7394 31.1928 36.0654 31.3033 31.9107H22.8834V23.3803H42.7951V29.5681C42.7951 41.8775 34.331 49.1261 22.552 49.1261C9.40279 49.1261 0.474609 40.2864 0.474609 25.9659C0.474609 11.0488 10.2868 2.62891 22.4415 2.62891C33.0934 2.62891 41.2702 9.08195 42.2647 18.1427H30.2205Z" fill="#FFDC00"/>
</svg>