<svg xmlns="http://www.w3.org/2000/svg" width="200" height="42" viewBox="0 0 200 42" fill="none">
  <path d="M1 20.5059C1 9.45986 10.792 0.505859 22.8718 0.505859H168.319C180.399 0.505859 190.191 9.45986 190.191 20.5059C190.191 22.2029 189.96 23.8509 189.525 25.4239C191.834 27.0589 193.309 29.9469 192.945 32.7409C192.077 39.4099 183.397 40.6509 178.896 38.0169C175.761 39.6029 172.156 40.5059 168.319 40.5059H22.8718C10.792 40.5059 1 31.5519 1 20.5059Z" fill="#FFFCEB"/>
  <path d="M196 40.0078C197.657 40.0078 199 38.6648 199 37.0078C199 35.3508 197.657 34.0078 196 34.0078C194.343 34.0078 193 35.3508 193 37.0078C193 38.6648 194.343 40.0078 196 40.0078Z" fill="#FFFCEB"/>
</svg>