<svg width="current" height="current" viewBox="0 0 96 42" fill="none" xmlns="http://www.w3.org/2000/svg">
<g id="Inglo">
<path id="Vector" d="M84.0849 32.7512C81.6367 32.7512 79.5196 32.2311 77.7334 31.191C75.9577 30.1403 74.5865 28.6799 73.6199 26.8097C72.6532 24.929 72.1699 22.7489 72.1699 20.2693C72.1699 17.7687 72.6532 15.5833 73.6199 13.7131C74.5865 11.8324 75.9577 10.372 77.7334 9.33186C79.5196 8.28119 81.6367 7.75586 84.0849 7.75586C86.533 7.75586 88.6449 8.28119 90.4206 9.33186C92.2068 10.372 93.5832 11.8324 94.5498 13.7131C95.5165 15.5833 95.9998 17.7687 95.9998 20.2693C95.9998 22.7489 95.5165 24.929 94.5498 26.8097C93.5832 28.6799 92.2068 30.1403 90.4206 31.191C88.6449 32.2311 86.533 32.7512 84.0849 32.7512ZM84.1164 27.5504C85.2301 27.5504 86.16 27.2352 86.906 26.6048C87.652 25.9639 88.2141 25.0919 88.5924 23.9887C88.9811 22.8855 89.1755 21.6299 89.1755 20.222C89.1755 18.8141 88.9811 17.5586 88.5924 16.4554C88.2141 15.3522 87.652 14.4801 86.906 13.8392C86.16 13.1983 85.2301 12.8779 84.1164 12.8779C82.9921 12.8779 82.0465 13.1983 81.2795 13.8392C80.523 14.4801 79.9504 15.3522 79.5616 16.4554C79.1833 17.5586 78.9942 18.8141 78.9942 20.222C78.9942 21.6299 79.1833 22.8855 79.5616 23.9887C79.9504 25.0919 80.523 25.9639 81.2795 26.6048C82.0465 27.2352 82.9921 27.5504 84.1164 27.5504Z" fill="black"/>
<path id="Vector_2" d="M69.5445 0.00195312V32.2784H62.8306V0.00195312H69.5445Z" fill="black"/>
<g id="Vector_3">
<path d="M47.4282 41.8605C45.2532 41.8605 43.3882 41.5611 41.8332 40.9622C40.2886 40.3738 39.0593 39.57 38.1452 38.5509C37.2311 37.5318 36.6375 36.3865 36.3643 35.1152L42.5739 34.2799C42.763 34.7632 43.0625 35.215 43.4723 35.6353C43.882 36.0556 44.4232 36.3918 45.0956 36.6439C45.7786 36.9066 46.6086 37.0379 47.5858 37.0379C49.0462 37.0379 50.2493 36.6807 51.1949 35.9663C52.1511 35.2623 52.6291 34.0803 52.6291 32.4203V27.9917H52.3454C52.0512 28.6641 51.6099 29.2998 51.0216 29.8987C50.4332 30.4975 49.6767 30.9861 48.752 31.3643C47.8274 31.7426 46.7242 31.9317 45.4423 31.9317C43.6246 31.9317 41.9698 31.5114 40.4778 30.6709C38.9963 29.8199 37.8142 28.5223 36.9317 26.7782C36.0596 25.0236 35.6235 22.8067 35.6235 20.1275C35.6235 17.3852 36.0701 15.0948 36.9632 13.2561C37.8563 11.4174 39.0436 10.0411 40.5251 9.12698C42.0171 8.2129 43.6509 7.75586 45.4266 7.75586C46.782 7.75586 47.9167 7.98701 48.8308 8.4493C49.745 8.90109 50.4804 9.46845 51.0373 10.1514C51.6047 10.8238 52.0407 11.4857 52.3454 12.1371H52.5976V8.07106H59.2643V32.5148C59.2643 34.5741 58.76 36.2972 57.7513 37.6841C56.7426 39.071 55.3452 40.1111 53.559 40.8046C51.7833 41.5085 49.7397 41.8605 47.4282 41.8605ZM47.57 26.8885C48.6522 26.8885 49.5663 26.6206 50.3123 26.0847C51.0688 25.5384 51.6467 24.7609 52.046 23.7523C52.4558 22.7331 52.6606 21.5143 52.6606 20.0959C52.6606 18.6775 52.461 17.4483 52.0617 16.4081C51.6625 15.3574 51.0846 14.5432 50.3281 13.9653C49.5716 13.3874 48.6522 13.0985 47.57 13.0985C46.4668 13.0985 45.5369 13.3979 44.7804 13.9968C44.0239 14.5852 43.4513 15.4047 43.0625 16.4554C42.6737 17.506 42.4794 18.7196 42.4794 20.0959C42.4794 21.4933 42.6737 22.7016 43.0625 23.7207C43.4618 24.7294 44.0344 25.5121 44.7804 26.069C45.5369 26.6153 46.4668 26.8885 47.57 26.8885Z" fill="black"/>
</g>
<path id="Vector_4" d="M17.401 18.2835V32.2784H10.687V8.07106H17.0858V12.342H17.3695C17.9053 10.9341 18.8037 9.82042 20.0645 9.0009C21.3254 8.17087 22.8541 7.75586 24.6508 7.75586C26.3319 7.75586 27.7977 8.12359 29.048 8.85906C30.2983 9.59453 31.2702 10.6452 31.9637 12.0111C32.6572 13.3664 33.0039 14.9844 33.0039 16.8651V32.2784H26.2899V18.0629C26.3004 16.5815 25.9222 15.4257 25.1552 14.5957C24.3881 13.7552 23.3322 13.3349 21.9873 13.3349C21.0837 13.3349 20.2852 13.5293 19.5917 13.918C18.9087 14.3068 18.3729 14.8741 17.9841 15.6201C17.6059 16.3556 17.4115 17.2434 17.401 18.2835Z" fill="black"/>
<path id="Vector_5" d="M6.97469 0.00195312V32.2784H0.150391V0.00195312H6.97469Z" fill="black"/>
</g>
</svg>
