<svg width="current" height="current" viewBox="0 0 19 20" fill="none" xmlns="http://www.w3.org/2000/svg">
<g id="logo_b">
<path id="Union" fill-rule="evenodd" clip-rule="evenodd" d="M9.14553 9.21019C14.1706 9.20333 18.24 7.17327 18.24 4.67004C18.24 2.16258 14.1568 0.129883 9.12 0.129883C4.08316 0.129883 0 2.16258 0 4.67004C0 7.17327 4.06937 9.20333 9.09447 9.21019C4.06937 9.21422 0 10.4084 0 11.8809C0 13.3525 4.06478 14.5462 9.08596 14.5515C4.06478 14.5546 0 15.2367 0 16.0776C0 16.9205 4.08316 17.6037 9.12 17.6037C14.1568 17.6037 18.24 16.9205 18.24 16.0776C18.24 15.2367 14.1752 14.5546 9.15404 14.5515C14.1752 14.5462 18.24 13.3525 18.24 11.8809C18.24 10.4084 14.1706 9.21422 9.14553 9.21019ZM18.24 18.3668C18.24 18.7882 14.1568 19.1299 9.12 19.1299C4.08316 19.1299 0 18.7882 0 18.3668C0 17.9454 4.08316 17.6038 9.12 17.6038C14.1568 17.6038 18.24 17.9454 18.24 18.3668Z" fill="url(#paint0_linear_1276_12399)"/>
</g>
<defs>
<linearGradient id="paint0_linear_1276_12399" x1="2.16178" y1="0.129883" x2="16.2284" y2="21.5898" gradientUnits="userSpaceOnUse">
<stop stop-color="#3FFFB5"/>
<stop offset="0.213583" stop-color="#95FFD6"/>
<stop offset="0.576015" stop-color="#00EB90"/>
<stop offset="1" stop-color="#00BE74"/>
</linearGradient>
</defs>
</svg>
