<svg width="current" height="current" viewBox="0 0 24 25" fill="none" xmlns="http://www.w3.org/2000/svg">
<path id="Union" fill-rule="evenodd" clip-rule="evenodd" d="M7.74621 2.31808L7.58435 2.26071L7.58432 2.2607C7.42246 2.20335 7.26062 2.14599 7.15271 2.20335L5.85778 1.80183L7.09876 1.22822C7.42249 1.05614 7.74621 0.94141 8.06994 0.826688L8.23182 0.769323L8.39367 0.826688L8.87927 0.998781C10.444 1.45767 12.0626 1.34295 13.6813 0.711976C13.7622 0.683295 13.8431 0.640271 13.9241 0.597246C14.005 0.554222 14.0859 0.511198 14.1669 0.482518L14.3287 0.425171H14.4906C14.8683 0.482532 15.192 0.597254 15.5158 0.711976L16.6488 1.11349L14.9762 1.97391C13.6273 2.54752 12.2784 2.89169 10.8756 2.89169C9.52673 2.89169 8.44762 2.60488 7.74621 2.31808ZM4.0707 5.5394L4.0707 5.53939L4.07074 5.53938C4.13748 5.51747 4.20295 5.49597 4.26636 5.47448C5.72136 5.0908 7.28413 5.14561 8.84691 5.74853C9.8708 6.13222 10.8947 6.29665 12.0263 6.29665C14.2897 6.29665 16.553 5.47448 18.6547 3.88495L19.463 3.2272L19.7324 3.00796L19.2474 2.62427C19.0858 2.45984 18.8702 2.29541 18.6547 2.18579L18.3313 1.96654L18.0619 2.18579C18.008 2.21319 17.9676 2.2543 17.9272 2.29541C17.8867 2.33652 17.8463 2.37762 17.7924 2.40503C14.9363 4.59749 12.0802 5.20042 9.3858 4.159C7.4458 3.44645 5.50579 3.28202 3.56579 3.88495C3.40413 3.93976 3.24246 3.99456 3.02691 4.04937L2.91914 4.10419L2.75746 4.26862C2.75746 4.30249 2.73688 4.31544 2.70843 4.33332C2.69086 4.34437 2.67028 4.35731 2.64969 4.37825C2.54192 4.54268 2.42066 4.69341 2.29941 4.84415L2.29941 4.84416C2.17816 4.99489 2.05691 5.14562 1.94913 5.31005L0.925245 6.89958L2.5958 6.02259C2.80925 6.02259 2.98887 5.9538 3.13468 5.89796L3.13469 5.89796C3.17294 5.88331 3.20886 5.86955 3.24246 5.85816C3.50237 5.72598 3.79712 5.62921 4.0707 5.5394ZM5.44563 9.24113C3.93595 9.68324 2.53412 10.5122 1.29402 11.8385C1.18348 11.9141 1.09812 12.0154 1.02073 12.1073C0.984877 12.1498 0.950737 12.1904 0.916597 12.2254L0 13.2201L0.0539204 11.8385C0.0818407 11.6668 0.0953046 11.4803 0.109284 11.2866C0.122301 11.1063 0.135764 10.9198 0.161761 10.7333V10.5675L0.269586 10.4569L0.539171 10.1806L1.67143 9.24113C2.74978 8.5227 3.82812 7.97006 4.96038 7.63848C6.73964 7.1411 8.68066 7.25163 10.5678 7.97006C14.5576 9.51745 18.0622 7.25162 20.3268 5.04107L20.5424 4.82002L20.9198 4.43316L21.2434 4.87528C21.3043 4.95852 21.3575 5.04176 21.4089 5.12204C21.494 5.25498 21.5738 5.37982 21.6747 5.48319L21.8903 5.81476L21.6208 6.03583L20.9198 6.75425C19.0867 8.3569 14.8811 11.3412 10.0286 9.51744C8.46499 8.90954 6.90139 8.85428 5.44563 9.24113ZM6.54836 12.8937C8.00076 12.5035 9.56075 12.5593 11.1207 13.1724C12.8421 13.8413 17.2531 14.7889 22.202 10.1625L23.0089 9.32634L23.0627 9.2706L23.2779 9.04764L23.1703 8.76894C23.1165 8.546 23.0089 8.26734 22.9013 7.98867L22.9013 7.98858L22.6323 7.2082L22.0944 7.7656C22.0597 7.83759 22.0025 7.88633 21.9374 7.94186C21.9017 7.97231 21.8636 8.00481 21.8255 8.0443C19.4586 10.5526 15.8007 13.1167 11.6049 11.556C9.72212 10.8313 7.78559 10.7199 6.01043 11.2215C4.28907 11.7232 2.78287 12.6708 1.38427 14.0085V13.9528L0.577378 14.8446C0.577378 14.8791 0.556832 14.8923 0.528437 14.9104C0.510891 14.9217 0.490348 14.9348 0.469803 14.9561L0.308415 15.1234L0.362211 15.3463C0.389107 15.4857 0.429451 15.625 0.469795 15.7644C0.510138 15.9037 0.550482 16.0431 0.577378 16.1824L0.900137 17.0743L1.43806 16.3496C1.46496 16.2939 1.5053 16.2521 1.54565 16.2103C1.58599 16.1685 1.62633 16.1267 1.65323 16.0709L1.74672 15.9832C2.86853 14.9304 4.40307 13.4901 6.54836 12.8937ZM13.9274 18.7408C12.042 18.0235 10.1028 17.9132 8.32514 18.4098C7.08619 18.7408 5.90111 19.4029 4.82376 20.2304L4.0696 20.8925L3.85413 21.1132L4.33894 21.5546C4.37223 21.5546 4.38495 21.5756 4.40253 21.6048C4.41339 21.6228 4.42611 21.6438 4.44668 21.6649C4.52554 21.7457 4.60441 21.7969 4.7044 21.8618L4.70442 21.8618C4.74102 21.8856 4.78046 21.9112 4.82376 21.9408L5.14695 22.1615L5.47016 21.8856C5.52403 21.8304 5.63176 21.7201 5.7395 21.6649C6.70911 20.8373 7.78646 20.2856 8.91767 20.0098C10.3721 19.6235 11.9343 19.6787 13.4964 20.2856C14.7892 20.7822 17.4287 21.3891 20.6069 20.0098L20.7147 19.9546L20.8763 19.7891C20.8763 19.755 20.8968 19.7419 20.9253 19.7239C20.9429 19.7128 20.9634 19.6998 20.984 19.6787L20.984 19.6787C21.2534 19.3477 21.5227 19.0166 21.7381 18.6304L22.8155 16.9201L21.0917 17.9132C18.56 19.3477 16.2437 19.6235 13.9274 18.7408ZM15.4605 22.6431C15.3792 22.6159 15.3115 22.5887 15.2437 22.5615L15.2437 22.5615C15.176 22.5343 15.1083 22.5071 15.027 22.4799C13.1306 21.773 11.1799 21.6643 9.39184 22.1537L9.39164 22.1537C9.01242 22.2625 8.63321 22.3712 8.25399 22.5343L6.95356 23.1325L6.62847 23.2956L7.71215 23.6763L8.68745 24.0026L8.85 24.057L9.01256 24.0026C9.06675 23.9844 9.12094 23.9603 9.17512 23.9361C9.28349 23.8878 9.39185 23.8394 9.50021 23.8394C9.60858 23.8394 9.71695 23.7851 9.82532 23.7307C11.1257 23.4044 12.5345 23.4044 14.0517 23.8938C14.1329 23.921 14.2007 23.9482 14.2684 23.9754L14.2684 23.9754C14.3362 24.0026 14.4039 24.0298 14.4852 24.057L14.7561 24.1657L14.9186 24.1113C14.9763 24.0948 15.0353 24.0782 15.0949 24.0615C15.4273 23.9682 15.7808 23.869 16.0565 23.7307L17.5736 23.1869L16.0023 22.8062C15.921 22.779 15.8262 22.7518 15.7314 22.7246C15.6365 22.6975 15.5417 22.6703 15.4605 22.6431ZM22.9334 11.8895L23.7401 11.0616L23.6864 12.3311C23.6864 12.4966 23.6729 12.676 23.6595 12.8554C23.646 13.0348 23.6326 13.2141 23.6326 13.3797V13.5453L23.4712 13.7109C23.4174 13.7661 23.3636 13.8074 23.3099 13.8488C23.2561 13.8902 23.2023 13.9316 23.1485 13.9868C21.3198 15.5874 18.8457 17.0224 16.3716 17.2983C14.9732 17.4639 13.5748 17.2983 12.2302 16.8016C10.6705 16.1945 9.11071 16.1393 7.65852 16.5256C6.04498 16.9672 4.64658 17.8503 3.35575 19.2852L3.14062 19.506L2.76412 20.0028L2.44142 19.506C2.33385 19.2853 2.22628 19.1197 2.06492 18.8989L1.84979 18.5678L2.06492 18.2918L2.76412 17.5191C4.10873 16.1945 5.61472 15.3114 7.28204 14.8147C9.05694 14.318 10.9932 14.4283 12.8756 15.1458C16.8557 16.6912 20.4055 14.3732 22.6107 12.2207L22.9334 11.8895Z" fill="url(#paint0_linear_1219_12041)"/>
<defs>
<linearGradient id="paint0_linear_1219_12041" x1="4.59207" y1="1.37826" x2="20.0148" y2="23.2124" gradientUnits="userSpaceOnUse">
<stop stop-color="#00EB90"/>
<stop offset="0.475839" stop-color="#00EB90"/>
<stop offset="1" stop-color="#3F5EF4"/>
</linearGradient>
</defs>
</svg>
