<svg width="200" height="42" viewBox="0 0 200 42" fill="none" xmlns="http://www.w3.org/2000/svg">
<path d="M1 20.5059C1 9.45986 10.792 0.505859 22.8718 0.505859H168.319C180.399 0.505859 190.191 9.45986 190.191 20.5059C190.191 22.2029 189.96 23.8509 189.525 25.4239C191.834 27.0589 193.309 29.9469 192.945 32.7409C192.077 39.4099 183.397 40.6509 178.896 38.0169C175.761 39.6029 172.156 40.5059 168.319 40.5059H22.8718C10.792 40.5059 1 31.5519 1 20.5059Z" fill="#00EB90" fill-opacity="0.24"/>
<path d="M196 40.0078C197.657 40.0078 199 38.6648 199 37.0078C199 35.3508 197.657 34.0078 196 34.0078C194.343 34.0078 193 35.3508 193 37.0078C193 38.6648 194.343 40.0078 196 40.0078Z" fill="#00EB90" fill-opacity="0.24"/>
<path d="M45.2414 28.3459C44.9414 26.6259 43.7214 24.4659 41.4014 22.7259C40.2614 21.8659 39.1014 21.3059 37.9614 21.0659V20.2259C40.2214 19.6859 42.4414 18.1659 43.8614 16.1059C44.5814 15.0659 45.0414 14.0459 45.2414 12.9859H46.0814C46.4214 15.0059 47.9814 17.2459 50.1014 18.7459C51.1414 19.4859 52.2214 19.9859 53.3214 20.2259V21.0659C51.1014 21.5259 48.5214 23.5059 47.2414 25.5259C46.6014 26.5459 46.2214 27.4859 46.0814 28.3459H45.2414ZM59.2347 12.9604H61.8981L66.5288 24.2672H66.6992L71.3299 12.9604H73.9933V27.5059H71.9052V16.9803H71.7702L67.4805 27.4846H65.7475L61.4577 16.9732H61.3228V27.5059H59.2347V12.9604ZM80.7152 27.726C79.6404 27.726 78.7147 27.4964 77.9382 27.0371C77.1664 26.5731 76.5698 25.9221 76.1484 25.084C75.7318 24.2412 75.5234 23.254 75.5234 22.1223C75.5234 21.0049 75.7318 20.0201 76.1484 19.1678C76.5698 18.3155 77.157 17.6503 77.9098 17.1721C78.6674 16.6938 79.5528 16.4547 80.5661 16.4547C81.1816 16.4547 81.7782 16.5565 82.3558 16.7601C82.9335 16.9637 83.4519 17.2833 83.9112 17.7189C84.3705 18.1545 84.7327 18.7203 84.9979 19.4164C85.263 20.1077 85.3956 20.9481 85.3956 21.9377V22.6905H76.7237V21.0996H83.3146C83.3146 20.5409 83.201 20.0461 82.9737 19.6152C82.7464 19.1796 82.4268 18.8364 82.0149 18.5854C81.6077 18.3345 81.1295 18.209 80.5803 18.209C79.9837 18.209 79.4628 18.3558 79.0178 18.6493C78.5774 18.9382 78.2365 19.3169 77.995 19.7857C77.7583 20.2497 77.6399 20.754 77.6399 21.2985V22.5414C77.6399 23.2705 77.7678 23.8908 78.0234 24.4022C78.2839 24.9135 78.6461 25.3042 79.1101 25.574C79.5741 25.8392 80.1162 25.9718 80.7365 25.9718C81.139 25.9718 81.5059 25.915 81.8374 25.8013C82.1688 25.6829 82.4553 25.5078 82.6967 25.2757C82.9382 25.0437 83.1229 24.7573 83.2507 24.4164L85.2607 24.7786C85.0997 25.3704 84.8108 25.8889 84.3942 26.334C83.9822 26.7743 83.4638 27.1176 82.8388 27.3638C82.2185 27.6053 81.5107 27.726 80.7152 27.726ZM86.7518 27.5059V16.5968H88.7901V18.3723H88.9251C89.1523 17.771 89.524 17.3023 90.0401 16.9661C90.5562 16.6252 91.1741 16.4547 91.8938 16.4547C92.623 16.4547 93.2338 16.6252 93.7262 16.9661C94.2234 17.307 94.5903 17.7757 94.8271 18.3723H94.9407C95.2011 17.79 95.6154 17.3259 96.1836 16.9803C96.7518 16.6299 97.4289 16.4547 98.2148 16.4547C99.2044 16.4547 100.012 16.7649 100.637 17.3851C101.266 18.0054 101.581 18.9405 101.581 20.1905V27.5059H99.4577V20.3894C99.4577 19.6507 99.2565 19.1157 98.854 18.7843C98.4516 18.4528 97.971 18.2871 97.4123 18.2871C96.721 18.2871 96.1836 18.5002 95.8001 18.9263C95.4165 19.3477 95.2248 19.8899 95.2248 20.5527V27.5059H93.1083V20.2544C93.1083 19.6626 92.9237 19.1867 92.5543 18.8269C92.185 18.467 91.7044 18.2871 91.1126 18.2871C90.7101 18.2871 90.3384 18.3936 89.9975 18.6067C89.6613 18.815 89.3891 19.1062 89.1808 19.4803C88.9772 19.8543 88.8754 20.2876 88.8754 20.78V27.5059H86.7518ZM103.598 27.5059V12.9604H105.722V18.3652H105.849C105.973 18.138 106.15 17.8752 106.382 17.5769C106.614 17.2786 106.936 17.0182 107.348 16.7956C107.76 16.5684 108.304 16.4547 108.982 16.4547C109.862 16.4547 110.648 16.6773 111.339 17.1223C112.031 17.5674 112.573 18.209 112.966 19.0471C113.364 19.8851 113.562 20.8936 113.562 22.0726C113.562 23.2516 113.366 24.2625 112.973 25.1053C112.58 25.9434 112.04 26.5897 111.354 27.0442C110.667 27.494 109.884 27.7189 109.003 27.7189C108.34 27.7189 107.798 27.6077 107.376 27.3851C106.96 27.1626 106.633 26.9022 106.396 26.6039C106.16 26.3056 105.977 26.0404 105.849 25.8084H105.672V27.5059H103.598ZM105.679 22.0513C105.679 22.8184 105.79 23.4907 106.013 24.0684C106.235 24.646 106.557 25.0982 106.979 25.4249C107.4 25.7469 107.916 25.9078 108.527 25.9078C109.161 25.9078 109.692 25.7398 110.118 25.4036C110.544 25.0627 110.866 24.601 111.084 24.0186C111.306 23.4363 111.418 22.7805 111.418 22.0513C111.418 21.3316 111.309 20.6853 111.091 20.1124C110.878 19.5395 110.556 19.0873 110.125 18.7559C109.699 18.4244 109.166 18.2587 108.527 18.2587C107.911 18.2587 107.391 18.4173 106.964 18.7346C106.543 19.0518 106.223 19.4945 106.006 20.0627C105.788 20.6309 105.679 21.2937 105.679 22.0513ZM119.649 27.726C118.574 27.726 117.648 27.4964 116.872 27.0371C116.1 26.5731 115.503 25.9221 115.082 25.084C114.665 24.2412 114.457 23.254 114.457 22.1223C114.457 21.0049 114.665 20.0201 115.082 19.1678C115.503 18.3155 116.091 17.6503 116.843 17.1721C117.601 16.6938 118.486 16.4547 119.5 16.4547C120.115 16.4547 120.712 16.5565 121.289 16.7601C121.867 16.9637 122.386 17.2833 122.845 17.7189C123.304 18.1545 123.666 18.7203 123.931 19.4164C124.197 20.1077 124.329 20.9481 124.329 21.9377V22.6905H115.657V21.0996H122.248C122.248 20.5409 122.135 20.0461 121.907 19.6152C121.68 19.1796 121.36 18.8364 120.949 18.5854C120.541 18.3345 120.063 18.209 119.514 18.209C118.917 18.209 118.396 18.3558 117.951 18.6493C117.511 18.9382 117.17 19.3169 116.929 19.7857C116.692 20.2497 116.574 20.754 116.574 21.2985V22.5414C116.574 23.2705 116.701 23.8908 116.957 24.4022C117.217 24.9135 117.58 25.3042 118.044 25.574C118.508 25.8392 119.05 25.9718 119.67 25.9718C120.073 25.9718 120.44 25.915 120.771 25.8013C121.102 25.6829 121.389 25.5078 121.63 25.2757C121.872 25.0437 122.056 24.7573 122.184 24.4164L124.194 24.7786C124.033 25.3704 123.744 25.8889 123.328 26.334C122.916 26.7743 122.397 27.1176 121.772 27.3638C121.152 27.6053 120.444 27.726 119.649 27.726ZM125.685 27.5059V16.5968H127.738V18.3297H127.852C128.05 17.7426 128.401 17.281 128.903 16.9448C129.409 16.6039 129.982 16.4334 130.621 16.4334C130.754 16.4334 130.91 16.4382 131.09 16.4476C131.275 16.4571 131.419 16.4689 131.523 16.4831V18.5144C131.438 18.4907 131.287 18.4647 131.069 18.4363C130.851 18.4031 130.633 18.3865 130.415 18.3865C129.914 18.3865 129.466 18.4931 129.073 18.7061C128.685 18.9145 128.377 19.2057 128.15 19.5797C127.923 19.949 127.809 20.3704 127.809 20.8439V27.5059H125.685ZM140.536 19.2601L138.611 19.601C138.531 19.3548 138.403 19.1204 138.228 18.8979C138.057 18.6754 137.825 18.4931 137.532 18.351C137.238 18.209 136.871 18.138 136.431 18.138C135.829 18.138 135.328 18.2729 134.925 18.5428C134.523 18.8079 134.321 19.1512 134.321 19.5726C134.321 19.9372 134.456 20.2308 134.726 20.4533C134.996 20.6758 135.432 20.8581 136.033 21.0002L137.766 21.3979C138.77 21.6299 139.518 21.9874 140.01 22.4703C140.503 22.9533 140.749 23.5807 140.749 24.3525C140.749 25.0059 140.56 25.5882 140.181 26.0996C139.807 26.6062 139.283 27.004 138.611 27.2928C137.944 27.5816 137.169 27.726 136.289 27.726C135.067 27.726 134.07 27.4656 133.299 26.9448C132.527 26.4192 132.053 25.6735 131.878 24.7076L133.931 24.3951C134.059 24.9301 134.321 25.3349 134.719 25.6096C135.117 25.8794 135.635 26.0144 136.275 26.0144C136.971 26.0144 137.527 25.87 137.944 25.5811C138.36 25.2876 138.569 24.9301 138.569 24.5087C138.569 24.1678 138.441 23.8813 138.185 23.6493C137.934 23.4173 137.548 23.2421 137.027 23.1238L135.181 22.7189C134.163 22.4869 133.41 22.1176 132.922 21.611C132.439 21.1043 132.198 20.4628 132.198 19.6863C132.198 19.0423 132.378 18.4789 132.738 17.9959C133.097 17.513 133.595 17.1365 134.229 16.8667C134.864 16.592 135.59 16.4547 136.409 16.4547C137.588 16.4547 138.516 16.7104 139.194 17.2218C139.871 17.7284 140.318 18.4078 140.536 19.2601ZM148.956 28.3459C148.656 26.6259 147.436 24.4659 145.116 22.7259C143.976 21.8659 142.816 21.3059 141.676 21.0659V20.2259C143.936 19.6859 146.156 18.1659 147.576 16.1059C148.296 15.0659 148.756 14.0459 148.956 12.9859H149.796C150.136 15.0059 151.696 17.2459 153.816 18.7459C154.856 19.4859 155.936 19.9859 157.036 20.2259V21.0659C154.816 21.5259 152.236 23.5059 150.956 25.5259C150.316 26.5459 149.936 27.4859 149.796 28.3459H148.956Z" fill="#00EB90"/>
</svg>
