<svg width="200" height="42" viewBox="0 0 200 42" fill="none" xmlns="http://www.w3.org/2000/svg">
<path d="M1 20.5059C1 9.45986 10.792 0.505859 22.8718 0.505859H168.319C180.399 0.505859 190.191 9.45986 190.191 20.5059C190.191 22.2029 189.96 23.8509 189.525 25.4239C191.834 27.0589 193.309 29.9469 192.945 32.7409C192.077 39.4099 183.397 40.6509 178.896 38.0169C175.761 39.6029 172.156 40.5059 168.319 40.5059H22.8718C10.792 40.5059 1 31.5519 1 20.5059Z" fill="#00EB90" fill-opacity="0.24"/>
<path d="M196 40.0078C197.657 40.0078 199 38.6648 199 37.0078C199 35.3508 197.657 34.0078 196 34.0078C194.343 34.0078 193 35.3508 193 37.0078C193 38.6648 194.343 40.0078 196 40.0078Z" fill="#00EB90" fill-opacity="0.24"/>
<path d="M44.6691 28.3459C44.3691 26.6259 43.1491 24.4659 40.8291 22.7259C39.6891 21.8659 38.5291 21.3059 37.3891 21.0659V20.2259C39.6491 19.6859 41.8691 18.1659 43.2891 16.1059C44.0091 15.0659 44.4691 14.0459 44.6691 12.9859H45.5091C45.8491 15.0059 47.4091 17.2459 49.5291 18.7459C50.5691 19.4859 51.6491 19.9859 52.7491 20.2259V21.0659C50.5291 21.5259 47.9491 23.5059 46.6691 25.5259C46.0291 26.5459 45.6491 27.4859 45.5091 28.3459H44.6691ZM71.2974 20.2331C71.2974 21.7862 71.0133 23.1214 70.4451 24.2388C69.877 25.3515 69.0981 26.2085 68.1085 26.8098C67.1236 27.4064 66.0038 27.7047 64.7491 27.7047C63.4896 27.7047 62.3651 27.4064 61.3755 26.8098C60.3907 26.2085 59.6142 25.3491 59.046 24.2317C58.4778 23.1143 58.1937 21.7814 58.1937 20.2331C58.1937 18.6801 58.4778 17.3472 59.046 16.2346C59.6142 15.1171 60.3907 14.2601 61.3755 13.6635C62.3651 13.0622 63.4896 12.7615 64.7491 12.7615C66.0038 12.7615 67.1236 13.0622 68.1085 13.6635C69.0981 14.2601 69.877 15.1171 70.4451 16.2346C71.0133 17.3472 71.2974 18.6801 71.2974 20.2331ZM69.1241 20.2331C69.1241 19.0494 68.9324 18.0527 68.5488 17.2431C68.17 16.4287 67.6492 15.8132 66.9863 15.3965C66.3282 14.9751 65.5824 14.7644 64.7491 14.7644C63.911 14.7644 63.1629 14.9751 62.5048 15.3965C61.8467 15.8132 61.3258 16.4287 60.9423 17.2431C60.5635 18.0527 60.3741 19.0494 60.3741 20.2331C60.3741 21.4168 60.5635 22.4159 60.9423 23.2303C61.3258 24.04 61.8467 24.6555 62.5048 25.0769C63.1629 25.4935 63.911 25.7019 64.7491 25.7019C65.5824 25.7019 66.3282 25.4935 66.9863 25.0769C67.6492 24.6555 68.17 24.04 68.5488 23.2303C68.9324 22.4159 69.1241 21.4168 69.1241 20.2331ZM79.7736 22.9817V16.5968H81.9043V27.5059H79.8162V25.6167H79.7026C79.4516 26.199 79.0492 26.6844 78.4952 27.0726C77.946 27.4561 77.2618 27.6479 76.4426 27.6479C75.7419 27.6479 75.1216 27.494 74.5819 27.1863C74.0468 26.8738 73.6254 26.4121 73.3176 25.8013C73.0146 25.1905 72.8631 24.4353 72.8631 23.5357V16.5968H74.9867V23.28C74.9867 24.0234 75.1926 24.6152 75.6046 25.0556C76.0165 25.4959 76.5516 25.7161 77.2097 25.7161C77.6074 25.7161 78.0028 25.6167 78.3958 25.4178C78.7935 25.2189 79.1226 24.9183 79.383 24.5158C79.6481 24.1133 79.7784 23.602 79.7736 22.9817ZM83.7576 27.5059V16.5968H85.8102V18.3297H85.9238C86.1227 17.7426 86.4731 17.281 86.975 16.9448C87.4816 16.6039 88.0545 16.4334 88.6937 16.4334C88.8263 16.4334 88.9825 16.4382 89.1625 16.4476C89.3471 16.4571 89.4915 16.4689 89.5957 16.4831V18.5144C89.5105 18.4907 89.359 18.4647 89.1412 18.4363C88.9234 18.4031 88.7056 18.3865 88.4877 18.3865C87.9859 18.3865 87.5384 18.4931 87.1454 18.7061C86.7572 18.9145 86.4494 19.2057 86.2221 19.5797C85.9949 19.949 85.8812 20.3704 85.8812 20.8439V27.5059H83.7576ZM96.1681 12.9604L100.216 24.807H100.38L104.428 12.9604H106.8L101.566 27.5059H99.0304L93.796 12.9604H96.1681ZM109.831 27.7473C109.14 27.7473 108.515 27.6195 107.956 27.3638C107.397 27.1034 106.954 26.727 106.628 26.2346C106.306 25.7421 106.145 25.1384 106.145 24.4235C106.145 23.8079 106.263 23.3013 106.5 22.9036C106.737 22.5059 107.056 22.191 107.459 21.959C107.861 21.727 108.311 21.5518 108.808 21.4334C109.305 21.315 109.812 21.2251 110.328 21.1635C110.981 21.0878 111.512 21.0262 111.919 20.9789C112.326 20.9268 112.622 20.8439 112.807 20.7303C112.991 20.6167 113.084 20.432 113.084 20.1763V20.1266C113.084 19.5063 112.908 19.0257 112.558 18.6848C112.212 18.3439 111.696 18.1735 111.01 18.1735C110.295 18.1735 109.731 18.3321 109.319 18.6493C108.912 18.9618 108.631 19.3098 108.474 19.6934L106.479 19.2388C106.715 18.5759 107.061 18.0409 107.515 17.6337C107.975 17.2218 108.503 16.9235 109.099 16.7388C109.696 16.5494 110.323 16.4547 110.981 16.4547C111.417 16.4547 111.879 16.5068 112.366 16.611C112.859 16.7104 113.318 16.8951 113.744 17.1649C114.175 17.4348 114.528 17.8207 114.802 18.3226C115.077 18.8198 115.214 19.4661 115.214 20.2615V27.5059H113.14V26.0144H113.055C112.918 26.289 112.712 26.5589 112.437 26.824C112.163 27.0892 111.81 27.3094 111.379 27.4846C110.948 27.6597 110.432 27.7473 109.831 27.7473ZM110.292 26.0428C110.88 26.0428 111.381 25.9268 111.798 25.6948C112.22 25.4628 112.539 25.1597 112.757 24.7857C112.979 24.4069 113.091 24.0021 113.091 23.5712V22.165C113.015 22.2407 112.868 22.3117 112.65 22.378C112.437 22.4396 112.193 22.494 111.919 22.5414C111.644 22.584 111.377 22.6242 111.116 22.6621C110.856 22.6953 110.638 22.7237 110.463 22.7473C110.051 22.7994 109.675 22.887 109.334 23.0101C108.997 23.1332 108.728 23.3108 108.524 23.5428C108.325 23.7701 108.226 24.0731 108.226 24.4519C108.226 24.9775 108.42 25.3752 108.808 25.6451C109.196 25.9102 109.691 26.0428 110.292 26.0428ZM119.166 12.9604V27.5059H117.043V12.9604H119.166ZM127.934 22.9817V16.5968H130.064V27.5059H127.976V25.6167H127.863C127.612 26.199 127.209 26.6844 126.655 27.0726C126.106 27.4561 125.422 27.6479 124.603 27.6479C123.902 27.6479 123.282 27.494 122.742 27.1863C122.207 26.8738 121.786 26.4121 121.478 25.8013C121.175 25.1905 121.023 24.4353 121.023 23.5357V16.5968H123.147V23.28C123.147 24.0234 123.353 24.6152 123.765 25.0556C124.177 25.4959 124.712 25.7161 125.37 25.7161C125.768 25.7161 126.163 25.6167 126.556 25.4178C126.954 25.2189 127.283 24.9183 127.543 24.5158C127.808 24.1133 127.939 23.602 127.934 22.9817ZM136.619 27.726C135.545 27.726 134.619 27.4964 133.843 27.0371C133.071 26.5731 132.474 25.9221 132.053 25.084C131.636 24.2412 131.428 23.254 131.428 22.1223C131.428 21.0049 131.636 20.0201 132.053 19.1678C132.474 18.3155 133.061 17.6503 133.814 17.1721C134.572 16.6938 135.457 16.4547 136.47 16.4547C137.086 16.4547 137.682 16.5565 138.26 16.7601C138.838 16.9637 139.356 17.2833 139.816 17.7189C140.275 18.1545 140.637 18.7203 140.902 19.4164C141.167 20.1077 141.3 20.9481 141.3 21.9377V22.6905H132.628V21.0996H139.219C139.219 20.5409 139.105 20.0461 138.878 19.6152C138.651 19.1796 138.331 18.8364 137.919 18.5854C137.512 18.3345 137.034 18.209 136.485 18.209C135.888 18.209 135.367 18.3558 134.922 18.6493C134.482 18.9382 134.141 19.3169 133.899 19.7857C133.663 20.2497 133.544 20.754 133.544 21.2985V22.5414C133.544 23.2705 133.672 23.8908 133.928 24.4022C134.188 24.9135 134.55 25.3042 135.014 25.574C135.478 25.8392 136.021 25.9718 136.641 25.9718C137.043 25.9718 137.41 25.915 137.742 25.8013C138.073 25.6829 138.36 25.5078 138.601 25.2757C138.843 25.0437 139.027 24.7573 139.155 24.4164L141.165 24.7786C141.004 25.3704 140.715 25.8889 140.298 26.334C139.887 26.7743 139.368 27.1176 138.743 27.3638C138.123 27.6053 137.415 27.726 136.619 27.726ZM149.529 28.3459C149.229 26.6259 148.009 24.4659 145.689 22.7259C144.549 21.8659 143.389 21.3059 142.249 21.0659V20.2259C144.509 19.6859 146.729 18.1659 148.149 16.1059C148.869 15.0659 149.329 14.0459 149.529 12.9859H150.369C150.709 15.0059 152.269 17.2459 154.389 18.7459C155.429 19.4859 156.509 19.9859 157.609 20.2259V21.0659C155.389 21.5259 152.809 23.5059 151.529 25.5259C150.889 26.5459 150.509 27.4859 150.369 28.3459H149.529Z" fill="#00EB90"/>
</svg>
