<svg width="45" height="45" viewBox="0 0 45 45" fill="none" xmlns="http://www.w3.org/2000/svg">
<rect y="0.00195312" width="45" height="45" rx="22.5" fill="#00EB90"/>
<g clip-path="url(#clip0_1219_11693)">
<path d="M31.4889 12.0024H14.0291C11.8016 12.0024 9.99902 13.8192 9.99902 16.0533V25.6618C9.99902 27.8959 11.8016 29.7103 14.0291 29.7103H20.0443L22.0965 33.053C22.0965 33.053 22.1181 33.0959 22.1613 33.1507C22.2838 33.3582 22.5046 33.4965 22.759 33.4965C23.0134 33.4965 23.2319 33.3558 23.3519 33.1555C23.4023 33.0959 23.4215 33.053 23.4215 33.053L25.4714 29.7103H31.4865C33.714 29.7103 35.519 27.8982 35.519 25.6618V16.0533C35.519 13.8192 33.7116 12.0024 31.4865 12.0024" fill="white"/>
<path d="M15.408 18.7937C15.408 18.7937 14.7095 18.7937 14.0783 19.4136V16.9316H12.5181V23.4454H14.0951V22.9352C14.0951 22.9352 14.4671 23.6099 15.408 23.6099C15.408 23.6099 17.6091 23.5265 17.6091 21.1732C17.6091 21.1732 17.5275 18.7937 15.408 18.7937ZM15.0624 22.2318C14.5079 22.2318 14.0591 21.7836 14.0591 21.2281C14.0591 20.6725 14.5079 20.2219 15.0624 20.2219C15.6169 20.2219 16.0657 20.6701 16.0657 21.2281C16.0657 21.786 15.6169 22.2318 15.0624 22.2318Z" fill="#00EB90"/>
<path d="M18.1108 16.7812V18.2905C18.1108 18.2905 18.8213 18.2595 18.8213 19.5899V23.4452H20.3287V19.2323C20.3287 19.2323 20.3935 16.7812 18.1108 16.7812Z" fill="#00EB90"/>
<path d="M24.0107 18.8174C24.0107 18.8174 21.428 18.8174 21.428 21.2302C21.428 21.2302 21.3464 23.6121 24.0107 23.6121C24.0107 23.6121 26.6511 23.6073 26.6511 21.2302C26.6511 21.2302 26.7375 18.8174 24.0107 18.8174ZM24.0107 22.2316C23.4539 22.2316 23.0074 21.7834 23.0074 21.2279C23.0074 20.6723 23.4539 20.2217 24.0107 20.2217C24.5676 20.2217 25.0141 20.6699 25.0141 21.2279C25.0141 21.7858 24.5652 22.2316 24.0107 22.2316Z" fill="#00EB90"/>
<path d="M30.9641 18.9705V19.4139C30.9641 19.4139 30.5153 18.8179 29.6512 18.8179C29.6512 18.8179 27.4429 18.7225 27.4429 21.2117C27.4429 21.2117 27.4189 23.5339 29.5912 23.5339C29.5912 23.5339 30.4769 23.5673 30.9641 22.9378V23.3026C30.9641 23.3026 31.0745 24.4471 29.968 24.4471H29.5887V25.8323H30.1984C30.1984 25.8323 32.4811 25.8562 32.4811 23.3909V18.9728H30.9617L30.9641 18.9705ZM30.0304 22.2321C29.4759 22.2321 29.0271 21.7839 29.0271 21.2283C29.0271 20.6728 29.4783 20.2222 30.0304 20.2222C30.5825 20.2222 31.0337 20.6704 31.0337 21.2283C31.0337 21.7863 30.5849 22.2321 30.0304 22.2321Z" fill="#00EB90"/>
</g>
<defs>
<clipPath id="clip0_1219_11693">
<rect width="25.5224" height="21.4925" fill="white" transform="translate(9.73877 11.7559)"/>
</clipPath>
</defs>
</svg>
