<svg width="current" height="current" viewBox="0 0 60 61" fill="none" xmlns="http://www.w3.org/2000/svg">
<g id="lightbulb_24dp_5F6368_FILL0_wght300_GRAD0_opsz24 3">
<path id="Vector" d="M3.77441 49.7327V40.3577C3.77441 39.1494 4.18379 38.1263 5.00254 37.2884C5.82129 36.45 6.814 36.0148 7.98066 35.9827H15.6875C16.4409 35.9827 17.1565 36.1671 17.8344 36.5359C18.5119 36.9046 19.064 37.419 19.4907 38.079C20.7307 39.784 22.2682 41.1109 24.1032 42.0596C25.9382 43.0084 27.9038 43.4827 30 43.4827C32.1217 43.4827 34.104 43.0084 35.9469 42.0596C37.7902 41.1109 39.3192 39.784 40.5338 38.079C41.0113 37.419 41.5825 36.9046 42.2475 36.5359C42.9125 36.1671 43.6009 35.9827 44.3125 35.9827H52.0194C53.2115 36.0148 54.2146 36.45 55.0288 37.2884C55.843 38.1263 56.25 39.1494 56.25 40.3577V49.7327H40V43.8527C38.5738 44.9427 37.013 45.7786 35.3175 46.3602C33.6217 46.9419 31.8492 47.2327 30 47.2327C28.1925 47.2327 26.4386 46.9394 24.7382 46.3527C23.0377 45.7665 21.4663 44.9284 20.0238 43.8384V49.7327H3.77441ZM30 40.0215C28.4967 40.0215 27.0727 39.6729 25.7282 38.9759C24.384 38.2788 23.2567 37.3163 22.3463 36.0884C21.7021 35.1592 20.9169 34.4004 19.9907 33.8121C19.0644 33.2242 18.0563 32.8661 16.9663 32.7377C18.0271 31.4365 19.8805 30.4261 22.5263 29.7065C25.1721 28.9869 27.6634 28.6271 30 28.6271C32.3367 28.6271 34.828 28.9869 37.4738 29.7065C40.1196 30.4261 41.9809 31.4365 43.0575 32.7377C41.9934 32.8661 40.9919 33.2242 40.0532 33.8121C39.114 34.4004 38.3223 35.1592 37.6782 36.0884C36.8094 37.3579 35.6988 38.3309 34.3463 39.0071C32.9938 39.6834 31.545 40.0215 30 40.0215ZM10.7213 32.5215C8.83046 32.5215 7.21191 31.8484 5.86566 30.5021C4.51941 29.1559 3.84629 27.5373 3.84629 25.6465C3.84629 23.7136 4.51941 22.0846 5.86566 20.7596C7.21191 19.4342 8.83046 18.7715 10.7213 18.7715C12.6538 18.7715 14.2827 19.4342 15.6082 20.7596C16.9336 22.0846 17.5963 23.7136 17.5963 25.6465C17.5963 27.5373 16.9336 29.1559 15.6082 30.5021C14.2827 31.8484 12.6538 32.5215 10.7213 32.5215ZM49.2788 32.5215C47.388 32.5215 45.7694 31.8484 44.4232 30.5021C43.0769 29.1559 42.4038 27.5373 42.4038 25.6465C42.4038 23.7136 43.0769 22.0846 44.4232 20.7596C45.7694 19.4342 47.388 18.7715 49.2788 18.7715C51.2113 18.7715 52.8402 19.4342 54.1657 20.7596C55.4911 22.0846 56.1538 23.7136 56.1538 25.6465C56.1538 27.5373 55.4911 29.1559 54.1657 30.5021C52.8402 31.8484 51.2113 32.5215 49.2788 32.5215ZM30 25.0215C28.1092 25.0215 26.4907 24.3484 25.1444 23.0021C23.7982 21.6559 23.125 20.0373 23.125 18.1465C23.125 16.2136 23.7982 14.5846 25.1444 13.2596C26.4907 11.9342 28.1092 11.2715 30 11.2715C31.9325 11.2715 33.5615 11.9342 34.8869 13.2596C36.2123 14.5846 36.875 16.2136 36.875 18.1465C36.875 20.0373 36.2123 21.6559 34.8869 23.0021C33.5615 24.3484 31.9325 25.0215 30 25.0215Z" fill="url(#paint0_linear_1267_11277)"/>
</g>
<defs>
<linearGradient id="paint0_linear_1267_11277" x1="13.9248" y1="12.8155" x2="35.5726" y2="54.6301" gradientUnits="userSpaceOnUse">
<stop stop-color="#00EB90"/>
<stop offset="0.475839" stop-color="#00EB90"/>
<stop offset="1" stop-color="#3F5EF4"/>
</linearGradient>
</defs>
</svg>
