<svg width="current" height="current" viewBox="0 0 60 61" fill="none" xmlns="http://www.w3.org/2000/svg">
<g id="lightbulb_24dp_5F6368_FILL0_wght300_GRAD0_opsz24 3">
<path id="Vector" d="M17.5 54.1945C16.2371 54.1945 15.1481 53.757 14.2331 52.882C13.3181 52.007 12.8206 50.938 12.7406 49.6751H22.2594C22.1794 50.938 21.6819 52.007 20.7669 52.882C19.8519 53.757 18.7629 54.1945 17.5 54.1945ZM8.125 46.2132V42.4632H26.875V46.2132H8.125ZM8.50937 39.002C5.89104 37.3736 3.81833 35.2461 2.29125 32.6195C0.76375 29.9932 0 27.1207 0 24.002C0 19.1303 1.69875 14.9957 5.09625 11.5982C8.49375 8.2007 12.6283 6.50195 17.5 6.50195C22.3717 6.50195 26.5063 8.2007 29.9038 11.5982C33.3013 14.9957 35 19.1303 35 24.002C35 27.1207 34.2363 29.9932 32.7088 32.6195C31.1817 35.2461 29.109 37.3736 26.4906 39.002H8.50937ZM9.625 35.252H25.375C27.25 33.9186 28.6979 32.2728 29.7188 30.3145C30.7396 28.3561 31.25 26.252 31.25 24.002C31.25 20.1686 29.9167 16.9186 27.25 14.252C24.5833 11.5853 21.3333 10.252 17.5 10.252C13.6667 10.252 10.4167 11.5853 7.75 14.252C5.08333 16.9186 3.75 20.1686 3.75 24.002C3.75 26.252 4.26042 28.3561 5.28125 30.3145C6.30208 32.2728 7.75 33.9186 9.625 35.252Z" fill="url(#paint0_linear_1267_11270)"/>
</g>
<defs>
<linearGradient id="paint0_linear_1267_11270" x1="6.77007" y1="8.41662" x2="39.62" y2="42.5463" gradientUnits="userSpaceOnUse">
<stop stop-color="#00EB90"/>
<stop offset="0.475839" stop-color="#00EB90"/>
<stop offset="1" stop-color="#3F5EF4"/>
</linearGradient>
</defs>
</svg>
