<svg width="80" height="32" viewBox="0 0 80 32" fill="none" xmlns="http://www.w3.org/2000/svg">
<rect width="80" height="32" rx="8" fill="#EBFFF7"/>
<path d="M13.3343 10.666H24.001C24.7374 10.666 25.3343 11.263 25.3343 11.9993V18.666C25.3343 19.4024 24.7374 19.9993 24.001 19.9993H18.6676L15.3343 23.3327V19.9993H13.3343C12.5979 19.9993 12.001 19.4024 12.001 18.666V11.9993C12.001 11.263 12.5979 10.666 13.3343 10.666Z" fill="#00EB90"/>
<path fill-rule="evenodd" clip-rule="evenodd" d="M18.1885 13.7365V13.2456C18.1885 13.11 18.2984 13 18.4341 13H19.1709C19.3066 13 19.4165 13.11 19.4165 13.2456V13.7365V13.9825V14.2287V14.4733V14.7183H19.417H19.6633H19.9079H20.1541H20.4001H20.891C21.0266 14.7183 21.1366 14.8283 21.1366 14.9639V15.7008C21.1366 15.8364 21.0266 15.9464 20.891 15.9464H20.4001H20.1541H19.9079H19.6633H19.417H19.4165V16.071V16.1935V16.4382V16.6844V16.9304V17.4213C19.4165 17.5569 19.3066 17.6669 19.1709 17.6669H18.4341C18.2984 17.6669 18.1885 17.5569 18.1885 17.4213V16.9304V16.6844V16.4382V16.1935V16.071V15.9464H18.0656H17.9431H17.6984H17.4522H17.2062H16.7153C16.5797 15.9464 16.4697 15.8364 16.4697 15.7008V14.9639C16.4697 14.8283 16.5797 14.7183 16.7153 14.7183H17.2062H17.4522H17.6984H17.9431H18.0656H18.1885V14.4733V14.2287V13.9825V13.7365Z" fill="#00EB90"/>
<path d="M36.3646 20.1458C34.1042 20.1458 32.401 18.4583 32.4063 16.2292C32.401 14 34.099 12.3125 36.3542 12.3125C37.6458 12.3125 38.7135 12.875 39.3854 13.7396L38.1771 14.6458C37.7031 14.0365 37.1042 13.7708 36.3542 13.7708C34.9427 13.7708 33.9531 14.7865 33.9583 16.2292C33.9531 17.6719 34.9479 18.6875 36.3646 18.6875C37.4427 18.6875 38.1927 18.099 38.3958 17.1667H36.5104V15.8854H39.8958C39.9427 16.1406 39.9688 16.3958 39.9688 16.6458C39.9688 18.724 38.4479 20.1458 36.3646 20.1458ZM41.0104 20V14.625H42.4896V20H41.0104ZM41.75 13.8333C41.2448 13.8333 40.8646 13.4635 40.875 12.9687C40.8646 12.474 41.2448 12.1042 41.75 12.1042C42.2448 12.1042 42.625 12.474 42.6354 12.9687C42.625 13.4635 42.2448 13.8333 41.75 13.8333ZM43.4479 15.7812V14.625H44.3438V13.2917H45.8229V14.625H47.0729V15.7812H45.8229V18C45.8177 18.5208 46.026 18.7396 46.5208 18.7396C46.6875 18.7396 46.8698 18.7135 47.0729 18.6562V20C46.8281 20.0885 46.5417 20.1458 46.2188 20.1458C45.0104 20.1458 44.3385 19.4062 44.3438 18.0833V15.7812H43.4479ZM48.1146 20V12.4583H49.5938V15.4167H49.6354C49.9219 14.8385 50.5208 14.4792 51.2917 14.4792C52.5 14.4792 53.2135 15.3698 53.2188 16.8125V20H51.7396V17.0625C51.7344 16.2812 51.3646 15.8333 50.7396 15.8333C50.1094 15.8333 49.599 16.2708 49.5938 17.2812V20H48.1146ZM59.5729 14.625V20H58.0938V19.2083H58.0625C57.7656 19.7865 57.1719 20.1458 56.4063 20.1458C55.1875 20.1458 54.474 19.2552 54.4792 17.8125V14.625H55.9583V17.5625C55.9531 18.3437 56.3229 18.7917 56.9583 18.7917C57.5365 18.7917 58.0156 18.4115 58.0938 17.5417V14.625H59.5729ZM60.8438 20V12.4583H62.3229V15.3542H62.3646C62.7031 14.7656 63.2448 14.4792 63.9583 14.4792C65.4219 14.4792 66.4635 15.6979 66.4688 17.3125C66.4635 18.9271 65.4219 20.1458 63.9583 20.1458C63.2448 20.1458 62.6979 19.8542 62.3646 19.2604H62.3229V20H60.8438ZM63.6354 18.7917C64.4167 18.7917 64.974 18.1771 64.9792 17.3125C64.974 16.4479 64.4167 15.8333 63.6354 15.8333C62.8385 15.8333 62.276 16.4427 62.2813 17.3125C62.276 18.1823 62.8385 18.7917 63.6354 18.7917Z" fill="#00EB90"/>
</svg>
