<svg width="45" height="45" viewBox="0 0 45 45" fill="none" xmlns="http://www.w3.org/2000/svg">
<rect y="0.00195312" width="45" height="45" rx="22.5" fill="#00EB90"/>
<path d="M22.5002 18.7104C21.4946 18.7104 20.5301 19.1099 19.8191 19.821C19.108 20.5321 18.7085 21.4965 18.7085 22.5021C18.7085 23.5077 19.108 24.4722 19.8191 25.1832C20.5301 25.8943 21.4946 26.2938 22.5002 26.2938C23.5058 26.2938 24.4702 25.8943 25.1813 25.1832C25.8924 24.4722 26.2918 23.5077 26.2918 22.5021C26.2918 21.4965 25.8924 20.5321 25.1813 19.821C24.4702 19.1099 23.5058 18.7104 22.5002 18.7104Z" fill="white"/>
<path fill-rule="evenodd" clip-rule="evenodd" d="M16.3982 12.0977C20.4536 11.6484 24.5462 11.6484 28.6016 12.0977C30.8171 12.345 32.6032 14.0892 32.8634 16.3128C33.344 20.425 33.344 24.5791 32.8634 28.6912C32.6032 30.9148 30.8171 32.659 28.6027 32.9075C24.547 33.3568 20.454 33.3568 16.3982 32.9075C14.1827 32.659 12.3966 30.9148 12.1364 28.6923C11.6557 24.5798 11.6557 20.4253 12.1364 16.3128C12.3966 14.0892 14.1827 12.345 16.3982 12.0977ZM28.3332 15.502C28.0238 15.502 27.7271 15.6249 27.5083 15.8437C27.2895 16.0625 27.1666 16.3593 27.1666 16.6687C27.1666 16.9781 27.2895 17.2748 27.5083 17.4936C27.7271 17.7124 28.0238 17.8353 28.3332 17.8353C28.6426 17.8353 28.9394 17.7124 29.1582 17.4936C29.377 17.2748 29.4999 16.9781 29.4999 16.6687C29.4999 16.3593 29.377 16.0625 29.1582 15.8437C28.9394 15.6249 28.6426 15.502 28.3332 15.502ZM16.9582 22.502C16.9582 21.0323 17.5421 19.6227 18.5813 18.5835C19.6206 17.5442 21.0302 16.9603 22.4999 16.9603C23.9696 16.9603 25.3792 17.5442 26.4184 18.5835C27.4577 19.6227 28.0416 21.0323 28.0416 22.502C28.0416 23.9718 27.4577 25.3813 26.4184 26.4206C25.3792 27.4598 23.9696 28.0437 22.4999 28.0437C21.0302 28.0437 19.6206 27.4598 18.5813 26.4206C17.5421 25.3813 16.9582 23.9718 16.9582 22.502Z" fill="white"/>
</svg>
