<svg width="current" height="current" viewBox="0 0 60 61" fill="none" xmlns="http://www.w3.org/2000/svg">
<g id="lightbulb_24dp_5F6368_FILL0_wght300_GRAD0_opsz24 3">
<path id="Vector" d="M28.7541 51.752C25.642 51.752 22.7168 51.1614 19.9786 49.9804C17.2403 48.7993 14.8584 47.1965 12.833 45.1719C10.8076 43.1473 9.20401 40.7664 8.02217 38.0293C6.84072 35.2922 6.25 32.3678 6.25 29.2561C6.25 26.144 6.84053 23.2188 8.02158 20.4805C9.20263 17.7422 10.8055 15.3604 12.8301 13.335C14.8547 11.3096 17.2355 9.70597 19.9726 8.52412C22.7097 7.34268 25.6341 6.75195 28.7459 6.75195C31.858 6.75195 34.7832 7.34248 37.5214 8.52353C40.2597 9.70458 42.6416 11.3074 44.667 13.332C46.6924 15.3566 48.296 17.7375 49.4778 20.4746C50.6593 23.2117 51.25 26.1361 51.25 29.2478C51.25 32.3599 50.6595 35.2851 49.4784 38.0234C48.2974 40.7617 46.6945 43.1435 44.6699 45.1689C42.6453 47.1943 40.2645 48.7979 37.5274 49.9798C34.7903 51.1612 31.8659 51.752 28.7541 51.752ZM26.3816 48.0809V43.4625C25.0789 43.4625 23.9638 42.9987 23.0362 42.071C22.1086 41.1434 21.6447 40.0283 21.6447 38.7256V36.3572L10.2763 24.9888C10.1579 25.6993 10.0493 26.4098 9.95066 27.1204C9.85197 27.8309 9.80263 28.5414 9.80263 29.252C9.80263 34.0283 11.3717 38.2125 14.5099 41.8046C17.648 45.3967 21.6053 47.4888 26.3816 48.0809ZM42.7237 42.0414C43.5132 41.173 44.2237 40.2355 44.8553 39.2289C45.4868 38.2223 46.0099 37.1763 46.4243 36.0908C46.8388 35.0052 47.1546 33.8901 47.3717 32.7454C47.5888 31.6006 47.6974 30.4362 47.6974 29.252C47.6974 25.3721 46.6255 21.8287 44.4816 18.6219C42.3378 15.415 39.4624 13.1011 35.8553 11.68V12.673C35.8553 13.9756 35.3914 15.0908 34.4638 16.0184C33.5362 16.946 32.4211 17.4098 31.1184 17.4098H26.3816V22.1467C26.3816 22.8177 26.1546 23.3802 25.7007 23.8342C25.2467 24.2881 24.6842 24.5151 24.0132 24.5151H19.2763V29.252H33.4868C34.1579 29.252 34.7204 29.4789 35.1743 29.9329C35.6283 30.3868 35.8553 30.9493 35.8553 31.6204V38.7256H38.2237C39.25 38.7256 40.1776 39.0316 41.0066 39.6434C41.8355 40.2552 42.4079 41.0546 42.7237 42.0414Z" fill="url(#paint0_linear_1267_11256)"/>
</g>
<defs>
<linearGradient id="paint0_linear_1267_11256" x1="14.9544" y1="8.55852" x2="44.188" y2="49.9454" gradientUnits="userSpaceOnUse">
<stop stop-color="#00EB90"/>
<stop offset="0.475839" stop-color="#00EB90"/>
<stop offset="1" stop-color="#3F5EF4"/>
</linearGradient>
</defs>
</svg>
