<svg width="576" height="346" viewBox="0 0 576 346" fill="none" xmlns="http://www.w3.org/2000/svg">
<rect x="352.5" y="4.22461" width="108" height="59" rx="29.5" stroke="#CACACA"/>
<path d="M377.195 40.959C376.434 40.959 375.74 40.8353 375.115 40.5879C374.497 40.334 373.982 39.9531 373.572 39.4453C373.162 38.931 372.889 38.2799 372.752 37.4922L374.471 37.1602C374.542 37.987 374.822 38.6022 375.311 39.0059C375.805 39.4095 376.424 39.6113 377.166 39.6113C377.902 39.6113 378.488 39.4258 378.924 39.0547C379.36 38.6836 379.578 38.2311 379.578 37.6973C379.578 37.2415 379.422 36.8802 379.109 36.6133C378.803 36.3464 378.357 36.1576 377.771 36.0469L376.492 35.8027C376.147 35.7376 375.789 35.6465 375.418 35.5293C375.047 35.4121 374.699 35.2493 374.373 35.041C374.054 34.8327 373.794 34.5592 373.592 34.2207C373.396 33.8822 373.299 33.4557 373.299 32.9414C373.299 32.2513 373.478 31.6882 373.836 31.252C374.201 30.8092 374.679 30.4805 375.271 30.2656C375.87 30.0508 376.515 29.9434 377.205 29.9434C377.96 29.9434 378.618 30.0605 379.178 30.2949C379.738 30.5293 380.193 30.8646 380.545 31.3008C380.896 31.737 381.131 32.2643 381.248 32.8828L379.441 33.2441C379.396 32.847 379.288 32.502 379.119 32.209C378.956 31.916 378.715 31.6914 378.396 31.5352C378.084 31.3724 377.677 31.291 377.176 31.291C376.57 31.291 376.049 31.418 375.613 31.6719C375.177 31.9258 374.959 32.3099 374.959 32.8242C374.959 33.1107 375.031 33.3548 375.174 33.5566C375.324 33.7585 375.545 33.9277 375.838 34.0645C376.137 34.1947 376.512 34.3086 376.961 34.4062L378.26 34.6797C378.807 34.7904 379.311 34.9564 379.773 35.1777C380.236 35.3926 380.607 35.6921 380.887 36.0762C381.167 36.4603 381.307 36.9681 381.307 37.5996C381.307 38.2962 381.131 38.8984 380.779 39.4062C380.434 39.9076 379.952 40.2917 379.334 40.5586C378.722 40.8255 378.009 40.959 377.195 40.959ZM383.816 40.7246V26.0762H385.457V32.6582L385.291 32.2285C385.564 31.571 386.004 31.0273 386.609 30.5977C387.221 30.1615 387.967 29.9434 388.846 29.9434C389.588 29.9434 390.226 30.1094 390.76 30.4414C391.3 30.7734 391.717 31.2487 392.01 31.8672C392.303 32.4792 392.449 33.2181 392.449 34.084V40.7246H390.809V34.2109C390.809 33.319 390.639 32.6126 390.301 32.0918C389.969 31.571 389.376 31.3105 388.523 31.3105C387.612 31.3105 386.873 31.6361 386.307 32.2871C385.74 32.9316 385.457 33.9049 385.457 35.207V40.7246H383.816ZM398.191 40.959C397.488 40.959 396.876 40.8255 396.355 40.5586C395.841 40.2852 395.444 39.9141 395.164 39.4453C394.884 38.9766 394.744 38.446 394.744 37.8535C394.744 37.222 394.93 36.6393 395.301 36.1055C395.672 35.5716 396.245 35.1452 397.02 34.8262C397.801 34.5007 398.8 34.3379 400.018 34.3379H401.775L401.6 34.5137V33.9375C401.6 33.0911 401.43 32.4434 401.092 31.9941C400.753 31.5384 400.187 31.3105 399.393 31.3105C398.644 31.3105 398.068 31.5059 397.664 31.8965C397.26 32.2806 397.046 32.7982 397.02 33.4492L395.174 33.0293C395.232 32.4629 395.447 31.9486 395.818 31.4863C396.196 31.0176 396.697 30.6432 397.322 30.3633C397.954 30.0833 398.683 29.9434 399.51 29.9434C400.363 29.9434 401.056 30.1061 401.59 30.4316C402.13 30.7507 402.527 31.2129 402.781 31.8184C403.035 32.4238 403.162 33.153 403.162 34.0059V38.8203C403.162 39.0352 403.191 39.1784 403.25 39.25C403.315 39.3216 403.449 39.3574 403.65 39.3574H404.246V40.7246H403.201C402.758 40.7246 402.387 40.5879 402.088 40.3145C401.788 40.0345 401.639 39.6829 401.639 39.2598V38.5176H401.883C401.779 38.791 401.629 39.071 401.434 39.3574C401.238 39.6374 400.991 39.901 400.691 40.1484C400.392 40.3893 400.034 40.5846 399.617 40.7344C399.207 40.8841 398.732 40.959 398.191 40.959ZM398.562 39.5918C399.103 39.5918 399.604 39.4583 400.066 39.1914C400.529 38.9245 400.9 38.5078 401.18 37.9414C401.466 37.3685 401.609 36.6263 401.609 35.7148V35.627H399.959C399.093 35.627 398.41 35.7409 397.908 35.9688C397.413 36.1966 397.062 36.4798 396.854 36.8184C396.645 37.1504 396.541 37.4824 396.541 37.8145C396.541 38.1465 396.616 38.446 396.766 38.7129C396.915 38.9798 397.14 39.1947 397.439 39.3574C397.739 39.5137 398.113 39.5918 398.562 39.5918ZM406.521 40.7246V30.1777H408.064V32.4141L408.006 32.1602C408.318 31.431 408.787 30.8809 409.412 30.5098C410.044 30.1322 410.682 29.9434 411.326 29.9434C411.515 29.9434 411.697 29.9596 411.873 29.9922C412.055 30.0247 412.225 30.0801 412.381 30.1582L412.166 31.7012C411.808 31.5905 411.453 31.5352 411.102 31.5352C410.88 31.5352 410.604 31.5807 410.271 31.6719C409.946 31.7565 409.62 31.9323 409.295 32.1992C408.976 32.4596 408.706 32.8503 408.484 33.3711C408.27 33.8919 408.162 34.5853 408.162 35.4512V40.7246H406.521ZM414.363 40.7246V30.1777H416.004V40.7246H414.363ZM415.184 28.4102C414.806 28.4102 414.484 28.2767 414.217 28.0098C413.95 27.7428 413.816 27.4206 413.816 27.043C413.816 26.6589 413.95 26.3366 414.217 26.0762C414.484 25.8092 414.806 25.6758 415.184 25.6758C415.568 25.6758 415.89 25.8092 416.15 26.0762C416.417 26.3366 416.551 26.6589 416.551 27.043C416.551 27.4206 416.417 27.7428 416.15 28.0098C415.89 28.2767 415.568 28.4102 415.184 28.4102ZM419.197 40.7246V30.1777H420.74V32.5605L420.672 32.1309C420.952 31.5254 421.395 31.0111 422 30.5879C422.605 30.1582 423.341 29.9434 424.207 29.9434C424.956 29.9434 425.6 30.1094 426.141 30.4414C426.681 30.7734 427.098 31.2487 427.391 31.8672C427.684 32.4792 427.83 33.2181 427.83 34.084V40.7246H426.189V34.2109C426.189 33.3451 426.01 32.6452 425.652 32.1113C425.301 31.5775 424.718 31.3105 423.904 31.3105C423.025 31.3105 422.293 31.6458 421.707 32.3164C421.128 32.9805 420.838 33.944 420.838 35.207V40.7246H419.197ZM434.725 44.7676C433.156 44.7676 432 44.5462 431.258 44.1035C430.516 43.6673 430.145 42.9902 430.145 42.0723C430.145 41.5514 430.278 41.0859 430.545 40.6758C430.812 40.2656 431.274 39.9499 431.932 39.7285C431.684 39.5788 431.482 39.3802 431.326 39.1328C431.17 38.8854 431.092 38.6087 431.092 38.3027C431.092 37.9382 431.206 37.6126 431.434 37.3262C431.661 37.0332 431.987 36.8249 432.41 36.7012C431.889 36.3952 431.482 35.9818 431.189 35.4609C430.903 34.9336 430.76 34.3216 430.76 33.625C430.76 32.8698 430.926 32.2188 431.258 31.6719C431.596 31.1185 432.075 30.6921 432.693 30.3926C433.318 30.0931 434.061 29.9434 434.92 29.9434C435.779 29.9434 436.521 30.0931 437.146 30.3926C437.778 30.6921 438.263 31.1185 438.602 31.6719C438.947 32.2253 439.119 32.8828 439.119 33.6445C439.119 34.3932 438.947 35.041 438.602 35.5879C438.263 36.1283 437.778 36.5482 437.146 36.8477C436.515 37.1406 435.763 37.2871 434.891 37.2871H433.982C433.162 37.2871 432.752 37.5312 432.752 38.0195C432.752 38.4818 433.149 38.7129 433.943 38.7129H436.053C436.886 38.7129 437.557 38.8105 438.064 39.0059C438.579 39.1947 438.969 39.4421 439.236 39.748C439.51 40.0475 439.695 40.373 439.793 40.7246C439.891 41.0762 439.939 41.4115 439.939 41.7305C439.939 42.7656 439.565 43.5306 438.816 44.0254C438.068 44.5202 436.906 44.7676 435.33 44.7676H434.725ZM434.725 43.459H435.33C437.27 43.459 438.24 42.8796 438.24 41.7207C438.24 41.2389 438.064 40.8451 437.713 40.5391C437.368 40.2331 436.775 40.0801 435.936 40.0801H434.119C433.468 40.0801 432.924 40.2135 432.488 40.4805C432.052 40.7409 431.834 41.1706 431.834 41.7695C431.834 42.3424 432.068 42.7656 432.537 43.0391C433.012 43.319 433.742 43.459 434.725 43.459ZM434.92 36.1348C435.747 36.1348 436.382 35.9232 436.824 35.5C437.267 35.0703 437.488 34.4518 437.488 33.6445C437.488 32.8438 437.267 32.222 436.824 31.7793C436.382 31.3366 435.747 31.1152 434.92 31.1152C434.1 31.1152 433.471 31.3366 433.035 31.7793C432.599 32.2155 432.381 32.8372 432.381 33.6445C432.381 34.4518 432.599 35.0703 433.035 35.5C433.471 35.9232 434.1 36.1348 434.92 36.1348ZM436.658 31.0469V30.002C436.658 29.5788 436.814 29.2305 437.127 28.957C437.439 28.6771 437.804 28.5371 438.221 28.5371H439.49V29.9043H438.445C438.243 29.9043 438.11 29.9401 438.045 30.0117C437.986 30.0833 437.957 30.2266 437.957 30.4414V31.0469H436.658Z" fill="#CACACA"/>
<rect x="138.5" y="270.225" width="135" height="59" rx="29.5" stroke="#CACACA"/>
<path d="M163.801 306.959C162.811 306.959 161.955 306.734 161.232 306.285C160.51 305.836 159.953 305.201 159.562 304.381C159.172 303.554 158.977 302.577 158.977 301.451C158.977 300.325 159.172 299.352 159.562 298.531C159.953 297.704 160.51 297.066 161.232 296.617C161.955 296.168 162.811 295.943 163.801 295.943C164.556 295.943 165.23 296.083 165.822 296.363C166.421 296.637 166.926 297.034 167.336 297.555C167.753 298.069 168.059 298.691 168.254 299.42L166.584 299.859C166.402 299.039 166.073 298.411 165.598 297.975C165.129 297.532 164.53 297.311 163.801 297.311C162.831 297.311 162.082 297.672 161.555 298.395C161.034 299.111 160.773 300.13 160.773 301.451C160.773 302.779 161.034 303.801 161.555 304.518C162.082 305.234 162.831 305.592 163.801 305.592C164.523 305.592 165.119 305.38 165.588 304.957C166.057 304.527 166.385 303.909 166.574 303.102L168.234 303.57C168.078 304.104 167.863 304.579 167.59 304.996C167.316 305.413 166.991 305.768 166.613 306.061C166.242 306.354 165.819 306.575 165.344 306.725C164.875 306.881 164.361 306.959 163.801 306.959ZM175.002 306.959C174.012 306.959 173.14 306.728 172.385 306.266C171.63 305.797 171.04 305.149 170.617 304.322C170.194 303.495 169.982 302.538 169.982 301.451C169.982 300.364 170.194 299.407 170.617 298.58C171.04 297.753 171.63 297.109 172.385 296.646C173.14 296.178 174.012 295.943 175.002 295.943C175.992 295.943 176.864 296.178 177.619 296.646C178.374 297.109 178.964 297.753 179.387 298.58C179.81 299.407 180.021 300.364 180.021 301.451C180.021 302.538 179.81 303.495 179.387 304.322C178.964 305.149 178.374 305.797 177.619 306.266C176.864 306.728 175.992 306.959 175.002 306.959ZM175.002 305.592C175.998 305.592 176.783 305.221 177.355 304.479C177.935 303.736 178.225 302.727 178.225 301.451C178.225 300.169 177.935 299.16 177.355 298.424C176.783 297.682 175.998 297.311 175.002 297.311C174.006 297.311 173.218 297.682 172.639 298.424C172.066 299.16 171.779 300.169 171.779 301.451C171.779 302.727 172.066 303.736 172.639 304.479C173.218 305.221 174.006 305.592 175.002 305.592ZM182.463 306.725V296.178H184.006V298.561L183.938 298.131C184.217 297.525 184.66 297.011 185.266 296.588C185.871 296.158 186.607 295.943 187.473 295.943C188.221 295.943 188.866 296.109 189.406 296.441C189.947 296.773 190.363 297.249 190.656 297.867C190.949 298.479 191.096 299.218 191.096 300.084V306.725H189.455V300.211C189.455 299.345 189.276 298.645 188.918 298.111C188.566 297.577 187.984 297.311 187.17 297.311C186.291 297.311 185.559 297.646 184.973 298.316C184.393 298.98 184.104 299.944 184.104 301.207V306.725H182.463ZM196.066 306.725C195.65 306.725 195.285 306.588 194.973 306.314C194.66 306.035 194.504 305.683 194.504 305.26V297.545H192.805V296.178H194.504V293.971L196.145 293.619V296.178H198.234V297.545H196.145V304.82C196.145 305.035 196.174 305.178 196.232 305.25C196.298 305.322 196.431 305.357 196.633 305.357H198.244V306.725H196.066ZM200.607 306.725V296.178H202.15V298.414L202.092 298.16C202.404 297.431 202.873 296.881 203.498 296.51C204.13 296.132 204.768 295.943 205.412 295.943C205.601 295.943 205.783 295.96 205.959 295.992C206.141 296.025 206.311 296.08 206.467 296.158L206.252 297.701C205.894 297.59 205.539 297.535 205.188 297.535C204.966 297.535 204.689 297.581 204.357 297.672C204.032 297.757 203.706 297.932 203.381 298.199C203.062 298.46 202.792 298.85 202.57 299.371C202.355 299.892 202.248 300.585 202.248 301.451V306.725H200.607ZM208.449 306.725V296.178H210.09V306.725H208.449ZM209.27 294.41C208.892 294.41 208.57 294.277 208.303 294.01C208.036 293.743 207.902 293.421 207.902 293.043C207.902 292.659 208.036 292.337 208.303 292.076C208.57 291.809 208.892 291.676 209.27 291.676C209.654 291.676 209.976 291.809 210.236 292.076C210.503 292.337 210.637 292.659 210.637 293.043C210.637 293.421 210.503 293.743 210.236 294.01C209.976 294.277 209.654 294.41 209.27 294.41ZM218.322 306.959C217.632 306.959 216.949 306.786 216.271 306.441C215.594 306.096 215.083 305.514 214.738 304.693L214.826 304.615V306.725H213.283V292.076H214.924V298.375L214.777 298.219C215.064 297.451 215.539 296.881 216.203 296.51C216.867 296.132 217.574 295.943 218.322 295.943C219.182 295.943 219.937 296.168 220.588 296.617C221.239 297.066 221.747 297.704 222.111 298.531C222.476 299.358 222.658 300.335 222.658 301.461C222.658 302.587 222.473 303.564 222.102 304.391C221.737 305.211 221.229 305.846 220.578 306.295C219.927 306.738 219.175 306.959 218.322 306.959ZM217.873 305.592C218.745 305.592 219.462 305.234 220.021 304.518C220.581 303.795 220.861 302.763 220.861 301.422C220.861 300.12 220.591 299.111 220.051 298.395C219.51 297.672 218.791 297.311 217.893 297.311C217.346 297.311 216.841 297.454 216.379 297.74C215.923 298.027 215.559 298.473 215.285 299.078C215.012 299.684 214.875 300.465 214.875 301.422C214.875 302.835 215.168 303.883 215.754 304.566C216.34 305.25 217.046 305.592 217.873 305.592ZM228.684 306.959C227.948 306.959 227.31 306.793 226.77 306.461C226.229 306.129 225.812 305.654 225.52 305.035C225.227 304.417 225.08 303.678 225.08 302.818V296.178H226.721V302.691C226.721 303.551 226.883 304.251 227.209 304.791C227.535 305.325 228.12 305.592 228.967 305.592C229.598 305.592 230.145 305.429 230.607 305.104C231.07 304.778 231.428 304.29 231.682 303.639C231.942 302.988 232.072 302.174 232.072 301.197V296.178H233.713V306.725H232.17V304.244L232.238 304.674C231.965 305.325 231.522 305.868 230.91 306.305C230.305 306.741 229.562 306.959 228.684 306.959ZM239.25 306.725C238.833 306.725 238.469 306.588 238.156 306.314C237.844 306.035 237.688 305.683 237.688 305.26V297.545H235.988V296.178H237.688V293.971L239.328 293.619V296.178H241.418V297.545H239.328V304.82C239.328 305.035 239.357 305.178 239.416 305.25C239.481 305.322 239.615 305.357 239.816 305.357H241.428V306.725H239.25ZM247.658 306.959C246.656 306.959 245.786 306.734 245.051 306.285C244.322 305.836 243.758 305.201 243.361 304.381C242.964 303.554 242.766 302.581 242.766 301.461C242.766 300.335 242.964 299.358 243.361 298.531C243.758 297.704 244.318 297.066 245.041 296.617C245.764 296.168 246.613 295.943 247.59 295.943C248.15 295.943 248.71 296.035 249.27 296.217C249.836 296.393 250.35 296.702 250.812 297.145C251.281 297.581 251.656 298.183 251.936 298.951C252.222 299.713 252.365 300.676 252.365 301.842H243.82V300.514H250.939L250.471 301.129C250.438 300.204 250.288 299.462 250.021 298.902C249.755 298.342 249.406 297.939 248.977 297.691C248.553 297.438 248.081 297.311 247.561 297.311C246.942 297.311 246.408 297.473 245.959 297.799C245.51 298.118 245.165 298.587 244.924 299.205C244.683 299.824 244.562 300.579 244.562 301.471C244.562 302.786 244.829 303.801 245.363 304.518C245.904 305.234 246.669 305.592 247.658 305.592C248.368 305.592 248.964 305.413 249.445 305.055C249.934 304.697 250.292 304.179 250.52 303.502L252.131 304.049C251.877 304.661 251.538 305.185 251.115 305.621C250.692 306.051 250.188 306.383 249.602 306.617C249.022 306.845 248.374 306.959 247.658 306.959Z" fill="#CACACA"/>
<rect x="339.5" y="286.225" width="160" height="59" rx="29.5" stroke="#CACACA"/>
<path d="M364.156 322.959C363.303 322.959 362.548 322.734 361.891 322.285C361.24 321.836 360.732 321.198 360.367 320.371C360.003 319.544 359.82 318.568 359.82 317.441C359.82 316.315 360.003 315.342 360.367 314.521C360.738 313.695 361.249 313.06 361.9 312.617C362.551 312.168 363.303 311.943 364.156 311.943C364.846 311.943 365.53 312.116 366.207 312.461C366.884 312.806 367.395 313.389 367.74 314.209L367.555 314.287V308.076H369.195V322.725H367.652V320.527L367.701 320.684C367.415 321.452 366.939 322.025 366.275 322.402C365.611 322.773 364.905 322.959 364.156 322.959ZM364.586 321.592C365.139 321.592 365.644 321.449 366.1 321.162C366.555 320.876 366.92 320.43 367.193 319.824C367.467 319.212 367.604 318.431 367.604 317.48C367.604 316.061 367.311 315.013 366.725 314.336C366.139 313.652 365.432 313.311 364.605 313.311C363.733 313.311 363.017 313.672 362.457 314.395C361.897 315.111 361.617 316.139 361.617 317.48C361.617 318.783 361.887 319.795 362.428 320.518C362.968 321.234 363.688 321.592 364.586 321.592ZM376.607 322.959C375.605 322.959 374.736 322.734 374 322.285C373.271 321.836 372.708 321.201 372.311 320.381C371.913 319.554 371.715 318.581 371.715 317.461C371.715 316.335 371.913 315.358 372.311 314.531C372.708 313.704 373.268 313.066 373.99 312.617C374.713 312.168 375.562 311.943 376.539 311.943C377.099 311.943 377.659 312.035 378.219 312.217C378.785 312.393 379.299 312.702 379.762 313.145C380.23 313.581 380.605 314.183 380.885 314.951C381.171 315.713 381.314 316.676 381.314 317.842H372.77V316.514H379.889L379.42 317.129C379.387 316.204 379.238 315.462 378.971 314.902C378.704 314.342 378.355 313.939 377.926 313.691C377.503 313.438 377.031 313.311 376.51 313.311C375.891 313.311 375.357 313.473 374.908 313.799C374.459 314.118 374.114 314.587 373.873 315.205C373.632 315.824 373.512 316.579 373.512 317.471C373.512 318.786 373.779 319.801 374.312 320.518C374.853 321.234 375.618 321.592 376.607 321.592C377.317 321.592 377.913 321.413 378.395 321.055C378.883 320.697 379.241 320.179 379.469 319.502L381.08 320.049C380.826 320.661 380.488 321.185 380.064 321.621C379.641 322.051 379.137 322.383 378.551 322.617C377.971 322.845 377.324 322.959 376.607 322.959ZM386.412 322.725L382.447 312.178H384.264L387.613 321.797H387.301L390.631 312.178H392.447L388.502 322.725H386.412ZM398.502 322.959C397.499 322.959 396.63 322.734 395.895 322.285C395.165 321.836 394.602 321.201 394.205 320.381C393.808 319.554 393.609 318.581 393.609 317.461C393.609 316.335 393.808 315.358 394.205 314.531C394.602 313.704 395.162 313.066 395.885 312.617C396.607 312.168 397.457 311.943 398.434 311.943C398.993 311.943 399.553 312.035 400.113 312.217C400.68 312.393 401.194 312.702 401.656 313.145C402.125 313.581 402.499 314.183 402.779 314.951C403.066 315.713 403.209 316.676 403.209 317.842H394.664V316.514H401.783L401.314 317.129C401.282 316.204 401.132 315.462 400.865 314.902C400.598 314.342 400.25 313.939 399.82 313.691C399.397 313.438 398.925 313.311 398.404 313.311C397.786 313.311 397.252 313.473 396.803 313.799C396.354 314.118 396.008 314.587 395.768 315.205C395.527 315.824 395.406 316.579 395.406 317.471C395.406 318.786 395.673 319.801 396.207 320.518C396.747 321.234 397.512 321.592 398.502 321.592C399.212 321.592 399.807 321.413 400.289 321.055C400.777 320.697 401.135 320.179 401.363 319.502L402.975 320.049C402.721 320.661 402.382 321.185 401.959 321.621C401.536 322.051 401.031 322.383 400.445 322.617C399.866 322.845 399.218 322.959 398.502 322.959ZM407.232 322.725C406.816 322.725 406.451 322.588 406.139 322.314C405.826 322.035 405.67 321.683 405.67 321.26V308.076H407.311V320.82C407.311 321.035 407.34 321.178 407.398 321.25C407.464 321.322 407.597 321.357 407.799 321.357H408.824V322.725H407.232ZM415.182 322.959C414.192 322.959 413.32 322.728 412.564 322.266C411.809 321.797 411.22 321.149 410.797 320.322C410.374 319.495 410.162 318.538 410.162 317.451C410.162 316.364 410.374 315.407 410.797 314.58C411.22 313.753 411.809 313.109 412.564 312.646C413.32 312.178 414.192 311.943 415.182 311.943C416.171 311.943 417.044 312.178 417.799 312.646C418.554 313.109 419.143 313.753 419.566 314.58C419.99 315.407 420.201 316.364 420.201 317.451C420.201 318.538 419.99 319.495 419.566 320.322C419.143 321.149 418.554 321.797 417.799 322.266C417.044 322.728 416.171 322.959 415.182 322.959ZM415.182 321.592C416.178 321.592 416.962 321.221 417.535 320.479C418.115 319.736 418.404 318.727 418.404 317.451C418.404 316.169 418.115 315.16 417.535 314.424C416.962 313.682 416.178 313.311 415.182 313.311C414.186 313.311 413.398 313.682 412.818 314.424C412.245 315.16 411.959 316.169 411.959 317.451C411.959 318.727 412.245 319.736 412.818 320.479C413.398 321.221 414.186 321.592 415.182 321.592ZM422.643 326.533V312.178H424.186V314.375L424.137 314.219C424.423 313.451 424.898 312.881 425.562 312.51C426.227 312.132 426.933 311.943 427.682 311.943C428.541 311.943 429.296 312.168 429.947 312.617C430.598 313.066 431.106 313.704 431.471 314.531C431.835 315.358 432.018 316.335 432.018 317.461C432.018 318.587 431.832 319.564 431.461 320.391C431.096 321.211 430.589 321.846 429.938 322.295C429.286 322.738 428.535 322.959 427.682 322.959C426.992 322.959 426.308 322.786 425.631 322.441C424.954 322.096 424.443 321.514 424.098 320.693L424.244 320.615V326.533H422.643ZM427.232 321.592C428.105 321.592 428.821 321.234 429.381 320.518C429.941 319.795 430.221 318.763 430.221 317.422C430.221 316.12 429.951 315.111 429.41 314.395C428.87 313.672 428.15 313.311 427.252 313.311C426.705 313.311 426.201 313.454 425.738 313.74C425.283 314.027 424.918 314.473 424.645 315.078C424.371 315.684 424.234 316.465 424.234 317.422C424.234 318.835 424.527 319.883 425.113 320.566C425.699 321.25 426.406 321.592 427.232 321.592ZM434.459 322.725V312.178H436.002V313.984C436.249 313.438 436.66 312.962 437.232 312.559C437.805 312.148 438.486 311.943 439.273 311.943C439.97 311.943 440.576 312.135 441.09 312.52C441.611 312.897 441.998 313.434 442.252 314.131C442.584 313.486 443.036 312.962 443.609 312.559C444.189 312.148 444.863 311.943 445.631 311.943C446.64 311.943 447.438 312.311 448.023 313.047C448.616 313.776 448.912 314.788 448.912 316.084V322.725H447.271V316.211C447.271 315.612 447.21 315.098 447.086 314.668C446.962 314.232 446.757 313.896 446.471 313.662C446.191 313.428 445.807 313.311 445.318 313.311C444.785 313.311 444.303 313.464 443.873 313.77C443.45 314.069 443.115 314.508 442.867 315.088C442.626 315.667 442.506 316.374 442.506 317.207V322.725H440.865V316.211C440.865 315.612 440.803 315.098 440.68 314.668C440.556 314.232 440.354 313.896 440.074 313.662C439.794 313.428 439.413 313.311 438.932 313.311C438.398 313.311 437.916 313.46 437.486 313.76C437.057 314.059 436.718 314.499 436.471 315.078C436.223 315.658 436.1 316.367 436.1 317.207V322.725H434.459ZM456.197 322.959C455.195 322.959 454.326 322.734 453.59 322.285C452.861 321.836 452.298 321.201 451.9 320.381C451.503 319.554 451.305 318.581 451.305 317.461C451.305 316.335 451.503 315.358 451.9 314.531C452.298 313.704 452.857 313.066 453.58 312.617C454.303 312.168 455.152 311.943 456.129 311.943C456.689 311.943 457.249 312.035 457.809 312.217C458.375 312.393 458.889 312.702 459.352 313.145C459.82 313.581 460.195 314.183 460.475 314.951C460.761 315.713 460.904 316.676 460.904 317.842H452.359V316.514H459.479L459.01 317.129C458.977 316.204 458.827 315.462 458.561 314.902C458.294 314.342 457.945 313.939 457.516 313.691C457.092 313.438 456.62 313.311 456.1 313.311C455.481 313.311 454.947 313.473 454.498 313.799C454.049 314.118 453.704 314.587 453.463 315.205C453.222 315.824 453.102 316.579 453.102 317.471C453.102 318.786 453.368 319.801 453.902 320.518C454.443 321.234 455.208 321.592 456.197 321.592C456.907 321.592 457.503 321.413 457.984 321.055C458.473 320.697 458.831 320.179 459.059 319.502L460.67 320.049C460.416 320.661 460.077 321.185 459.654 321.621C459.231 322.051 458.727 322.383 458.141 322.617C457.561 322.845 456.913 322.959 456.197 322.959ZM463.385 322.725V312.178H464.928V314.561L464.859 314.131C465.139 313.525 465.582 313.011 466.188 312.588C466.793 312.158 467.529 311.943 468.395 311.943C469.143 311.943 469.788 312.109 470.328 312.441C470.868 312.773 471.285 313.249 471.578 313.867C471.871 314.479 472.018 315.218 472.018 316.084V322.725H470.377V316.211C470.377 315.345 470.198 314.645 469.84 314.111C469.488 313.577 468.906 313.311 468.092 313.311C467.213 313.311 466.48 313.646 465.895 314.316C465.315 314.98 465.025 315.944 465.025 317.207V322.725H463.385ZM476.988 322.725C476.572 322.725 476.207 322.588 475.895 322.314C475.582 322.035 475.426 321.683 475.426 321.26V313.545H473.727V312.178H475.426V309.971L477.066 309.619V312.178H479.156V313.545H477.066V320.82C477.066 321.035 477.096 321.178 477.154 321.25C477.219 321.322 477.353 321.357 477.555 321.357H479.166V322.725H476.988Z" fill="#CACACA"/>
<rect x="75.5" y="173.225" width="89" height="59" rx="29.5" stroke="#00EB90"/>
<path d="M99.502 209.725L95.5371 199.178H97.3535L100.703 208.797H100.391L103.721 199.178H105.537L101.592 209.725H99.502ZM109.98 209.959C109.277 209.959 108.665 209.826 108.145 209.559C107.63 209.285 107.233 208.914 106.953 208.445C106.673 207.977 106.533 207.446 106.533 206.854C106.533 206.222 106.719 205.639 107.09 205.105C107.461 204.572 108.034 204.145 108.809 203.826C109.59 203.501 110.589 203.338 111.807 203.338H113.564L113.389 203.514V202.938C113.389 202.091 113.219 201.443 112.881 200.994C112.542 200.538 111.976 200.311 111.182 200.311C110.433 200.311 109.857 200.506 109.453 200.896C109.049 201.281 108.835 201.798 108.809 202.449L106.963 202.029C107.021 201.463 107.236 200.949 107.607 200.486C107.985 200.018 108.486 199.643 109.111 199.363C109.743 199.083 110.472 198.943 111.299 198.943C112.152 198.943 112.845 199.106 113.379 199.432C113.919 199.751 114.316 200.213 114.57 200.818C114.824 201.424 114.951 202.153 114.951 203.006V207.82C114.951 208.035 114.98 208.178 115.039 208.25C115.104 208.322 115.238 208.357 115.439 208.357H116.035V209.725H114.99C114.548 209.725 114.176 209.588 113.877 209.314C113.577 209.035 113.428 208.683 113.428 208.26V207.518H113.672C113.568 207.791 113.418 208.071 113.223 208.357C113.027 208.637 112.78 208.901 112.48 209.148C112.181 209.389 111.823 209.585 111.406 209.734C110.996 209.884 110.521 209.959 109.98 209.959ZM110.352 208.592C110.892 208.592 111.393 208.458 111.855 208.191C112.318 207.924 112.689 207.508 112.969 206.941C113.255 206.368 113.398 205.626 113.398 204.715V204.627H111.748C110.882 204.627 110.199 204.741 109.697 204.969C109.202 205.197 108.851 205.48 108.643 205.818C108.434 206.15 108.33 206.482 108.33 206.814C108.33 207.146 108.405 207.446 108.555 207.713C108.704 207.98 108.929 208.195 109.229 208.357C109.528 208.514 109.902 208.592 110.352 208.592ZM119.854 209.725C119.437 209.725 119.072 209.588 118.76 209.314C118.447 209.035 118.291 208.683 118.291 208.26V195.076H119.932V207.82C119.932 208.035 119.961 208.178 120.02 208.25C120.085 208.322 120.218 208.357 120.42 208.357H121.445V209.725H119.854ZM126.953 209.959C126.217 209.959 125.579 209.793 125.039 209.461C124.499 209.129 124.082 208.654 123.789 208.035C123.496 207.417 123.35 206.678 123.35 205.818V199.178H124.99V205.691C124.99 206.551 125.153 207.251 125.479 207.791C125.804 208.325 126.39 208.592 127.236 208.592C127.868 208.592 128.415 208.429 128.877 208.104C129.339 207.778 129.697 207.29 129.951 206.639C130.212 205.988 130.342 205.174 130.342 204.197V199.178H131.982V209.725H130.439V207.244L130.508 207.674C130.234 208.325 129.792 208.868 129.18 209.305C128.574 209.741 127.832 209.959 126.953 209.959ZM139.385 209.959C138.382 209.959 137.513 209.734 136.777 209.285C136.048 208.836 135.485 208.201 135.088 207.381C134.691 206.554 134.492 205.581 134.492 204.461C134.492 203.335 134.691 202.358 135.088 201.531C135.485 200.704 136.045 200.066 136.768 199.617C137.49 199.168 138.34 198.943 139.316 198.943C139.876 198.943 140.436 199.035 140.996 199.217C141.562 199.393 142.077 199.702 142.539 200.145C143.008 200.581 143.382 201.183 143.662 201.951C143.949 202.713 144.092 203.676 144.092 204.842H135.547V203.514H142.666L142.197 204.129C142.165 203.204 142.015 202.462 141.748 201.902C141.481 201.342 141.133 200.939 140.703 200.691C140.28 200.438 139.808 200.311 139.287 200.311C138.669 200.311 138.135 200.473 137.686 200.799C137.236 201.118 136.891 201.587 136.65 202.205C136.41 202.824 136.289 203.579 136.289 204.471C136.289 205.786 136.556 206.801 137.09 207.518C137.63 208.234 138.395 208.592 139.385 208.592C140.094 208.592 140.69 208.413 141.172 208.055C141.66 207.697 142.018 207.179 142.246 206.502L143.857 207.049C143.604 207.661 143.265 208.185 142.842 208.621C142.419 209.051 141.914 209.383 141.328 209.617C140.749 209.845 140.101 209.959 139.385 209.959Z" fill="#00EB90"/>
<rect x="373.5" y="93.2246" width="112" height="59" rx="29.5" stroke="#00EB90"/>
<path d="M394.592 133.533V119.178H396.135V121.375L396.086 121.219C396.372 120.451 396.848 119.881 397.512 119.51C398.176 119.132 398.882 118.943 399.631 118.943C400.49 118.943 401.245 119.168 401.896 119.617C402.548 120.066 403.055 120.704 403.42 121.531C403.785 122.358 403.967 123.335 403.967 124.461C403.967 125.587 403.781 126.564 403.41 127.391C403.046 128.211 402.538 128.846 401.887 129.295C401.236 129.738 400.484 129.959 399.631 129.959C398.941 129.959 398.257 129.786 397.58 129.441C396.903 129.096 396.392 128.514 396.047 127.693L396.193 127.615V133.533H394.592ZM399.182 128.592C400.054 128.592 400.77 128.234 401.33 127.518C401.89 126.795 402.17 125.763 402.17 124.422C402.17 123.12 401.9 122.111 401.359 121.395C400.819 120.672 400.1 120.311 399.201 120.311C398.654 120.311 398.15 120.454 397.688 120.74C397.232 121.027 396.867 121.473 396.594 122.078C396.32 122.684 396.184 123.465 396.184 124.422C396.184 125.835 396.477 126.883 397.062 127.566C397.648 128.25 398.355 128.592 399.182 128.592ZM406.408 129.725V119.178H407.951V121.414L407.893 121.16C408.205 120.431 408.674 119.881 409.299 119.51C409.93 119.132 410.568 118.943 411.213 118.943C411.402 118.943 411.584 118.96 411.76 118.992C411.942 119.025 412.111 119.08 412.268 119.158L412.053 120.701C411.695 120.59 411.34 120.535 410.988 120.535C410.767 120.535 410.49 120.581 410.158 120.672C409.833 120.757 409.507 120.932 409.182 121.199C408.863 121.46 408.592 121.85 408.371 122.371C408.156 122.892 408.049 123.585 408.049 124.451V129.725H406.408ZM418.205 129.959C417.215 129.959 416.343 129.728 415.588 129.266C414.833 128.797 414.243 128.149 413.82 127.322C413.397 126.495 413.186 125.538 413.186 124.451C413.186 123.364 413.397 122.407 413.82 121.58C414.243 120.753 414.833 120.109 415.588 119.646C416.343 119.178 417.215 118.943 418.205 118.943C419.195 118.943 420.067 119.178 420.822 119.646C421.577 120.109 422.167 120.753 422.59 121.58C423.013 122.407 423.225 123.364 423.225 124.451C423.225 125.538 423.013 126.495 422.59 127.322C422.167 128.149 421.577 128.797 420.822 129.266C420.067 129.728 419.195 129.959 418.205 129.959ZM418.205 128.592C419.201 128.592 419.986 128.221 420.559 127.479C421.138 126.736 421.428 125.727 421.428 124.451C421.428 123.169 421.138 122.16 420.559 121.424C419.986 120.682 419.201 120.311 418.205 120.311C417.209 120.311 416.421 120.682 415.842 121.424C415.269 122.16 414.982 123.169 414.982 124.451C414.982 125.727 415.269 126.736 415.842 127.479C416.421 128.221 417.209 128.592 418.205 128.592ZM429.875 129.959C429.022 129.959 428.267 129.734 427.609 129.285C426.958 128.836 426.451 128.198 426.086 127.371C425.721 126.544 425.539 125.568 425.539 124.441C425.539 123.315 425.721 122.342 426.086 121.521C426.457 120.695 426.968 120.06 427.619 119.617C428.27 119.168 429.022 118.943 429.875 118.943C430.565 118.943 431.249 119.116 431.926 119.461C432.603 119.806 433.114 120.389 433.459 121.209L433.273 121.287V115.076H434.914V129.725H433.371V127.527L433.42 127.684C433.133 128.452 432.658 129.025 431.994 129.402C431.33 129.773 430.624 129.959 429.875 129.959ZM430.305 128.592C430.858 128.592 431.363 128.449 431.818 128.162C432.274 127.876 432.639 127.43 432.912 126.824C433.186 126.212 433.322 125.431 433.322 124.48C433.322 123.061 433.029 122.013 432.443 121.336C431.857 120.652 431.151 120.311 430.324 120.311C429.452 120.311 428.736 120.672 428.176 121.395C427.616 122.111 427.336 123.139 427.336 124.48C427.336 125.783 427.606 126.795 428.146 127.518C428.687 128.234 429.406 128.592 430.305 128.592ZM441.516 129.959C440.78 129.959 440.142 129.793 439.602 129.461C439.061 129.129 438.645 128.654 438.352 128.035C438.059 127.417 437.912 126.678 437.912 125.818V119.178H439.553V125.691C439.553 126.551 439.715 127.251 440.041 127.791C440.367 128.325 440.952 128.592 441.799 128.592C442.43 128.592 442.977 128.429 443.439 128.104C443.902 127.778 444.26 127.29 444.514 126.639C444.774 125.988 444.904 125.174 444.904 124.197V119.178H446.545V129.725H445.002V127.244L445.07 127.674C444.797 128.325 444.354 128.868 443.742 129.305C443.137 129.741 442.395 129.959 441.516 129.959ZM453.879 129.959C452.889 129.959 452.033 129.734 451.311 129.285C450.588 128.836 450.031 128.201 449.641 127.381C449.25 126.554 449.055 125.577 449.055 124.451C449.055 123.325 449.25 122.352 449.641 121.531C450.031 120.704 450.588 120.066 451.311 119.617C452.033 119.168 452.889 118.943 453.879 118.943C454.634 118.943 455.308 119.083 455.9 119.363C456.499 119.637 457.004 120.034 457.414 120.555C457.831 121.069 458.137 121.691 458.332 122.42L456.662 122.859C456.48 122.039 456.151 121.411 455.676 120.975C455.207 120.532 454.608 120.311 453.879 120.311C452.909 120.311 452.16 120.672 451.633 121.395C451.112 122.111 450.852 123.13 450.852 124.451C450.852 125.779 451.112 126.801 451.633 127.518C452.16 128.234 452.909 128.592 453.879 128.592C454.602 128.592 455.197 128.38 455.666 127.957C456.135 127.527 456.464 126.909 456.652 126.102L458.312 126.57C458.156 127.104 457.941 127.579 457.668 127.996C457.395 128.413 457.069 128.768 456.691 129.061C456.32 129.354 455.897 129.575 455.422 129.725C454.953 129.881 454.439 129.959 453.879 129.959ZM462.766 129.725C462.349 129.725 461.984 129.588 461.672 129.314C461.359 129.035 461.203 128.683 461.203 128.26V120.545H459.504V119.178H461.203V116.971L462.844 116.619V119.178H464.934V120.545H462.844V127.82C462.844 128.035 462.873 128.178 462.932 128.25C462.997 128.322 463.13 128.357 463.332 128.357H464.943V129.725H462.766Z" fill="#00EB90"/>
<rect x="259" y="202.725" width="101" height="58" rx="29" stroke="url(#paint0_linear_1431_1943)" stroke-width="2"/>
<path d="M278.791 238.725V237.357H280.656V226.029H278.791V224.662H284.279V226.029H282.414V237.357H284.279V238.725H278.791ZM286.662 238.725V228.178H288.205V230.561L288.137 230.131C288.417 229.525 288.859 229.011 289.465 228.588C290.07 228.158 290.806 227.943 291.672 227.943C292.421 227.943 293.065 228.109 293.605 228.441C294.146 228.773 294.562 229.249 294.855 229.867C295.148 230.479 295.295 231.218 295.295 232.084V238.725H293.654V232.211C293.654 231.345 293.475 230.645 293.117 230.111C292.766 229.577 292.183 229.311 291.369 229.311C290.49 229.311 289.758 229.646 289.172 230.316C288.592 230.98 288.303 231.944 288.303 233.207V238.725H286.662ZM301.867 238.959C301.105 238.959 300.412 238.835 299.787 238.588C299.169 238.334 298.654 237.953 298.244 237.445C297.834 236.931 297.561 236.28 297.424 235.492L299.143 235.16C299.214 235.987 299.494 236.602 299.982 237.006C300.477 237.41 301.096 237.611 301.838 237.611C302.574 237.611 303.16 237.426 303.596 237.055C304.032 236.684 304.25 236.231 304.25 235.697C304.25 235.242 304.094 234.88 303.781 234.613C303.475 234.346 303.029 234.158 302.443 234.047L301.164 233.803C300.819 233.738 300.461 233.646 300.09 233.529C299.719 233.412 299.37 233.249 299.045 233.041C298.726 232.833 298.465 232.559 298.264 232.221C298.068 231.882 297.971 231.456 297.971 230.941C297.971 230.251 298.15 229.688 298.508 229.252C298.872 228.809 299.351 228.48 299.943 228.266C300.542 228.051 301.187 227.943 301.877 227.943C302.632 227.943 303.29 228.061 303.85 228.295C304.41 228.529 304.865 228.865 305.217 229.301C305.568 229.737 305.803 230.264 305.92 230.883L304.113 231.244C304.068 230.847 303.96 230.502 303.791 230.209C303.628 229.916 303.387 229.691 303.068 229.535C302.756 229.372 302.349 229.291 301.848 229.291C301.242 229.291 300.721 229.418 300.285 229.672C299.849 229.926 299.631 230.31 299.631 230.824C299.631 231.111 299.702 231.355 299.846 231.557C299.995 231.758 300.217 231.928 300.51 232.064C300.809 232.195 301.184 232.309 301.633 232.406L302.932 232.68C303.479 232.79 303.983 232.956 304.445 233.178C304.908 233.393 305.279 233.692 305.559 234.076C305.839 234.46 305.979 234.968 305.979 235.6C305.979 236.296 305.803 236.898 305.451 237.406C305.106 237.908 304.624 238.292 304.006 238.559C303.394 238.826 302.681 238.959 301.867 238.959ZM308.488 238.725V228.178H310.129V238.725H308.488ZM309.309 226.41C308.931 226.41 308.609 226.277 308.342 226.01C308.075 225.743 307.941 225.421 307.941 225.043C307.941 224.659 308.075 224.337 308.342 224.076C308.609 223.809 308.931 223.676 309.309 223.676C309.693 223.676 310.015 223.809 310.275 224.076C310.542 224.337 310.676 224.659 310.676 225.043C310.676 225.421 310.542 225.743 310.275 226.01C310.015 226.277 309.693 226.41 309.309 226.41ZM317.033 242.768C315.464 242.768 314.309 242.546 313.566 242.104C312.824 241.667 312.453 240.99 312.453 240.072C312.453 239.551 312.587 239.086 312.854 238.676C313.12 238.266 313.583 237.95 314.24 237.729C313.993 237.579 313.791 237.38 313.635 237.133C313.479 236.885 313.4 236.609 313.4 236.303C313.4 235.938 313.514 235.613 313.742 235.326C313.97 235.033 314.296 234.825 314.719 234.701C314.198 234.395 313.791 233.982 313.498 233.461C313.212 232.934 313.068 232.322 313.068 231.625C313.068 230.87 313.234 230.219 313.566 229.672C313.905 229.118 314.383 228.692 315.002 228.393C315.627 228.093 316.369 227.943 317.229 227.943C318.088 227.943 318.83 228.093 319.455 228.393C320.087 228.692 320.572 229.118 320.91 229.672C321.255 230.225 321.428 230.883 321.428 231.645C321.428 232.393 321.255 233.041 320.91 233.588C320.572 234.128 320.087 234.548 319.455 234.848C318.824 235.141 318.072 235.287 317.199 235.287H316.291C315.471 235.287 315.061 235.531 315.061 236.02C315.061 236.482 315.458 236.713 316.252 236.713H318.361C319.195 236.713 319.865 236.811 320.373 237.006C320.887 237.195 321.278 237.442 321.545 237.748C321.818 238.048 322.004 238.373 322.102 238.725C322.199 239.076 322.248 239.411 322.248 239.73C322.248 240.766 321.874 241.531 321.125 242.025C320.376 242.52 319.214 242.768 317.639 242.768H317.033ZM317.033 241.459H317.639C319.579 241.459 320.549 240.88 320.549 239.721C320.549 239.239 320.373 238.845 320.021 238.539C319.676 238.233 319.084 238.08 318.244 238.08H316.428C315.777 238.08 315.233 238.214 314.797 238.48C314.361 238.741 314.143 239.171 314.143 239.77C314.143 240.342 314.377 240.766 314.846 241.039C315.321 241.319 316.05 241.459 317.033 241.459ZM317.229 234.135C318.055 234.135 318.69 233.923 319.133 233.5C319.576 233.07 319.797 232.452 319.797 231.645C319.797 230.844 319.576 230.222 319.133 229.779C318.69 229.337 318.055 229.115 317.229 229.115C316.408 229.115 315.78 229.337 315.344 229.779C314.908 230.215 314.689 230.837 314.689 231.645C314.689 232.452 314.908 233.07 315.344 233.5C315.78 233.923 316.408 234.135 317.229 234.135ZM318.967 229.047V228.002C318.967 227.579 319.123 227.23 319.436 226.957C319.748 226.677 320.113 226.537 320.529 226.537H321.799V227.904H320.754C320.552 227.904 320.419 227.94 320.354 228.012C320.295 228.083 320.266 228.227 320.266 228.441V229.047H318.967ZM324.445 238.725V224.076H326.086V230.658L325.92 230.229C326.193 229.571 326.633 229.027 327.238 228.598C327.85 228.161 328.596 227.943 329.475 227.943C330.217 227.943 330.855 228.109 331.389 228.441C331.929 228.773 332.346 229.249 332.639 229.867C332.932 230.479 333.078 231.218 333.078 232.084V238.725H331.438V232.211C331.438 231.319 331.268 230.613 330.93 230.092C330.598 229.571 330.005 229.311 329.152 229.311C328.241 229.311 327.502 229.636 326.936 230.287C326.369 230.932 326.086 231.905 326.086 233.207V238.725H324.445ZM338.039 238.725C337.622 238.725 337.258 238.588 336.945 238.314C336.633 238.035 336.477 237.683 336.477 237.26V229.545H334.777V228.178H336.477V225.971L338.117 225.619V228.178H340.207V229.545H338.117V236.82C338.117 237.035 338.146 237.178 338.205 237.25C338.27 237.322 338.404 237.357 338.605 237.357H340.217V238.725H338.039Z" fill="url(#paint1_linear_1431_1943)"/>
<rect x="202" y="100.725" width="95" height="58" rx="29" stroke="url(#paint2_linear_1431_1943)" stroke-width="2"/>
<path d="M226.303 140.768C224.734 140.768 223.578 140.546 222.836 140.104C222.094 139.667 221.723 138.99 221.723 138.072C221.723 137.551 221.856 137.086 222.123 136.676C222.39 136.266 222.852 135.95 223.51 135.729C223.262 135.579 223.061 135.38 222.904 135.133C222.748 134.885 222.67 134.609 222.67 134.303C222.67 133.938 222.784 133.613 223.012 133.326C223.24 133.033 223.565 132.825 223.988 132.701C223.467 132.395 223.061 131.982 222.768 131.461C222.481 130.934 222.338 130.322 222.338 129.625C222.338 128.87 222.504 128.219 222.836 127.672C223.174 127.118 223.653 126.692 224.271 126.393C224.896 126.093 225.639 125.943 226.498 125.943C227.357 125.943 228.1 126.093 228.725 126.393C229.356 126.692 229.841 127.118 230.18 127.672C230.525 128.225 230.697 128.883 230.697 129.645C230.697 130.393 230.525 131.041 230.18 131.588C229.841 132.128 229.356 132.548 228.725 132.848C228.093 133.141 227.341 133.287 226.469 133.287H225.561C224.74 133.287 224.33 133.531 224.33 134.02C224.33 134.482 224.727 134.713 225.521 134.713H227.631C228.464 134.713 229.135 134.811 229.643 135.006C230.157 135.195 230.548 135.442 230.814 135.748C231.088 136.048 231.273 136.373 231.371 136.725C231.469 137.076 231.518 137.411 231.518 137.73C231.518 138.766 231.143 139.531 230.395 140.025C229.646 140.52 228.484 140.768 226.908 140.768H226.303ZM226.303 139.459H226.908C228.848 139.459 229.818 138.88 229.818 137.721C229.818 137.239 229.643 136.845 229.291 136.539C228.946 136.233 228.354 136.08 227.514 136.08H225.697C225.046 136.08 224.503 136.214 224.066 136.48C223.63 136.741 223.412 137.171 223.412 137.77C223.412 138.342 223.646 138.766 224.115 139.039C224.59 139.319 225.32 139.459 226.303 139.459ZM226.498 132.135C227.325 132.135 227.96 131.923 228.402 131.5C228.845 131.07 229.066 130.452 229.066 129.645C229.066 128.844 228.845 128.222 228.402 127.779C227.96 127.337 227.325 127.115 226.498 127.115C225.678 127.115 225.049 127.337 224.613 127.779C224.177 128.215 223.959 128.837 223.959 129.645C223.959 130.452 224.177 131.07 224.613 131.5C225.049 131.923 225.678 132.135 226.498 132.135ZM228.236 127.047V126.002C228.236 125.579 228.393 125.23 228.705 124.957C229.018 124.677 229.382 124.537 229.799 124.537H231.068V125.904H230.023C229.822 125.904 229.688 125.94 229.623 126.012C229.564 126.083 229.535 126.227 229.535 126.441V127.047H228.236ZM235.248 136.725C234.831 136.725 234.467 136.588 234.154 136.314C233.842 136.035 233.686 135.683 233.686 135.26V122.076H235.326V134.82C235.326 135.035 235.355 135.178 235.414 135.25C235.479 135.322 235.613 135.357 235.814 135.357H236.84V136.725H235.248ZM243.197 136.959C242.208 136.959 241.335 136.728 240.58 136.266C239.825 135.797 239.236 135.149 238.812 134.322C238.389 133.495 238.178 132.538 238.178 131.451C238.178 130.364 238.389 129.407 238.812 128.58C239.236 127.753 239.825 127.109 240.58 126.646C241.335 126.178 242.208 125.943 243.197 125.943C244.187 125.943 245.059 126.178 245.814 126.646C246.57 127.109 247.159 127.753 247.582 128.58C248.005 129.407 248.217 130.364 248.217 131.451C248.217 132.538 248.005 133.495 247.582 134.322C247.159 135.149 246.57 135.797 245.814 136.266C245.059 136.728 244.187 136.959 243.197 136.959ZM243.197 135.592C244.193 135.592 244.978 135.221 245.551 134.479C246.13 133.736 246.42 132.727 246.42 131.451C246.42 130.169 246.13 129.16 245.551 128.424C244.978 127.682 244.193 127.311 243.197 127.311C242.201 127.311 241.413 127.682 240.834 128.424C240.261 129.16 239.975 130.169 239.975 131.451C239.975 132.727 240.261 133.736 240.834 134.479C241.413 135.221 242.201 135.592 243.197 135.592ZM255.697 136.959C255.007 136.959 254.324 136.786 253.646 136.441C252.969 136.096 252.458 135.514 252.113 134.693L252.201 134.615V136.725H250.658V122.076H252.299V128.375L252.152 128.219C252.439 127.451 252.914 126.881 253.578 126.51C254.242 126.132 254.949 125.943 255.697 125.943C256.557 125.943 257.312 126.168 257.963 126.617C258.614 127.066 259.122 127.704 259.486 128.531C259.851 129.358 260.033 130.335 260.033 131.461C260.033 132.587 259.848 133.564 259.477 134.391C259.112 135.211 258.604 135.846 257.953 136.295C257.302 136.738 256.55 136.959 255.697 136.959ZM255.248 135.592C256.12 135.592 256.837 135.234 257.396 134.518C257.956 133.795 258.236 132.763 258.236 131.422C258.236 130.12 257.966 129.111 257.426 128.395C256.885 127.672 256.166 127.311 255.268 127.311C254.721 127.311 254.216 127.454 253.754 127.74C253.298 128.027 252.934 128.473 252.66 129.078C252.387 129.684 252.25 130.465 252.25 131.422C252.25 132.835 252.543 133.883 253.129 134.566C253.715 135.25 254.421 135.592 255.248 135.592ZM265.434 136.959C264.73 136.959 264.118 136.826 263.598 136.559C263.083 136.285 262.686 135.914 262.406 135.445C262.126 134.977 261.986 134.446 261.986 133.854C261.986 133.222 262.172 132.639 262.543 132.105C262.914 131.572 263.487 131.145 264.262 130.826C265.043 130.501 266.042 130.338 267.26 130.338H269.018L268.842 130.514V129.938C268.842 129.091 268.673 128.443 268.334 127.994C267.995 127.538 267.429 127.311 266.635 127.311C265.886 127.311 265.31 127.506 264.906 127.896C264.503 128.281 264.288 128.798 264.262 129.449L262.416 129.029C262.475 128.463 262.689 127.949 263.061 127.486C263.438 127.018 263.939 126.643 264.564 126.363C265.196 126.083 265.925 125.943 266.752 125.943C267.605 125.943 268.298 126.106 268.832 126.432C269.372 126.751 269.77 127.213 270.023 127.818C270.277 128.424 270.404 129.153 270.404 130.006V134.82C270.404 135.035 270.434 135.178 270.492 135.25C270.557 135.322 270.691 135.357 270.893 135.357H271.488V136.725H270.443C270.001 136.725 269.63 136.588 269.33 136.314C269.031 136.035 268.881 135.683 268.881 135.26V134.518H269.125C269.021 134.791 268.871 135.071 268.676 135.357C268.48 135.637 268.233 135.901 267.934 136.148C267.634 136.389 267.276 136.585 266.859 136.734C266.449 136.884 265.974 136.959 265.434 136.959ZM265.805 135.592C266.345 135.592 266.846 135.458 267.309 135.191C267.771 134.924 268.142 134.508 268.422 133.941C268.708 133.368 268.852 132.626 268.852 131.715V131.627H267.201C266.335 131.627 265.652 131.741 265.15 131.969C264.656 132.197 264.304 132.48 264.096 132.818C263.887 133.15 263.783 133.482 263.783 133.814C263.783 134.146 263.858 134.446 264.008 134.713C264.158 134.98 264.382 135.195 264.682 135.357C264.981 135.514 265.355 135.592 265.805 135.592ZM275.307 136.725C274.89 136.725 274.525 136.588 274.213 136.314C273.9 136.035 273.744 135.683 273.744 135.26V122.076H275.385V134.82C275.385 135.035 275.414 135.178 275.473 135.25C275.538 135.322 275.671 135.357 275.873 135.357H276.898V136.725H275.307Z" fill="url(#paint3_linear_1431_1943)"/>
<rect x="133.5" y="20.2246" width="152" height="59" rx="29.5" stroke="#CACACA"/>
<path d="M158.801 56.959C157.811 56.959 156.955 56.7344 156.232 56.2852C155.51 55.8359 154.953 55.2012 154.562 54.3809C154.172 53.554 153.977 52.5775 153.977 51.4512C153.977 50.3249 154.172 49.3516 154.562 48.5312C154.953 47.7044 155.51 47.0664 156.232 46.6172C156.955 46.168 157.811 45.9434 158.801 45.9434C159.556 45.9434 160.23 46.0833 160.822 46.3633C161.421 46.6367 161.926 47.0339 162.336 47.5547C162.753 48.069 163.059 48.6908 163.254 49.4199L161.584 49.8594C161.402 49.0391 161.073 48.4108 160.598 47.9746C160.129 47.5319 159.53 47.3105 158.801 47.3105C157.831 47.3105 157.082 47.6719 156.555 48.3945C156.034 49.1107 155.773 50.1296 155.773 51.4512C155.773 52.7793 156.034 53.8014 156.555 54.5176C157.082 55.2337 157.831 55.5918 158.801 55.5918C159.523 55.5918 160.119 55.3802 160.588 54.957C161.057 54.5273 161.385 53.9089 161.574 53.1016L163.234 53.5703C163.078 54.1042 162.863 54.5794 162.59 54.9961C162.316 55.4128 161.991 55.7676 161.613 56.0605C161.242 56.3535 160.819 56.5749 160.344 56.7246C159.875 56.8809 159.361 56.959 158.801 56.959ZM170.002 56.959C169.012 56.959 168.14 56.7279 167.385 56.2656C166.63 55.7969 166.04 55.1491 165.617 54.3223C165.194 53.4954 164.982 52.5384 164.982 51.4512C164.982 50.3639 165.194 49.4069 165.617 48.5801C166.04 47.7533 166.63 47.1087 167.385 46.6465C168.14 46.1777 169.012 45.9434 170.002 45.9434C170.992 45.9434 171.864 46.1777 172.619 46.6465C173.374 47.1087 173.964 47.7533 174.387 48.5801C174.81 49.4069 175.021 50.3639 175.021 51.4512C175.021 52.5384 174.81 53.4954 174.387 54.3223C173.964 55.1491 173.374 55.7969 172.619 56.2656C171.864 56.7279 170.992 56.959 170.002 56.959ZM170.002 55.5918C170.998 55.5918 171.783 55.2207 172.355 54.4785C172.935 53.7363 173.225 52.7272 173.225 51.4512C173.225 50.1686 172.935 49.1595 172.355 48.4238C171.783 47.6816 170.998 47.3105 170.002 47.3105C169.006 47.3105 168.218 47.6816 167.639 48.4238C167.066 49.1595 166.779 50.1686 166.779 51.4512C166.779 52.7272 167.066 53.7363 167.639 54.4785C168.218 55.2207 169.006 55.5918 170.002 55.5918ZM182.346 56.959C181.356 56.959 180.484 56.7279 179.729 56.2656C178.973 55.7969 178.384 55.1491 177.961 54.3223C177.538 53.4954 177.326 52.5384 177.326 51.4512C177.326 50.3639 177.538 49.4069 177.961 48.5801C178.384 47.7533 178.973 47.1087 179.729 46.6465C180.484 46.1777 181.356 45.9434 182.346 45.9434C183.335 45.9434 184.208 46.1777 184.963 46.6465C185.718 47.1087 186.307 47.7533 186.73 48.5801C187.154 49.4069 187.365 50.3639 187.365 51.4512C187.365 52.5384 187.154 53.4954 186.73 54.3223C186.307 55.1491 185.718 55.7969 184.963 56.2656C184.208 56.7279 183.335 56.959 182.346 56.959ZM182.346 55.5918C183.342 55.5918 184.126 55.2207 184.699 54.4785C185.279 53.7363 185.568 52.7272 185.568 51.4512C185.568 50.1686 185.279 49.1595 184.699 48.4238C184.126 47.6816 183.342 47.3105 182.346 47.3105C181.35 47.3105 180.562 47.6816 179.982 48.4238C179.41 49.1595 179.123 50.1686 179.123 51.4512C179.123 52.7272 179.41 53.7363 179.982 54.4785C180.562 55.2207 181.35 55.5918 182.346 55.5918ZM189.807 60.5332V46.1777H191.35V48.375L191.301 48.2188C191.587 47.4505 192.062 46.8809 192.727 46.5098C193.391 46.1322 194.097 45.9434 194.846 45.9434C195.705 45.9434 196.46 46.168 197.111 46.6172C197.762 47.0664 198.27 47.7044 198.635 48.5312C198.999 49.3581 199.182 50.3346 199.182 51.4609C199.182 52.5872 198.996 53.5638 198.625 54.3906C198.26 55.2109 197.753 55.8457 197.102 56.2949C196.451 56.7376 195.699 56.959 194.846 56.959C194.156 56.959 193.472 56.7865 192.795 56.4414C192.118 56.0964 191.607 55.5137 191.262 54.6934L191.408 54.6152V60.5332H189.807ZM194.396 55.5918C195.269 55.5918 195.985 55.2337 196.545 54.5176C197.105 53.7949 197.385 52.763 197.385 51.4219C197.385 50.1198 197.115 49.1107 196.574 48.3945C196.034 47.6719 195.314 47.3105 194.416 47.3105C193.869 47.3105 193.365 47.4538 192.902 47.7402C192.447 48.0267 192.082 48.4727 191.809 49.0781C191.535 49.6836 191.398 50.4648 191.398 51.4219C191.398 52.8346 191.691 53.8828 192.277 54.5664C192.863 55.25 193.57 55.5918 194.396 55.5918ZM206.408 56.959C205.406 56.959 204.536 56.7344 203.801 56.2852C203.072 55.8359 202.508 55.2012 202.111 54.3809C201.714 53.554 201.516 52.5807 201.516 51.4609C201.516 50.3346 201.714 49.3581 202.111 48.5312C202.508 47.7044 203.068 47.0664 203.791 46.6172C204.514 46.168 205.363 45.9434 206.34 45.9434C206.9 45.9434 207.46 46.0345 208.02 46.2168C208.586 46.3926 209.1 46.7018 209.562 47.1445C210.031 47.5807 210.406 48.1829 210.686 48.9512C210.972 49.7129 211.115 50.6764 211.115 51.8418H202.57V50.5137H209.689L209.221 51.1289C209.188 50.2044 209.038 49.4622 208.771 48.9023C208.505 48.3424 208.156 47.9388 207.727 47.6914C207.303 47.4375 206.831 47.3105 206.311 47.3105C205.692 47.3105 205.158 47.4733 204.709 47.7988C204.26 48.1178 203.915 48.5866 203.674 49.2051C203.433 49.8236 203.312 50.5788 203.312 51.4707C203.312 52.7858 203.579 53.8014 204.113 54.5176C204.654 55.2337 205.419 55.5918 206.408 55.5918C207.118 55.5918 207.714 55.4128 208.195 55.0547C208.684 54.6966 209.042 54.179 209.27 53.502L210.881 54.0488C210.627 54.6608 210.288 55.1849 209.865 55.6211C209.442 56.0508 208.938 56.3828 208.352 56.6172C207.772 56.8451 207.124 56.959 206.408 56.959ZM213.596 56.7246V46.1777H215.139V48.4141L215.08 48.1602C215.393 47.431 215.861 46.8809 216.486 46.5098C217.118 46.1322 217.756 45.9434 218.4 45.9434C218.589 45.9434 218.771 45.9596 218.947 45.9922C219.13 46.0247 219.299 46.0801 219.455 46.1582L219.24 47.7012C218.882 47.5905 218.527 47.5352 218.176 47.5352C217.954 47.5352 217.678 47.5807 217.346 47.6719C217.02 47.7565 216.695 47.9323 216.369 48.1992C216.05 48.4596 215.78 48.8503 215.559 49.3711C215.344 49.8919 215.236 50.5853 215.236 51.4512V56.7246H213.596ZM223.703 56.959C223 56.959 222.388 56.8255 221.867 56.5586C221.353 56.2852 220.956 55.9141 220.676 55.4453C220.396 54.9766 220.256 54.446 220.256 53.8535C220.256 53.222 220.441 52.6393 220.812 52.1055C221.184 51.5716 221.757 51.1452 222.531 50.8262C223.312 50.5007 224.312 50.3379 225.529 50.3379H227.287L227.111 50.5137V49.9375C227.111 49.0911 226.942 48.4434 226.604 47.9941C226.265 47.5384 225.699 47.3105 224.904 47.3105C224.156 47.3105 223.579 47.5059 223.176 47.8965C222.772 48.2806 222.557 48.7982 222.531 49.4492L220.686 49.0293C220.744 48.4629 220.959 47.9486 221.33 47.4863C221.708 47.0176 222.209 46.6432 222.834 46.3633C223.465 46.0833 224.195 45.9434 225.021 45.9434C225.874 45.9434 226.568 46.1061 227.102 46.4316C227.642 46.7507 228.039 47.2129 228.293 47.8184C228.547 48.4238 228.674 49.153 228.674 50.0059V54.8203C228.674 55.0352 228.703 55.1784 228.762 55.25C228.827 55.3216 228.96 55.3574 229.162 55.3574H229.758V56.7246H228.713C228.27 56.7246 227.899 56.5879 227.6 56.3145C227.3 56.0345 227.15 55.6829 227.15 55.2598V54.5176H227.395C227.29 54.791 227.141 55.071 226.945 55.3574C226.75 55.6374 226.503 55.901 226.203 56.1484C225.904 56.3893 225.546 56.5846 225.129 56.7344C224.719 56.8841 224.243 56.959 223.703 56.959ZM224.074 55.5918C224.615 55.5918 225.116 55.4583 225.578 55.1914C226.04 54.9245 226.411 54.5078 226.691 53.9414C226.978 53.3685 227.121 52.6263 227.121 51.7148V51.627H225.471C224.605 51.627 223.921 51.7409 223.42 51.9688C222.925 52.1966 222.574 52.4798 222.365 52.8184C222.157 53.1504 222.053 53.4824 222.053 53.8145C222.053 54.1465 222.128 54.446 222.277 54.7129C222.427 54.9798 222.652 55.1947 222.951 55.3574C223.251 55.5137 223.625 55.5918 224.074 55.5918ZM233.898 56.7246C233.482 56.7246 233.117 56.5879 232.805 56.3145C232.492 56.0345 232.336 55.6829 232.336 55.2598V47.5449H230.637V46.1777H232.336V43.9707L233.977 43.6191V46.1777H236.066V47.5449H233.977V54.8203C233.977 55.0352 234.006 55.1784 234.064 55.25C234.13 55.3216 234.263 55.3574 234.465 55.3574H236.076V56.7246H233.898ZM238.449 56.7246V46.1777H240.09V56.7246H238.449ZM239.27 44.4102C238.892 44.4102 238.57 44.2767 238.303 44.0098C238.036 43.7428 237.902 43.4206 237.902 43.043C237.902 42.6589 238.036 42.3366 238.303 42.0762C238.57 41.8092 238.892 41.6758 239.27 41.6758C239.654 41.6758 239.976 41.8092 240.236 42.0762C240.503 42.3366 240.637 42.6589 240.637 43.043C240.637 43.4206 240.503 43.7428 240.236 44.0098C239.976 44.2767 239.654 44.4102 239.27 44.4102ZM247.561 56.959C246.571 56.959 245.699 56.7279 244.943 56.2656C244.188 55.7969 243.599 55.1491 243.176 54.3223C242.753 53.4954 242.541 52.5384 242.541 51.4512C242.541 50.3639 242.753 49.4069 243.176 48.5801C243.599 47.7533 244.188 47.1087 244.943 46.6465C245.699 46.1777 246.571 45.9434 247.561 45.9434C248.55 45.9434 249.423 46.1777 250.178 46.6465C250.933 47.1087 251.522 47.7533 251.945 48.5801C252.368 49.4069 252.58 50.3639 252.58 51.4512C252.58 52.5384 252.368 53.4954 251.945 54.3223C251.522 55.1491 250.933 55.7969 250.178 56.2656C249.423 56.7279 248.55 56.959 247.561 56.959ZM247.561 55.5918C248.557 55.5918 249.341 55.2207 249.914 54.4785C250.493 53.7363 250.783 52.7272 250.783 51.4512C250.783 50.1686 250.493 49.1595 249.914 48.4238C249.341 47.6816 248.557 47.3105 247.561 47.3105C246.564 47.3105 245.777 47.6816 245.197 48.4238C244.624 49.1595 244.338 50.1686 244.338 51.4512C244.338 52.7272 244.624 53.7363 245.197 54.4785C245.777 55.2207 246.564 55.5918 247.561 55.5918ZM255.021 56.7246V46.1777H256.564V48.5605L256.496 48.1309C256.776 47.5254 257.219 47.0111 257.824 46.5879C258.43 46.1582 259.165 45.9434 260.031 45.9434C260.78 45.9434 261.424 46.1094 261.965 46.4414C262.505 46.7734 262.922 47.2487 263.215 47.8672C263.508 48.4792 263.654 49.2181 263.654 50.084V56.7246H262.014V50.2109C262.014 49.3451 261.835 48.6452 261.477 48.1113C261.125 47.5775 260.542 47.3105 259.729 47.3105C258.85 47.3105 258.117 47.6458 257.531 48.3164C256.952 48.9805 256.662 49.944 256.662 51.207V56.7246H255.021Z" fill="#CACACA"/>
<rect x="421.5" y="188.225" width="109" height="59" rx="29.5" stroke="#CACACA"/>
<path d="M446.195 224.959C445.434 224.959 444.74 224.835 444.115 224.588C443.497 224.334 442.982 223.953 442.572 223.445C442.162 222.931 441.889 222.28 441.752 221.492L443.471 221.16C443.542 221.987 443.822 222.602 444.311 223.006C444.805 223.41 445.424 223.611 446.166 223.611C446.902 223.611 447.488 223.426 447.924 223.055C448.36 222.684 448.578 222.231 448.578 221.697C448.578 221.242 448.422 220.88 448.109 220.613C447.803 220.346 447.357 220.158 446.771 220.047L445.492 219.803C445.147 219.738 444.789 219.646 444.418 219.529C444.047 219.412 443.699 219.249 443.373 219.041C443.054 218.833 442.794 218.559 442.592 218.221C442.396 217.882 442.299 217.456 442.299 216.941C442.299 216.251 442.478 215.688 442.836 215.252C443.201 214.809 443.679 214.48 444.271 214.266C444.87 214.051 445.515 213.943 446.205 213.943C446.96 213.943 447.618 214.061 448.178 214.295C448.738 214.529 449.193 214.865 449.545 215.301C449.896 215.737 450.131 216.264 450.248 216.883L448.441 217.244C448.396 216.847 448.288 216.502 448.119 216.209C447.956 215.916 447.715 215.691 447.396 215.535C447.084 215.372 446.677 215.291 446.176 215.291C445.57 215.291 445.049 215.418 444.613 215.672C444.177 215.926 443.959 216.31 443.959 216.824C443.959 217.111 444.031 217.355 444.174 217.557C444.324 217.758 444.545 217.928 444.838 218.064C445.137 218.195 445.512 218.309 445.961 218.406L447.26 218.68C447.807 218.79 448.311 218.956 448.773 219.178C449.236 219.393 449.607 219.692 449.887 220.076C450.167 220.46 450.307 220.968 450.307 221.6C450.307 222.296 450.131 222.898 449.779 223.406C449.434 223.908 448.952 224.292 448.334 224.559C447.722 224.826 447.009 224.959 446.195 224.959ZM454.965 224.725C454.548 224.725 454.184 224.588 453.871 224.314C453.559 224.035 453.402 223.683 453.402 223.26V215.545H451.703V214.178H453.402V211.971L455.043 211.619V214.178H457.133V215.545H455.043V222.82C455.043 223.035 455.072 223.178 455.131 223.25C455.196 223.322 455.329 223.357 455.531 223.357H457.143V224.725H454.965ZM462.836 224.959C462.1 224.959 461.462 224.793 460.922 224.461C460.382 224.129 459.965 223.654 459.672 223.035C459.379 222.417 459.232 221.678 459.232 220.818V214.178H460.873V220.691C460.873 221.551 461.036 222.251 461.361 222.791C461.687 223.325 462.273 223.592 463.119 223.592C463.751 223.592 464.298 223.429 464.76 223.104C465.222 222.778 465.58 222.29 465.834 221.639C466.094 220.988 466.225 220.174 466.225 219.197V214.178H467.865V224.725H466.322V222.244L466.391 222.674C466.117 223.325 465.674 223.868 465.062 224.305C464.457 224.741 463.715 224.959 462.836 224.959ZM474.633 224.959C473.78 224.959 473.025 224.734 472.367 224.285C471.716 223.836 471.208 223.198 470.844 222.371C470.479 221.544 470.297 220.568 470.297 219.441C470.297 218.315 470.479 217.342 470.844 216.521C471.215 215.695 471.726 215.06 472.377 214.617C473.028 214.168 473.78 213.943 474.633 213.943C475.323 213.943 476.007 214.116 476.684 214.461C477.361 214.806 477.872 215.389 478.217 216.209L478.031 216.287V210.076H479.672V224.725H478.129V222.527L478.178 222.684C477.891 223.452 477.416 224.025 476.752 224.402C476.088 224.773 475.382 224.959 474.633 224.959ZM475.062 223.592C475.616 223.592 476.12 223.449 476.576 223.162C477.032 222.876 477.396 222.43 477.67 221.824C477.943 221.212 478.08 220.431 478.08 219.48C478.08 218.061 477.787 217.013 477.201 216.336C476.615 215.652 475.909 215.311 475.082 215.311C474.21 215.311 473.493 215.672 472.934 216.395C472.374 217.111 472.094 218.139 472.094 219.48C472.094 220.783 472.364 221.795 472.904 222.518C473.445 223.234 474.164 223.592 475.062 223.592ZM487.084 224.959C486.081 224.959 485.212 224.734 484.477 224.285C483.747 223.836 483.184 223.201 482.787 222.381C482.39 221.554 482.191 220.581 482.191 219.461C482.191 218.335 482.39 217.358 482.787 216.531C483.184 215.704 483.744 215.066 484.467 214.617C485.189 214.168 486.039 213.943 487.016 213.943C487.576 213.943 488.135 214.035 488.695 214.217C489.262 214.393 489.776 214.702 490.238 215.145C490.707 215.581 491.081 216.183 491.361 216.951C491.648 217.713 491.791 218.676 491.791 219.842H483.246V218.514H490.365L489.896 219.129C489.864 218.204 489.714 217.462 489.447 216.902C489.18 216.342 488.832 215.939 488.402 215.691C487.979 215.438 487.507 215.311 486.986 215.311C486.368 215.311 485.834 215.473 485.385 215.799C484.936 216.118 484.59 216.587 484.35 217.205C484.109 217.824 483.988 218.579 483.988 219.471C483.988 220.786 484.255 221.801 484.789 222.518C485.329 223.234 486.094 223.592 487.084 223.592C487.794 223.592 488.389 223.413 488.871 223.055C489.359 222.697 489.717 222.179 489.945 221.502L491.557 222.049C491.303 222.661 490.964 223.185 490.541 223.621C490.118 224.051 489.613 224.383 489.027 224.617C488.448 224.845 487.8 224.959 487.084 224.959ZM494.271 224.725V214.178H495.814V216.561L495.746 216.131C496.026 215.525 496.469 215.011 497.074 214.588C497.68 214.158 498.415 213.943 499.281 213.943C500.03 213.943 500.674 214.109 501.215 214.441C501.755 214.773 502.172 215.249 502.465 215.867C502.758 216.479 502.904 217.218 502.904 218.084V224.725H501.264V218.211C501.264 217.345 501.085 216.645 500.727 216.111C500.375 215.577 499.792 215.311 498.979 215.311C498.1 215.311 497.367 215.646 496.781 216.316C496.202 216.98 495.912 217.944 495.912 219.207V224.725H494.271ZM507.875 224.725C507.458 224.725 507.094 224.588 506.781 224.314C506.469 224.035 506.312 223.683 506.312 223.26V215.545H504.613V214.178H506.312V211.971L507.953 211.619V214.178H510.043V215.545H507.953V222.82C507.953 223.035 507.982 223.178 508.041 223.25C508.106 223.322 508.24 223.357 508.441 223.357H510.053V224.725H507.875Z" fill="#CACACA"/>
<defs>
<linearGradient id="paint0_linear_1431_1943" x1="361" y1="246.75" x2="254.681" y2="218.348" gradientUnits="userSpaceOnUse">
<stop stop-color="#3F5EF4"/>
<stop offset="0.473958" stop-color="#7289F7"/>
<stop offset="1" stop-color="#74FEC5"/>
</linearGradient>
<linearGradient id="paint1_linear_1431_1943" x1="341" y1="239.237" x2="278.052" y2="218.666" gradientUnits="userSpaceOnUse">
<stop stop-color="#3F5EF4"/>
<stop offset="0.473958" stop-color="#7289F7"/>
<stop offset="1" stop-color="#74FEC5"/>
</linearGradient>
<linearGradient id="paint2_linear_1431_1943" x1="298" y1="144.75" x2="197.114" y2="119.369" gradientUnits="userSpaceOnUse">
<stop stop-color="#3F5EF4"/>
<stop offset="0.473958" stop-color="#7289F7"/>
<stop offset="1" stop-color="#74FEC5"/>
</linearGradient>
<linearGradient id="paint3_linear_1431_1943" x1="278" y1="137.237" x2="220.032" y2="120.098" gradientUnits="userSpaceOnUse">
<stop stop-color="#3F5EF4"/>
<stop offset="0.473958" stop-color="#7289F7"/>
<stop offset="1" stop-color="#74FEC5"/>
</linearGradient>
</defs>
</svg>
