<svg width="1120" height="113" viewBox="0 0 1120 113" fill="none" xmlns="http://www.w3.org/2000/svg">
<g opacity="0.8">
<path d="M0.878906 45.0423V67.4106C0.878906 75.1315 7.13771 81.391 14.8586 81.391C16.6493 81.391 18.3608 81.0545 19.9338 80.4409C22.3651 84.5646 26.8523 87.3311 31.9855 87.3311C37.1187 87.3311 41.6053 84.5639 44.0367 80.4402C45.6541 81.0699 47.3748 81.3921 49.1105 81.3903C56.8314 81.3903 63.0909 75.1308 63.0909 67.4093V45.0416C63.0909 37.3207 56.8314 31.0619 49.1105 31.0619C47.3211 31.0619 45.6103 31.3984 44.0367 32.0107C41.606 27.887 37.1194 25.1191 31.9862 25.1191C26.8517 25.1191 22.3644 27.887 19.9338 32.0113C18.3163 31.3819 16.5956 31.0599 14.8599 31.0619C7.13837 31.0619 0.878906 37.3207 0.878906 45.0423Z" fill="#FFF6C0"/>
<path d="M121.305 27.57C112.031 25.098 102.499 30.574 100.015 39.8C98.386 45.845 100.189 52.001 104.235 56.224C102.219 58.3183 100.767 60.8894 100.015 63.697C97.529 72.924 103.033 82.406 112.307 84.878C115.154 85.6395 118.148 85.6667 121.009 84.9572C123.869 84.2478 126.504 82.8247 128.665 80.821C130.748 82.7567 133.276 84.15 136.025 84.878C145.299 87.35 154.831 81.875 157.316 72.649C158.944 66.603 157.142 60.446 153.096 56.225C155.112 54.1305 156.564 51.559 157.316 48.751C159.801 39.525 154.297 30.043 145.024 27.571C142.177 26.8094 139.183 26.7819 136.322 27.4912C133.462 28.2005 130.828 29.6235 128.666 31.627C126.582 29.6916 124.054 28.2977 121.305 27.57Z" fill="#00EB90"/>
<g clip-path="url(#clip0_1310_13944)">
<path d="M196.021 64.3226C191.548 59.8499 191.548 52.5981 196.021 48.1254L215.901 28.2452C220.373 23.7724 227.625 23.7724 232.098 28.2452L251.978 48.1253C256.451 52.5981 256.451 59.8499 251.978 64.3226L232.098 84.2027C227.625 88.6755 220.374 88.6755 215.901 84.2028L196.021 64.3226Z" fill="#C0FFE7"/>
</g>
<g clip-path="url(#clip1_1310_13944)">
<path d="M320 88.2246C337.673 88.2246 352 73.8977 352 56.2246C352 38.5515 337.673 24.2246 320 24.2246C302.327 24.2246 288 38.5515 288 56.2246C288 73.8977 302.327 88.2246 320 88.2246Z" fill="#FFF6C0"/>
</g>
<g clip-path="url(#clip2_1310_13944)">
<path d="M388.021 64.3226C383.548 59.8499 383.548 52.5981 388.021 48.1254L407.901 28.2452C412.373 23.7724 419.625 23.7724 424.098 28.2452L443.978 48.1253C448.451 52.5981 448.451 59.8499 443.978 64.3226L424.098 84.2027C419.625 88.6755 412.374 88.6755 407.901 84.2028L388.021 64.3226Z" fill="#00EB90"/>
</g>
<path d="M480.879 45.0423V67.4106C480.879 75.1315 487.138 81.391 494.859 81.391C496.649 81.391 498.361 81.0545 499.934 80.4409C502.365 84.5646 506.852 87.3311 511.986 87.3311C517.119 87.3311 521.605 84.5639 524.037 80.4402C525.654 81.0699 527.375 81.3921 529.11 81.3903C536.831 81.3903 543.091 75.1308 543.091 67.4093V45.0416C543.091 37.3207 536.831 31.0619 529.11 31.0619C527.321 31.0619 525.61 31.3984 524.037 32.0107C521.606 27.887 517.119 25.1191 511.986 25.1191C506.852 25.1191 502.364 27.887 499.934 32.0113C498.316 31.3819 496.596 31.0599 494.86 31.0619C487.138 31.0619 480.879 37.3207 480.879 45.0423Z" fill="#C0FFE7"/>
<path d="M601.305 27.57C592.031 25.098 582.499 30.574 580.015 39.8C578.386 45.845 580.189 52.001 584.235 56.224C582.219 58.3183 580.767 60.8894 580.015 63.697C577.529 72.924 583.033 82.406 592.307 84.878C595.154 85.6395 598.148 85.6667 601.009 84.9572C603.869 84.2478 606.504 82.8247 608.665 80.821C610.748 82.7567 613.276 84.15 616.025 84.878C625.299 87.35 634.831 81.875 637.316 72.649C638.944 66.603 637.142 60.446 633.096 56.225C635.112 54.1305 636.564 51.559 637.316 48.751C639.801 39.525 634.297 30.043 625.024 27.571C622.177 26.8094 619.183 26.7819 616.322 27.4912C613.462 28.2005 610.828 29.6235 608.666 31.627C606.582 29.6916 604.054 28.2977 601.305 27.57Z" fill="#FFF6C0"/>
<g clip-path="url(#clip3_1310_13944)">
<path d="M704 88.2246C721.673 88.2246 736 73.8977 736 56.2246C736 38.5515 721.673 24.2246 704 24.2246C686.327 24.2246 672 38.5515 672 56.2246C672 73.8977 686.327 88.2246 704 88.2246Z" fill="#C0FFE7"/>
</g>
<path d="M768.879 45.0423V67.4106C768.879 75.1315 775.138 81.391 782.859 81.391C784.649 81.391 786.361 81.0545 787.934 80.4409C790.365 84.5646 794.852 87.3311 799.986 87.3311C805.119 87.3311 809.605 84.5639 812.037 80.4402C813.654 81.0699 815.375 81.3921 817.11 81.3903C824.831 81.3903 831.091 75.1308 831.091 67.4093V45.0416C831.091 37.3207 824.831 31.0619 817.11 31.0619C815.321 31.0619 813.61 31.3984 812.037 32.0107C809.606 27.887 805.119 25.1191 799.986 25.1191C794.852 25.1191 790.364 27.887 787.934 32.0113C786.316 31.3819 784.596 31.0599 782.86 31.0619C775.138 31.0619 768.879 37.3207 768.879 45.0423Z" fill="#00EB90"/>
<g clip-path="url(#clip4_1310_13944)">
<path d="M896 88.2246C913.673 88.2246 928 73.8977 928 56.2246C928 38.5515 913.673 24.2246 896 24.2246C878.327 24.2246 864 38.5515 864 56.2246C864 73.8977 878.327 88.2246 896 88.2246Z" fill="#FFF6C0"/>
</g>
<path d="M985.305 27.57C976.031 25.098 966.499 30.574 964.015 39.8C962.386 45.845 964.189 52.001 968.235 56.224C966.219 58.3183 964.767 60.8894 964.015 63.697C961.529 72.924 967.033 82.406 976.307 84.878C979.154 85.6395 982.148 85.6667 985.009 84.9572C987.869 84.2478 990.504 82.8247 992.665 80.821C994.748 82.7567 997.276 84.15 1000.03 84.878C1009.3 87.35 1018.83 81.875 1021.32 72.649C1022.94 66.603 1021.14 60.446 1017.1 56.225C1019.11 54.1305 1020.56 51.559 1021.32 48.751C1023.8 39.525 1018.3 30.043 1009.02 27.571C1006.18 26.8094 1003.18 26.7819 1000.32 27.4912C997.462 28.2005 994.828 29.6235 992.666 31.627C990.582 29.6916 988.054 28.2977 985.305 27.57Z" fill="#C0FFE7"/>
<path d="M1081.31 27.57C1072.03 25.098 1062.5 30.574 1060.02 39.8C1058.39 45.845 1060.19 52.001 1064.24 56.224C1062.22 58.3183 1060.77 60.8894 1060.02 63.697C1057.53 72.924 1063.03 82.406 1072.31 84.878C1075.15 85.6395 1078.15 85.6667 1081.01 84.9572C1083.87 84.2478 1086.5 82.8247 1088.67 80.821C1090.75 82.7567 1093.28 84.15 1096.03 84.878C1105.3 87.35 1114.83 81.875 1117.32 72.649C1118.94 66.603 1117.14 60.446 1113.1 56.225C1115.11 54.1305 1116.56 51.559 1117.32 48.751C1119.8 39.525 1114.3 30.043 1105.02 27.571C1102.18 26.8094 1099.18 26.7819 1096.32 27.4912C1093.46 28.2005 1090.83 29.6235 1088.67 31.627C1086.58 29.6916 1084.05 28.2977 1081.31 27.57Z" fill="#00EB90"/>
</g>
<defs>
<clipPath id="clip0_1310_13944">
<rect width="64" height="64" fill="white" transform="translate(192 24.2246)"/>
</clipPath>
<clipPath id="clip1_1310_13944">
<rect width="64" height="64" fill="white" transform="translate(288 24.2246)"/>
</clipPath>
<clipPath id="clip2_1310_13944">
<rect width="64" height="64" fill="white" transform="translate(384 24.2246)"/>
</clipPath>
<clipPath id="clip3_1310_13944">
<rect width="64" height="64" fill="white" transform="translate(672 24.2246)"/>
</clipPath>
<clipPath id="clip4_1310_13944">
<rect width="64" height="64" fill="white" transform="translate(864 24.2246)"/>
</clipPath>
</defs>
</svg>
