<svg width="188" height="63" viewBox="0 0 188 63" fill="none" xmlns="http://www.w3.org/2000/svg">
<path d="M170.565 49.3786C159.758 49.3786 153.15 42.8371 153.15 31.8758C153.15 21.3786 159.847 14.373 170.277 14.373C180.355 14.373 187.051 20.8482 187.051 31.7653V34.5498H164.797V35.0139C164.797 38.5277 167.051 41.025 170.808 41.025C173.393 41.025 175.449 39.8979 176.178 37.9753H187.007C185.835 44.9366 179.847 49.3786 170.565 49.3786ZM164.797 27.9642H176.134C176.09 24.8924 173.703 22.7266 170.543 22.7266C167.405 22.7266 164.885 24.8924 164.797 27.9642Z" fill="#FFDC00"/>
<path d="M150.669 3.5V48.7597H138.846V3.5H150.669Z" fill="#FFDC00"/>
<path d="M117.354 62.1963C107.277 62.1963 101.354 57.5775 100.868 51.036H112.293C112.647 53.2902 114.768 54.1742 117.708 54.1742C121 54.1742 123.409 52.804 123.409 48.7156V42.9034H123.034C121.73 46.2626 118.194 48.3178 113.465 48.3178C106.172 48.3178 100.072 43.4559 100.072 31.7653C100.072 19.5885 106.57 14.373 113.398 14.373C118.525 14.373 121.641 17.3565 122.967 20.7156H123.232V14.815H135.034V48.7377C135.034 57.3565 127.962 62.1963 117.354 62.1963ZM112.205 31.7653C112.205 36.9145 114.238 39.8758 117.774 39.8758C121.288 39.8758 123.409 36.8703 123.409 31.7653C123.409 26.6161 121.288 23.478 117.774 23.478C114.238 23.478 112.205 26.6382 112.205 31.7653Z" fill="#FFDC00"/>
<path d="M79.6646 62.1963C69.5872 62.1963 63.6646 57.5775 63.1784 51.036H74.6038C74.9574 53.2902 77.0789 54.1742 80.0182 54.1742C83.311 54.1742 85.7198 52.804 85.7198 48.7156V42.9034H85.3441C84.0403 46.2626 80.5044 48.3178 75.7751 48.3178C68.4823 48.3178 62.3828 43.4559 62.3828 31.7653C62.3828 19.5885 68.88 14.373 75.7088 14.373C80.8358 14.373 83.9519 17.3565 85.2778 20.7156H85.543V14.815H97.3441V48.7377C97.3441 57.3565 90.2723 62.1963 79.6646 62.1963ZM74.5154 31.7653C74.5154 36.9145 76.5486 39.8758 80.0845 39.8758C83.5983 39.8758 85.7198 36.8703 85.7198 31.7653C85.7198 26.6161 83.5983 23.478 80.0845 23.478C76.5486 23.478 74.5154 26.6382 74.5154 31.7653Z" fill="#FFDC00"/>
<path d="M47.9004 48.7602V14.8155H59.7236V48.7602H47.9004ZM47.9225 5.71052C47.9225 2.70499 50.5523 0.251953 53.8009 0.251953C57.0496 0.251953 59.6794 2.70499 59.6794 5.71052C59.6794 8.71604 57.0496 11.1691 53.8009 11.1691C50.5523 11.1691 47.9225 8.71604 47.9225 5.71052Z" fill="#FFDC00"/>
<path d="M29.7459 18.3947C28.9282 15.1461 26.2099 13.2676 22.232 13.2676C15.9337 13.2676 12.2431 17.9748 12.2431 26.0411C12.2431 34.2179 15.6906 38.9914 22.1657 38.9914C27.8011 38.9914 30.7182 36.3173 30.8287 32.1626H22.4088V23.6322H42.3204V29.8201C42.3204 42.1295 33.8564 49.3781 22.0774 49.3781C8.92818 49.3781 0 40.5383 0 26.2179C0 11.3008 9.81215 2.88086 21.9669 2.88086C32.6188 2.88086 40.7956 9.3339 41.7901 18.3947H29.7459Z" fill="#FFDC00"/>
</svg>
