<svg width="514" height="145" viewBox="0 0 514 138" fill="none" xmlns="http://www.w3.org/2000/svg">
<path d="M399.829 108.04C396.373 108.872 392.405 107.848 390.997 104.84C389.461 101.576 390.933 97.5442 394.581 96.6482C400.725 95.1122 404.181 93.7042 404.181 91.6562C404.181 90.8242 403.605 90.4402 402.645 90.6322C400.981 90.9522 399.893 91.0162 397.717 91.0162C393.429 91.1442 391.381 88.4562 391.381 84.6162C391.381 80.9042 393.749 78.2162 397.397 78.1522C399.189 78.1522 400.789 78.3442 402.581 78.7922C404.821 79.4322 409.621 80.1362 414.485 78.9202C417.301 78.2162 419.477 77.8322 422.421 77.8322C426.709 77.8322 429.461 79.9442 429.461 83.7842C429.461 88.1362 427.413 89.7362 424.661 89.9282C422.869 90.0562 421.077 89.8002 419.605 89.5442C418.773 89.4162 418.069 90.0562 418.453 91.0162C419.221 93.2562 421.077 94.7922 425.877 97.2882C429.461 99.1442 429.845 103.496 427.349 106.312C425.045 108.808 420.373 108.808 417.237 107.08C414.677 105.608 412.565 103.304 411.669 101.64C411.157 100.68 410.261 100.552 409.493 101.576C407.701 103.944 404.757 106.76 399.829 108.04ZM441.237 110.28C437.461 110.28 434.773 108.552 434.965 104.776C435.093 102.6 435.285 101.192 435.285 100.04C435.221 99.4642 434.901 99.2722 434.133 99.4642C433.365 99.7202 432.661 99.7842 431.573 99.7842C428.437 99.7202 426.901 97.4162 426.901 94.0242C426.901 89.7362 428.885 87.6242 431.829 87.6242C432.917 87.6242 433.685 87.7522 434.453 87.9442C435.093 88.1362 435.477 87.7522 435.349 87.1762C435.221 86.3442 435.093 84.9362 435.093 83.5922C435.349 80.2002 437.461 77.5762 441.685 77.5762C446.229 77.5762 449.365 79.6882 449.301 84.1682C449.237 86.7922 448.981 88.7762 448.661 90.5042C448.149 93.0642 448.405 95.7522 448.917 98.3122C449.301 100.296 449.493 102.664 449.045 105.224C448.469 108.296 446.165 110.28 441.237 110.28ZM419.861 137.224C403.349 137.224 394.389 132.36 394.325 121.992C394.325 114.568 401.941 109.128 411.925 108.936C415.189 108.936 417.941 109.576 420.181 110.216C424.789 111.496 426.709 111.816 432.213 111.624C439.381 111.432 449.365 114.184 449.365 124.552C449.365 133.512 438.869 137.224 419.861 137.224ZM421.141 126.088C429.333 126.088 433.365 125 433.365 122.952C433.365 120.968 431.189 120.328 428.565 120.84C427.157 121.096 424.597 121.032 422.101 120.712C418.645 120.328 415.445 119.88 413.461 120.328C411.285 120.84 410.325 121.864 410.325 123.016C410.325 125.064 413.653 126.024 421.141 126.088Z" fill="white"/>
<path d="M369.877 109.769C371.413 110.089 371.669 108.553 371.669 105.673C371.669 103.497 371.413 102.601 368.661 102.345C367.765 102.281 367.829 102.217 366.421 102.217C364.949 102.217 364.245 102.409 364.117 103.753C363.989 104.841 363.925 107.337 364.181 108.297C364.501 109.385 365.589 109.321 366.421 109.321C368.149 109.321 368.725 109.513 369.877 109.769ZM362.389 88.2646C362.581 89.9286 362.837 90.8886 364.501 90.9526C365.845 91.0166 367.573 91.0166 368.405 90.8886C371.413 90.5046 371.605 88.6486 371.157 85.3206C370.517 80.8406 373.461 76.8086 378.453 76.8086C383.637 76.8086 387.093 78.6006 387.093 85.5126C387.093 94.0886 385.365 100.361 385.045 108.873C384.853 114.249 386.261 121.929 386.261 127.177C386.261 132.809 382.869 136.393 378.005 136.329C372.885 136.265 369.877 133.577 370.453 127.241C370.837 123.145 370.453 122.569 369.237 122.313C367.573 121.929 366.421 121.865 364.501 121.865C362.901 121.865 362.389 122.697 362.133 124.361C361.493 128.713 359.189 131.209 355.797 133.065C351.189 135.625 345.749 135.433 342.549 134.921C336.277 133.705 332.245 127.433 330.645 120.265C328.917 114.121 328.597 107.145 330.197 95.1766C331.413 85.0006 337.685 77.9606 346.645 77.9606C355.861 77.9606 361.557 81.2246 362.389 88.2646ZM346.453 119.177C349.397 120.521 351.189 116.297 351.189 105.353C351.189 97.0326 350.677 92.8086 347.477 92.8086C345.173 92.8086 343.125 96.8406 343.125 106.441C343.125 113.417 343.957 118.025 346.453 119.177Z" fill="white"/>
<path d="M266.649 137.033C259.417 137.097 256.345 132.233 257.817 127.625C258.201 126.345 258.137 125.705 257.753 124.681C256.281 120.841 259.865 117.577 265.113 117.513C271.897 117.449 273.305 120.073 272.921 123.081C272.601 124.873 274.265 125.641 276.313 124.937C280.857 123.593 285.785 123.529 290.009 124.169C295.513 125.065 297.497 125.129 302.169 123.529C307.929 121.545 312.153 124.681 312.153 129.161C312.153 134.473 310.041 136.457 306.073 136.841C302.297 137.225 296.665 136.521 294.425 136.137C288.345 134.921 284.121 134.985 279.897 135.689C276.377 136.265 270.489 136.969 266.649 137.033ZM284.313 103.753C267.353 103.561 257.369 100.041 257.369 91.9765C257.369 85.2565 261.913 81.2245 266.393 80.5845C270.809 79.9445 273.241 79.4965 277.401 78.7285C284.505 77.2565 292.313 78.0885 299.929 80.2645C306.713 82.1845 311.129 85.1925 311.129 91.4005C311.129 100.745 300.953 103.945 284.313 103.753ZM295.449 91.5925C295.449 90.1205 293.721 89.0965 285.017 89.0965C275.801 89.0965 272.985 90.3125 272.985 91.3365C272.985 93.0645 276.313 93.8325 284.121 93.8325C292.761 93.8325 295.449 93.0645 295.449 91.5925ZM273.689 115.273C270.297 115.721 266.009 116.233 261.913 116.425C256.025 116.681 253.529 114.185 253.529 109.961C253.529 106.249 256.409 103.753 260.633 103.625C264.793 103.497 267.865 103.945 271.065 104.521C277.785 105.737 287.257 105.993 293.849 105.033C298.521 104.329 303.193 103.753 307.289 103.817C311.577 103.881 314.969 105.993 314.969 109.897C314.969 113.865 312.665 116.617 306.393 116.169C302.617 115.913 299.289 115.401 295.833 114.825C292.441 114.249 292.313 115.337 292.377 116.489C292.505 119.241 290.777 121.609 284.825 121.609C279.705 121.609 276.825 119.369 276.953 116.937C277.081 115.337 276.953 114.825 273.689 115.273Z" fill="white"/>
<path d="M220.186 134.28C214.618 134.28 210.01 130.888 204.442 133.256C196.89 136.392 191.898 132.232 191.706 125.96C191.642 123.08 192.026 120.328 192.922 117.896C194.202 114.12 194.202 108.552 193.37 105.608C191.898 100.232 191.578 96.1357 191.578 89.6717C191.578 84.9997 193.242 81.6077 195.418 80.2637C197.978 78.7277 201.114 78.7277 203.674 79.7517C205.21 80.3277 207.386 81.0317 209.178 81.0317C211.93 81.0317 213.658 80.6477 215.706 80.0717C219.674 79.1117 221.594 79.0477 223.898 80.1357C226.138 81.2877 227.162 83.3997 227.162 86.7277C227.162 90.7597 225.114 93.8317 221.146 94.5997C217.178 95.3037 214.682 94.8557 209.69 94.4717C208.474 94.2797 207.77 94.9197 207.386 96.0077C207.002 97.2877 207.258 99.1437 207.706 100.808C208.538 103.432 208.922 106.824 208.922 110.536C208.922 112.968 208.41 115.336 208.026 117.256C207.706 119.112 208.794 120.136 210.138 120.136C214.106 120.136 216.282 118.344 219.93 118.344C224.538 118.344 227.93 120.584 227.93 126.344C227.93 130.888 224.858 134.28 220.186 134.28ZM238.298 136.2C233.178 136.2 229.978 133.192 229.978 127.88C229.978 122.568 232.026 117.384 231.706 103.368C231.514 94.2157 230.042 91.3357 230.042 85.7677C230.042 81.7997 232.09 77.5117 237.594 77.5117C243.098 77.5117 245.978 80.4557 245.978 84.2957C245.978 91.4637 243.93 94.7917 243.93 97.0317C243.93 98.7597 244.122 98.5037 245.914 98.5037C249.434 98.5037 252.698 100.616 252.698 106.056C252.698 111.496 249.754 113.608 246.042 113.608C243.994 113.608 243.866 113.8 243.866 116.488C243.866 119.688 245.658 124.296 245.658 128.136C245.658 132.04 243.354 136.2 238.298 136.2Z" fill="white"/>
<path d="M139.355 136.009C133.275 137.353 128.475 133.385 131.035 128.777C132.059 127.113 131.995 127.433 131.227 125.897C128.923 120.969 135.259 116.105 141.147 117.769C145.947 119.113 149.787 119.433 152.603 119.433C159.707 119.433 166.363 119.049 173.403 117.961C180.123 116.937 186.395 120.521 183.643 125.833C182.939 127.113 182.939 128.009 184.219 129.417C187.931 133.577 181.467 137.225 175.067 136.201C170.011 135.433 167.451 135.561 164.251 136.201C159.643 137.097 152.987 137.161 147.099 135.881C144.027 135.177 141.723 135.497 139.355 136.009ZM149.275 128.265C150.619 128.201 156.699 127.945 158.747 127.945C160.667 127.945 164.059 128.137 167.195 128.329C168.283 128.457 169.371 128.393 169.371 127.049C169.371 126.089 168.411 125.833 167.003 125.961C163.995 126.089 160.475 126.217 157.339 126.217C151.707 126.217 150.555 126.153 149.019 126.025C147.291 125.833 146.011 125.833 146.011 127.177C146.011 128.201 147.099 128.457 149.275 128.265ZM147.739 116.617C143.323 115.593 139.099 115.657 134.363 116.681C129.243 117.705 126.555 114.633 126.555 111.049C126.555 107.657 128.795 105.929 132.507 105.417C136.283 104.905 139.483 104.969 144.283 105.993C152.027 107.529 161.755 107.657 166.491 106.697C172.635 105.481 177.627 105.033 182.171 105.929C186.075 106.697 188.507 108.297 188.507 111.817C188.507 115.529 185.883 118.025 180.187 116.361C177.307 115.529 174.427 115.337 171.355 116.297C165.275 118.089 155.931 118.537 147.739 116.617ZM156.507 105.801C152.027 105.865 146.459 104.969 138.715 103.817C133.467 102.985 129.883 100.105 129.883 95.4969C129.883 90.9529 131.995 88.0729 138.267 88.0729C141.723 88.0729 144.987 88.3929 148.187 88.7129C150.619 88.9689 158.683 88.7769 163.931 88.4569C166.427 88.2649 167.195 87.6889 167.195 86.8569C167.195 86.0889 166.619 85.5769 164.571 85.8329C159.259 86.4729 153.115 86.7289 147.995 86.7929C145.371 86.7929 137.947 86.4089 136.667 86.2809C133.211 85.7689 131.163 84.6809 131.163 81.4809C131.163 78.7289 132.891 77.0649 135.835 76.8089C139.355 76.5529 142.491 76.8089 146.139 77.5769C149.659 78.3449 153.243 78.7289 158.939 77.7689C162.971 77.0649 165.787 76.8729 170.267 76.7449C181.019 76.4889 184.347 79.3689 183.771 86.2809C183.387 90.5049 179.803 92.8729 174.363 93.8969C167.131 95.4329 157.083 95.8809 148.123 94.4729C146.715 94.2809 145.883 94.4729 145.883 95.2409C145.883 96.0089 146.715 96.3289 148.123 96.4569C151.515 96.8409 156.955 96.9689 163.675 96.8409C169.179 96.7769 172.251 96.0729 177.755 94.9209C181.403 94.1529 184.155 95.1769 184.539 97.7369C185.051 101.129 183.195 102.857 179.547 103.433C172.187 104.521 164.123 105.609 156.507 105.801Z" fill="white"/>
<path d="M110.169 136.328C105.817 136.328 103.257 133.32 103.257 128.008C103.257 122.696 105.497 112.264 105.497 104.136C105.497 94.024 104.089 90.824 104.089 85.256C104.089 81.288 106.137 77 111.577 77C116.953 77 119.065 80.328 119.065 84.168C119.065 91.336 118.169 94.28 118.169 96.52C118.169 98.568 118.681 99.272 120.153 99.272C122.585 99.272 126.105 101.384 126.105 106.824C126.105 112.264 123.225 114.376 119.641 114.376C117.657 114.376 117.465 115.208 117.465 117.896C117.465 121.096 118.681 125.512 118.681 129.352C118.681 133.256 115.737 136.328 110.169 136.328ZM82.1375 133.064C79.9615 133.064 76.3775 132.296 73.6895 130.44C67.7375 125.832 65.4335 121.352 65.0495 115.976C64.8575 112.776 65.6895 110.344 66.4575 108.168C67.4175 103.688 66.2655 101.64 66.0095 96.328C65.7535 91.656 68.8255 85.96 71.3215 83.528C73.8815 81.032 77.1455 79.56 83.3535 79.56C89.6255 79.56 97.5615 82.824 98.3295 92.296C98.7775 97.16 100.569 104.904 100.569 112.136C100.569 128.264 95.2575 133 82.1375 133.064ZM83.0335 117.256C85.3375 117.256 86.7455 116.232 87.4495 114.12C88.1535 112.2 87.8335 109.448 86.9375 106.12C86.3615 103.752 85.9135 101.832 85.8495 100.488C85.5935 97.928 85.2095 95.496 83.3535 95.496C80.4735 95.496 79.2575 98.632 79.2575 106.184C79.2575 113.288 80.7935 117.256 83.0335 117.256Z" fill="white"/>
<path d="M456.661 23.1042C456.661 13.5682 462.037 1.02417 475.541 2.49617C488.469 3.90417 494.741 10.5602 494.741 24.0642C494.741 30.4002 492.053 35.6482 482.133 38.7842C470.613 42.3682 456.661 41.0882 456.661 23.1042ZM475.605 27.0082C478.741 27.2642 482.517 25.4082 482.517 21.3122C482.517 18.1122 479.445 15.0402 475.669 14.9762C472.533 14.9122 470.229 17.4722 470.229 21.1842C470.229 24.8962 471.381 26.6882 475.605 27.0082ZM506.325 59.5842C501.141 59.5842 498.069 56.7682 497.429 51.7762C496.853 47.4882 497.429 43.5202 498.453 38.8482C499.989 31.6802 499.477 26.6882 498.837 22.4002C498.133 17.8562 497.365 12.8002 497.621 8.70417C497.941 4.41617 501.077 0.576172 505.429 0.576172C511.253 0.576172 513.365 3.90417 513.749 8.70417C514.133 13.8882 513.749 17.7282 513.045 22.5282C512.085 28.6082 512.213 33.9202 512.853 37.5042C513.621 41.9202 514.133 46.0162 513.813 50.9442C513.493 56.0002 511.509 59.5842 506.325 59.5842ZM485.973 43.1362C492.949 41.9202 495.701 44.8642 495.701 49.7282C495.701 54.0802 493.461 57.3442 488.981 57.3442C486.037 57.3442 484.053 57.1522 481.301 56.5762C476.629 55.6162 475.285 55.6802 472.021 56.3842C466.901 57.5362 464.277 57.7922 461.589 57.7922C455.701 57.7922 454.293 55.2322 454.293 51.0082C454.293 45.5682 457.173 43.0082 463.253 43.7122C471.701 44.7362 477.717 44.6082 485.973 43.1362Z" fill="white"/>
<path d="M393.556 38.784C393.62 36.544 394.836 34.944 397.396 34.368C400.788 33.536 406.164 33.664 409.3 34.24C417.3 35.584 426.9 35.264 435.092 33.984C442.58 32.832 448.532 35.648 447.508 42.112C447.06 44.992 445.908 47.168 438.612 48.32C432.212 49.216 421.14 49.536 412.948 48.96C411.476 48.832 410.964 49.088 410.964 49.6C410.964 50.368 411.604 50.56 413.204 50.688C420.884 51.264 434.836 50.688 440.916 49.344C446.356 48.128 449.3 50.496 449.492 53.312C449.684 56.96 447.252 58.752 444.052 59.264C439.956 59.904 435.988 59.776 429.844 59.136C423.444 58.368 410.708 58.368 405.012 59.072C398.228 59.84 393.94 57.472 393.748 52.416C393.556 48.448 395.604 45.312 399.252 44.16C403.668 42.944 410.324 42.304 416.66 43.136C423.316 43.904 428.244 43.712 430.1 43.52C431.7 43.328 432.084 42.944 432.084 42.176C432.084 41.408 431.316 41.216 430.1 41.408C426.58 42.048 423.188 42.496 417.812 41.792C410.516 40.96 405.588 41.408 400.084 42.432C396.18 43.264 393.492 41.664 393.556 38.784ZM412.5 21.632C410.068 21.184 406.548 21.12 402.196 21.184C396.948 21.184 394.004 19.2 394.004 16C394.004 14.016 394.26 12.992 395.412 11.648C396.436 10.496 396.372 9.792 395.988 8.64C395.796 7.872 395.476 6.848 395.476 5.376C395.476 2.88 398.804 0 405.268 0C411.284 0 418.58 1.216 425.364 1.216C432.788 1.216 435.54 0.0639992 440.596 0.0639992C444.436 0.0639992 447.06 1.984 447.06 4.288C447.06 8.32 444.692 9.728 440.788 9.728C434.964 9.728 430.676 10.56 426.196 10.56C421.652 10.56 416.404 9.92 413.524 9.92C411.54 9.92 410.708 10.432 410.708 11.648C410.708 12.992 411.668 13.248 413.588 13.248C419.092 13.248 423.188 13.376 427.284 12.736C430.804 12.224 434.068 11.904 439.508 11.904C444.948 11.904 448.34 13.056 448.34 16.512C448.34 20.416 444.884 21.376 440.404 21.248C435.156 21.12 432.276 20.928 429.588 21.376C425.172 22.08 416.34 22.272 412.5 21.632ZM429.268 23.808C430.228 23.744 431.636 23.616 434.452 23.232C436.692 22.848 440.852 22.464 445.204 22.592C449.172 22.784 451.924 24.256 451.924 27.328C451.924 30.656 449.684 32.576 443.796 32.128C440.404 31.808 437.716 31.936 434.964 32.384C430.932 32.96 426.644 33.472 422.356 33.472C418.772 33.472 415.06 33.216 411.412 32.64C407.316 31.808 403.22 31.616 398.292 31.872C392.788 32.256 390.484 30.464 390.484 27.328C390.484 24.32 392.66 22.464 396.564 22.4C400.66 22.272 403.604 22.528 406.74 23.04C408.852 23.424 411.156 23.616 413.14 23.808C417.62 24.32 424.148 24.192 429.268 23.808Z" fill="white"/>
<path d="M337.941 57.7277C334.677 58.9437 330.069 57.5997 328.469 53.6957C326.997 49.4077 328.149 45.6317 331.157 42.8797C336.725 37.8237 340.501 28.0317 340.501 18.5597C340.501 17.4717 340.181 16.8957 339.221 17.1517C338.005 17.4717 336.725 17.6637 335.061 17.6637C330.581 17.6637 328.021 14.2717 328.021 9.27972C328.021 4.22372 331.157 1.27972 334.677 1.27972C336.149 1.27972 338.133 1.47172 339.669 2.11172C341.333 2.81572 344.277 3.45572 347.733 3.45572C350.677 3.45572 352.469 3.26372 356.181 2.30372C361.173 1.02372 365.781 4.09572 365.781 9.53572C365.781 15.5517 362.389 16.8957 359.381 16.9597C357.845 17.0877 356.821 16.8317 355.349 16.4477C354.517 16.3197 353.941 16.8317 354.069 18.3037C354.837 27.2637 357.397 38.8477 362.581 44.3517C365.781 47.7437 366.357 53.3757 362.773 56.5757C360.149 58.8797 355.221 58.5597 352.341 56.0637C349.845 53.8877 348.565 50.1757 347.861 43.8397C347.605 41.4077 346.069 41.1517 345.685 43.6477C344.341 52.3517 342.485 55.9997 337.941 57.7277ZM375.253 59.1997C370.133 59.1997 366.933 56.1917 366.933 50.8797C366.933 45.5677 368.981 40.3837 368.661 26.3677C368.469 17.2157 366.997 14.3357 366.997 8.76772C366.997 4.79972 369.045 0.511719 374.549 0.511719C380.053 0.511719 382.933 3.45572 382.933 7.29572C382.933 14.4637 380.885 17.7917 380.885 20.0317C380.885 21.7597 381.077 21.5037 382.869 21.5037C386.389 21.5037 389.653 23.6157 389.653 29.0557C389.653 34.4957 386.709 36.6077 382.997 36.6077C380.949 36.6077 380.821 36.7997 380.821 39.4877C380.821 42.6877 382.613 47.2957 382.613 51.1357C382.613 55.0397 380.309 59.1997 375.253 59.1997Z" fill="white"/>
<path d="M286.036 18.3682C289.364 18.3682 290.772 17.9842 290.772 16.2562C290.772 15.6162 289.748 15.2962 285.844 15.2962C282.26 15.2962 281.236 15.6162 281.236 16.5762C281.236 18.1122 282.388 18.3682 286.036 18.3682ZM272.468 27.9042C268.372 27.9042 266.068 25.5362 266.068 22.2082C266.068 20.7362 266.324 19.8402 267.22 18.6242C268.116 17.3442 268.308 16.6402 268.308 15.2962C268.308 13.8242 267.988 12.9922 267.604 11.9682C267.028 10.4322 266.772 9.08817 266.772 7.29617C266.772 3.39217 269.268 0.960171 274.196 0.960171C278.548 0.960171 281.044 2.62417 281.492 4.67217C281.684 5.37617 281.684 6.01617 281.492 6.84817C281.364 7.55217 281.556 7.80817 282.772 8.00017C284.436 8.19217 286.868 8.19217 288.596 7.93617C289.748 7.74417 290.068 7.36017 289.94 6.33617C289.876 5.50417 289.94 4.86417 290.132 4.28817C290.708 1.98417 293.076 0.640171 296.66 0.640171C301.78 0.640171 304.404 3.07217 304.404 8.25617C304.404 10.1762 304.084 11.3922 303.572 12.8002C303.06 14.3362 302.932 15.3602 303.38 16.4482C303.956 17.7922 304.084 19.0722 304.084 20.8642C304.084 25.0242 301.844 27.8402 296.084 27.9042C292.308 27.9042 289.556 27.5202 287.444 26.9442C284.052 26.0482 282.388 26.0482 280.404 26.6242C276.628 27.6482 274.452 27.9042 272.468 27.9042ZM312.34 27.7762C308.052 27.7762 305.364 25.7922 305.3 21.8242C305.3 20.8002 305.62 19.2642 306.26 17.4722C307.22 14.6562 307.22 12.9922 306.58 10.4322C306.196 8.96017 306.004 7.55217 306.004 6.14417C306.068 3.26417 308.052 0.576172 313.428 0.576172C318.74 0.576172 320.596 2.62417 320.788 5.05617C320.852 6.40017 320.724 7.16817 320.468 7.93617C320.212 8.64017 320.724 8.89617 322.26 8.76817C324.18 8.64017 326.356 10.1122 326.356 13.8242C326.356 17.7922 324.5 19.9042 321.172 19.3282C320.212 19.1362 319.956 19.4562 320.084 20.1602C320.404 21.2482 320.468 22.4002 320.212 23.8082C319.828 25.8562 317.844 27.7762 312.34 27.7762ZM267.092 35.3282C267.156 32.7042 268.5 31.0402 271.06 30.2722C274.836 29.1202 280.468 29.3762 284.052 30.1442C291.412 31.4882 299.54 31.2322 307.988 29.7602C315.86 28.4162 322.132 31.6802 321.108 39.2962C320.724 42.8162 319.764 45.2482 311.828 46.7202C305.62 47.7442 294.548 48.0002 286.74 47.2962C285.14 47.1682 284.564 47.4242 284.564 48.0642C284.564 48.8962 285.204 49.1522 286.868 49.2802C294.228 49.9202 307.476 49.4722 313.364 48.0002C319.252 46.4642 322.772 49.0242 323.092 52.3522C323.476 56.4482 320.916 58.6882 317.524 59.2002C313.492 59.8402 309.46 59.5202 304.404 58.9442C298.196 58.1762 285.844 57.9842 279.572 58.7522C272.212 59.7122 267.476 57.2162 267.348 51.2002C267.22 46.2082 269.268 42.9442 273.044 41.5362C277.396 40.0642 283.988 39.2962 290.26 40.2562C296.916 41.2162 301.78 41.0882 303.7 40.7682C305.236 40.5762 305.748 40.1282 305.748 39.2962C305.748 38.4642 304.98 38.2722 303.764 38.4642C300.244 39.1682 296.724 39.6162 291.348 38.8482C284.5 37.9522 279.764 38.2722 274.644 39.4242C270.164 40.5122 267.028 38.7202 267.092 35.3282Z" fill="white"/>
<path d="M208.788 57.7283C204.692 57.7283 201.044 55.2323 201.044 48.6403C201.044 46.2723 201.876 44.2883 207.38 43.0083C213.908 41.4083 213.972 22.5923 213.972 20.4163C213.972 18.2403 213.396 17.6643 211.924 17.6003C210.452 17.5363 208.532 18.3043 206.484 18.2403C203.668 18.1123 201.364 15.2963 201.044 10.4963C200.596 3.71231 203.924 1.40831 208.34 2.30431C210.964 2.81631 212.948 4.28831 216.02 3.58431C226.324 1.08831 228.116 6.33631 228.116 16.0003C228.116 27.7763 224.404 44.2243 222.484 48.1923C220.052 53.2483 214.996 57.6003 208.788 57.7283ZM253.588 60.0963C249.108 60.0963 246.164 56.6403 246.868 50.7523C247.636 44.4163 248.596 38.9763 248.34 37.3123C247.956 35.2003 247.316 34.4323 245.652 34.4323C244.372 34.4323 243.924 35.5843 244.052 38.0163C244.244 41.2803 244.628 49.7923 244.18 53.5683C243.732 57.0243 242.004 58.9443 237.716 59.0083C233.62 59.0723 229.588 55.5523 230.804 51.3923C231.892 47.6163 232.34 42.3683 230.804 35.2003C229.524 29.3123 229.972 23.2323 230.868 20.0323C231.956 16.0643 231.892 12.2243 231.316 7.48831C230.74 2.94431 233.684 0.320312 238.228 0.320312C243.156 0.320312 245.396 2.88031 244.692 7.55231C244.116 11.7123 243.22 17.3443 243.604 19.8403C243.796 20.8003 244.308 21.3763 245.524 21.3763C246.74 21.3763 247.572 20.2883 247.7 18.9443C248.02 15.5523 246.996 10.8803 246.996 7.74431C247.06 3.26431 249.684 0.640312 254.292 0.640312C258.644 0.640312 261.46 4.60831 260.82 9.21631C260.308 13.0563 259.86 18.0483 260.18 23.6803C260.628 29.6963 260.564 36.2243 259.54 42.8163C258.964 46.7203 258.964 49.4083 259.284 52.8003C259.732 57.3443 258.324 60.0963 253.588 60.0963Z" fill="white"/>
<path d="M140.251 59.9049C132.891 59.9689 129.563 55.1049 131.163 50.1769C131.611 48.7689 131.547 48.0009 131.099 46.8489C129.627 42.8809 133.083 39.3609 138.459 39.2969C145.179 39.2329 146.779 42.1129 146.203 45.6329C145.883 47.6809 147.419 48.3849 149.723 47.6169C154.139 46.2729 159.067 46.2089 163.163 46.8489C168.731 47.8729 170.715 47.8089 175.259 46.2729C181.147 44.2249 185.435 47.5529 185.435 52.0329C185.435 57.2169 183.195 59.3289 179.227 59.7129C175.451 60.0329 170.075 59.4569 167.835 59.0089C161.691 57.7929 157.403 57.7929 152.987 58.6249C149.531 59.2009 144.091 59.8409 140.251 59.9049ZM149.339 25.1529C145.307 24.3209 143.003 23.8729 139.739 23.6809C133.403 23.2969 130.011 19.5209 131.483 12.6729C132.187 9.53691 132.123 10.4329 131.547 7.29691C130.843 3.45691 133.467 0.128906 139.163 0.128906C144.027 0.128906 147.355 3.13691 145.947 9.21691C145.115 12.8009 149.275 13.1849 154.075 13.6969C157.275 14.0169 159.451 14.5289 164.635 12.9289C169.563 11.3289 172.379 10.1129 175.835 9.92091C181.403 9.72891 184.347 11.8409 184.347 16.5129C184.347 21.6969 181.211 23.2969 176.475 23.2969C171.867 23.2969 167.323 24.1289 162.139 25.3449C158.811 26.1769 153.307 25.9849 149.339 25.1529ZM147.739 38.4649C143.579 37.3769 139.419 37.3129 135.131 38.0169C129.371 38.9129 126.555 35.7769 126.555 31.7449C126.555 27.8409 129.051 25.7289 133.211 25.3449C136.795 24.9609 139.803 25.1529 144.411 26.3689C152.027 28.3529 161.755 27.8409 166.491 26.8809C172.379 25.7929 176.859 24.9609 181.275 25.5369C185.499 26.0489 188.507 27.9049 188.507 31.8729C188.507 36.0969 185.563 39.8729 179.611 37.7609C176.923 36.8649 174.171 36.8009 171.291 37.8249C165.403 40.0649 155.931 40.6409 147.739 38.4649Z" fill="white"/>
<path d="M94.5535 60.7352C89.8815 60.7352 86.4255 59.1992 86.4255 55.2312C86.4255 51.5192 87.1935 50.3032 87.1935 47.9992C87.1935 46.0152 86.7455 45.6312 84.1215 45.6312C79.7695 45.6312 76.2495 47.9992 71.1295 47.9992C66.0095 47.9992 63.7695 44.6072 63.7695 40.6392C63.7695 36.7992 65.8815 34.1112 68.9535 33.6632C72.4735 33.1512 76.8255 34.3672 82.2655 34.3672C86.4255 34.3672 90.3295 32.9592 97.4335 32.9592C104.602 32.9592 109.402 34.3672 115.034 33.8552C122.01 33.2152 124.57 35.9672 124.57 40.7672C124.57 44.9272 122.266 47.9992 118.042 47.9992C113.818 47.9992 108.378 45.6952 104.282 45.6952C102.17 45.6952 101.594 45.9512 101.594 47.5512C101.594 50.1752 102.554 52.1592 102.554 55.2952C102.554 58.7512 99.2255 60.7352 94.5535 60.7352ZM66.3295 8.57519C66.3295 3.90319 69.9135 0.703187 74.2015 2.04719C77.4015 3.07119 80.2815 3.00719 83.9935 2.30319C88.9215 1.34319 94.8735 4.60719 93.0815 10.7512C91.4175 16.3192 91.6095 19.6472 92.2495 22.6552C93.4015 28.0312 89.8815 31.5512 84.9535 31.5512C79.7695 31.5512 77.0815 28.8632 77.1455 25.3432C77.1455 23.0392 77.4655 20.2872 78.5535 17.4712C79.2575 15.7432 78.8735 15.0392 77.5935 14.9112C76.8255 14.8472 75.4815 15.1672 73.0495 15.5512C69.3375 16.1272 66.3295 13.0552 66.3295 8.57519ZM95.1295 8.44719C95.1295 3.77519 98.2655 1.21519 102.682 1.91919C105.242 2.30319 108.762 2.87919 112.474 2.17519C117.402 1.21519 124.378 4.86319 121.05 12.2232C119.258 16.1912 119.45 19.8392 120.09 22.8472C121.242 28.2232 118.234 31.7432 113.306 31.7432C108.122 31.7432 105.306 29.0552 105.37 25.5352C105.37 23.2312 105.69 20.4792 106.778 17.3432C107.354 15.6152 107.098 14.9112 105.818 14.7832C105.05 14.7192 103.706 15.0392 101.53 15.4232C97.8175 16.0632 95.1295 12.9272 95.1295 8.44719Z" fill="white"/>
<path d="M37.7858 59.0074C31.9618 60.1594 27.8658 59.9674 21.2098 58.6874C18.1378 58.0474 15.7698 58.3674 13.3378 58.8154C6.48984 60.2234 1.36984 56.1914 4.18584 50.4314C5.27384 48.1274 5.14584 47.9354 4.37784 45.6314C2.07384 38.3994 9.49784 34.8154 15.0658 36.4154C17.5618 37.1834 19.8018 37.3754 21.4658 37.3754C23.2578 37.4394 23.5778 36.6074 23.5778 35.3914C23.5778 33.9194 23.2578 33.4714 20.2498 33.9194C16.8578 34.3674 12.5698 34.8794 8.47384 35.0714C2.58584 35.3274 0.0898438 32.8954 0.0898438 28.7994C0.0898438 25.0874 2.96984 22.7194 7.19384 22.5274C11.4178 22.2714 14.4258 22.7834 17.6258 23.4234C24.3458 24.8314 33.8178 25.0874 40.4098 23.9354C45.0818 23.1034 49.7538 22.5274 53.8498 22.7194C58.0738 22.9754 61.5298 24.8954 61.5298 28.7994C61.5298 32.7034 59.2258 35.2634 52.9538 34.8154C49.1778 34.5594 45.9138 34.0474 42.4578 33.4714C39.1298 32.8954 38.9378 34.1114 38.9378 34.8794C38.9378 36.1594 39.1938 36.8634 40.9218 36.8634C42.7778 36.8634 44.5698 36.7994 46.4258 36.4794C53.7858 35.1354 59.7378 39.0394 57.1138 45.1194C56.3458 46.7834 56.1538 48.1914 57.6258 50.1754C61.7858 55.9994 55.1938 60.7354 46.8738 58.8794C43.0978 58.2394 40.7298 58.3674 37.7858 59.0074ZM23.0658 49.4074C24.7298 49.2154 29.9778 48.8954 32.0258 48.8954C33.5618 48.8954 36.4418 49.0874 39.0018 49.3434C41.3698 49.7914 42.9698 49.5354 42.9698 47.5514C42.9698 45.8874 41.7538 45.4394 39.8338 45.6314C37.0178 45.8874 33.5618 46.1434 30.6178 46.1434C25.7538 46.1434 24.4098 46.0154 22.6178 45.8234C20.4418 45.5034 19.0338 45.6954 19.0338 47.6794C19.0978 49.2154 20.8258 49.6634 23.0658 49.4074ZM3.35384 6.46341C3.35384 2.43141 6.10584 0.447407 9.17784 0.447407C10.9058 0.447407 11.8018 1.15141 14.2338 1.15141C16.6658 1.15141 17.6898 0.191406 22.1058 0.191406C25.4338 0.191406 29.0818 2.36741 29.0818 7.42341C29.0818 10.4314 28.0578 11.1994 27.9298 12.6714C27.8018 13.5674 28.1858 15.0394 28.1858 16.6394C28.2498 20.7994 25.4338 22.3354 21.0178 22.3354C16.6018 22.3354 14.2338 20.4154 14.2338 17.2794C14.2338 16.1274 14.6178 14.5914 15.3218 12.8634C15.8978 11.4554 15.1298 10.9434 13.8498 11.2634C8.28184 12.7994 3.35384 12.2874 3.35384 6.46341ZM30.4898 6.27141C30.4898 2.23941 32.7938 0.255409 36.5058 0.255409C38.2978 0.255409 39.9618 0.831409 42.3938 0.959408C44.8258 1.02341 45.8498 0.959408 48.2178 0.575409C53.5938 -0.320591 57.7538 2.11141 57.1778 7.80741C56.9858 9.72741 56.3458 10.7514 56.1538 12.0314C56.0258 12.9914 56.2818 13.9514 56.2818 15.5514C56.2818 19.5834 53.5298 21.5034 49.1138 21.5034C44.6978 21.5034 42.2018 19.5194 42.2018 16.1914C42.2018 14.3354 42.5858 13.3754 43.2898 12.0954C43.8018 11.1994 42.9698 10.7514 42.0738 11.0074C37.7858 12.2874 30.4898 13.1194 30.4898 6.27141Z" fill="white"/>
</svg>
