<svg xmlns="http://www.w3.org/2000/svg" width="199" height="42" viewBox="0 0 199 42" fill="none">
  <path d="M0.5 20.7578C0.5 9.71181 10.292 0.757812 22.3718 0.757812H167.819C179.899 0.757812 189.691 9.71181 189.691 20.7578C189.691 22.4548 189.46 24.1028 189.025 25.6758C191.334 27.3108 192.809 30.1988 192.445 32.9928C191.577 39.6618 182.897 40.9028 178.396 38.2688C175.261 39.8548 171.656 40.7578 167.819 40.7578H22.3718C10.292 40.7578 0.5 31.8038 0.5 20.7578Z" fill="#FFDC00"/>
  <path d="M195.5 40.2598C197.157 40.2598 198.5 38.9168 198.5 37.2598C198.5 35.6028 197.157 34.2598 195.5 34.2598C193.843 34.2598 192.5 35.6028 192.5 37.2598C192.5 38.9168 193.843 40.2598 195.5 40.2598Z" fill="#FFDC00"/>
</svg>