<svg xmlns="http://www.w3.org/2000/svg" width="200" height="41" viewBox="0 0 200 41" fill="none">
  <path d="M1 20.0059C1 8.95986 10.792 0.00585938 22.8718 0.00585938H168.319C180.399 0.00585938 190.191 8.95986 190.191 20.0059C190.191 21.7029 189.96 23.3509 189.525 24.9239C191.834 26.5589 193.309 29.4469 192.945 32.2409C192.077 38.9099 183.397 40.1509 178.896 37.5169C175.761 39.1029 172.156 40.0059 168.319 40.0059H22.8718C10.792 40.0059 1 31.0519 1 20.0059Z" fill="#EBFFF7"/>
  <path d="M196 39.5078C197.657 39.5078 199 38.1648 199 36.5078C199 34.8508 197.657 33.5078 196 33.5078C194.343 33.5078 193 34.8508 193 36.5078C193 38.1648 194.343 39.5078 196 39.5078Z" fill="#EBFFF7"/>
</svg>